<svg xmlns="http://www.w3.org/2000/svg" width="137.482" height="54.673" viewBox="0 0 137.482 54.673">
  <g id="Lakhri_food_logo" data-name="Lakhri food logo" transform="translate(-119.689 -303.7)">
    <path id="XMLID_356_" d="M191.365,354.279c-.3,0-.5.4-.6.635-1.037,2.04-3.745,7.724-3.611,10.734a3.072,3.072,0,0,0,1.705,2.441.342.342,0,0,1-.167.635h-6.855a.443.443,0,0,1-.435-.435.436.436,0,0,1,.4-.435c.368-.033.9-.134,1.037-.134a1.5,1.5,0,0,0,1.137-.9c2.541-5.116,6.788-15.951,6.822-16.017.134-.234.268-.5.568-.5" transform="translate(-41.075 -31.017)" fill="#179bd7"/>
    <path id="XMLID_355_" d="M211.2,354.279c.3,0,.5.4.6.635,1.037,2.04,3.745,7.724,3.611,10.734a3.072,3.072,0,0,1-1.705,2.441.342.342,0,0,0,.167.635h6.855a.443.443,0,0,0,.435-.435.436.436,0,0,0-.4-.435c-.368-.033-.9-.134-1.037-.134a1.5,1.5,0,0,1-1.137-.9c-2.541-5.116-6.788-15.951-6.822-16.017-.134-.234-.268-.5-.568-.5" transform="translate(-60.91 -31.017)" fill="#179bd7"/>
    <path id="XMLID_354_" d="M119.794,393.4c-.033-.568.2-.869.769-.869.6.033,6.955.033,11.035.033a8.809,8.809,0,0,0,.936-.067,1.468,1.468,0,0,0,1.2-1.4c.033-.234.033-.468.067-.7.033-.334.2-.535.468-.5.334.033.4.267.4.535v3.712c0,.769-.268.936-1.037.9-.869,0-11.67-.067-13.844-.067Z" transform="translate(-0.068 -57.368)" fill="#179bd7"/>
    <path id="XMLID_349_" d="M123.2,364.646c-.568.033-.869-.2-.869-.769.033-.6.033-6.621.033-10.7a8.812,8.812,0,0,0-.067-.936,1.468,1.468,0,0,0-1.4-1.2c-.234-.033-.468-.033-.7-.067-.334-.033-.535-.2-.5-.468.033-.334.268-.4.535-.4h3.712c.769,0,.936.268.9,1.037,0,.869-.067,11.336-.067,13.476Z" transform="translate(0 -30.884)" fill="#179bd7"/>
    <path id="XMLID_348_" d="M474.616,367.789c-.234-.033-.468-.033-.7-.067a1.5,1.5,0,0,1-1.4-1.2,4.413,4.413,0,0,1-.067-.936c0-.267.1-13.476.1-14.345,0-.769-.167-1.037-.9-1.037-.7,0-3.143.033-3.712,0-.267,0-.5.067-.535.4-.033.268.167.435.5.468.234.033.468.033.7.067a1.5,1.5,0,0,1,1.4,1.2,4.414,4.414,0,0,1,.067.936c0,.268-.1,13.476-.1,14.345,0,.769.167,1.037.9,1.037.7,0,3.143-.033,3.712,0,.268,0,.5-.067.535-.4.033-.268-.167-.435-.5-.468" transform="translate(-231.432 -30.951)" fill="#179bd7"/>
    <path id="XMLID_347_" d="M401.5,351.237V350.7a.486.486,0,0,1,.468-.5h8.393a4.506,4.506,0,0,1,4.38,4.481c0,3.31-3.31,4.381-3.31,4.381-.869.234-.5.836-.334,1.1l4.548,6.721a1.347,1.347,0,0,0,1.07.669h.535c.3,0,.568.167.535.5a.557.557,0,0,1-.568.535h-3.01a1.057,1.057,0,0,1-.836-.568l-4.682-7.658c-.5-.836-.334-1.237.3-1.3a4.211,4.211,0,0,0,3.177-4.013,3.357,3.357,0,0,0-3.678-3.377h-6.554c-.2.067-.435-.167-.435-.435" transform="translate(-187.575 -30.951)" fill="#179bd7"/>
    <path id="XMLID_346_" d="M404.108,387a2.392,2.392,0,0,1-2.608-2.508c0-3.21,2.608-6.688,2.608-6.688" transform="translate(-187.575 -49.322)" fill="#098342"/>
    <path id="XMLID_345_" d="M409.3,387a2.392,2.392,0,0,0,2.608-2.508c0-3.21-2.608-6.688-2.608-6.688" transform="translate(-192.767 -49.322)" fill="#098342"/>
    <path id="XMLID_344_" d="M273.842,351.237c.134-.033.669-.1,1.037-.134a.462.462,0,0,0,.4-.435.443.443,0,0,0-.435-.435h-5.919a.338.338,0,0,0-.167.635c.635.368,1.2.167,1.438.669a.821.821,0,0,1-.134.869c-2.207,2.675-5.451,6.621-6.755,8.259v-1.237c.033-3.611.033-7.658.033-8.193,0-.769-.167-1.037-.9-1.037-.7,0-3.143.033-3.712,0-.267,0-.5.067-.535.4-.033.268.167.435.5.468.234.033.468.033.7.067a1.5,1.5,0,0,1,1.4,1.2,43.144,43.144,0,0,1,.535,7.089,40.941,40.941,0,0,1-.535,7.089,1.468,1.468,0,0,1-1.4,1.2c-.234.033-.468.033-.7.067-.334.033-.535.2-.5.468.033.334.268.4.535.4.535-.033,3.01,0,3.712,0,.769,0,.936-.268.9-1.037v-4.447c0-.033,1.271-1.5,3.009-3.578.9,1.739,2.307,4.247,3.712,6.855a1.024,1.024,0,0,1,.134.869c-.234.5-.8.334-1.438.669a.342.342,0,0,0,.167.635h5.919a.443.443,0,0,0,.435-.435.436.436,0,0,0-.4-.435c-.368-.033-.9-.134-1.037-.134-.568-.1-.936-.6-1.371-1.371-2.107-4.213-2.675-5.049-4.648-8.46,1.371-1.672,2.909-3.545,4.213-5.25a4.055,4.055,0,0,1,1.806-1.3" transform="translate(-92.187 -30.951)" fill="#179bd7"/>
    <path id="XMLID_343_" d="M345.286,367.856c-.234-.033-.468-.033-.7-.067a1.5,1.5,0,0,1-1.371-1.137c-.134-1.705-.5-3.946-.535-6.654.033-2.709.4-6.086.535-7.624a1.5,1.5,0,0,1,1.371-1.137c.234-.033.468-.033.7-.067.334-.033.535-.2.5-.468-.033-.334-.267-.4-.535-.4-.368.033-1.705.033-2.709,0h-3.979c-.267,0-.5.067-.535.4-.033.268.167.435.5.468.234.033.468.033.7.067a1.5,1.5,0,0,1,1.371,1.137c0,1.338,0,3.678.033,6.019h-9.1c0-2.341.033-4.715.033-6.019a1.5,1.5,0,0,1,1.371-1.137c.234-.033.468-.033.7-.067.334-.033.535-.2.5-.468-.033-.334-.268-.4-.535-.4-.368.033-1.705.033-2.709,0h-3.979c-.267,0-.5.067-.535.4-.033.268.167.435.5.468.234.033.468.033.7.067a1.5,1.5,0,0,1,1.371,1.137,47.8,47.8,0,0,1,.535,7.156,52.271,52.271,0,0,1-.535,7.156,1.5,1.5,0,0,1-1.371,1.137c-.234.033-.468.033-.7.067-.334.033-.535.2-.5.468.033.334.268.4.535.4.368-.033,1.705-.033,2.709,0h3.979c.267,0,.5-.067.535-.4.033-.268-.167-.435-.5-.468-.234-.033-.468-.033-.7-.067a1.5,1.5,0,0,1-1.371-1.137c0-1.338,0-3.678-.033-6.019h9.1c0,2.341-.033,4.715-.033,6.019a1.5,1.5,0,0,1-1.371,1.137c-.234.033-.468.033-.7.067-.334.033-.535.2-.5.468.033.334.268.4.535.4.368-.033,1.705-.033,2.709,0h3.979c.267,0,.5-.067.535-.4q0-.451-.5-.5" transform="translate(-137.581 -31.017)" fill="#179bd7"/>
    <rect id="XMLID_342_" width="0.568" height="44.106" transform="translate(209.076 307.78)" fill="#7dbbce"/>
    <rect id="XMLID_341_" width="0.568" height="41.364" transform="translate(212.788 303.7)" fill="#7dbbce"/>
    <rect id="XMLID_340_" width="0.568" height="44.106" transform="translate(210.347 311.592)" fill="#7dbbce"/>
    <rect id="XMLID_339_" width="0.568" height="43.471" transform="translate(211.584 314.902)" fill="#7dbbce"/>
    <text id="XMLID_338_" transform="translate(222.171 350.841)" fill="#098342" font-size="13" font-family="SegoeUI, Segoe UI"><tspan x="0" y="0">Foods</tspan></text>
  </g>
</svg>
