<svg xmlns="http://www.w3.org/2000/svg" width="138.469" height="188.326" viewBox="0 0 138.469 188.326">
  <g id="baker" transform="translate(-67.773)">
    <path id="Path_1469" data-name="Path 1469" d="M130.159,392.479a33.385,33.385,0,0,0-33.386,33.383v7.821H115.45l2.838-2.293,2.68,2.293h14.449l29.941-41.2Z" transform="translate(-18.333 -248.116)" fill="#d7d9cc"/>
    <path id="Path_1470" data-name="Path 1470" d="M246.937,392.479H231.772l-15.24,12.476-14.7,11.944v16.784h54.3l2.759-2.109,2.759,2.109h18.677v-7.821A33.385,33.385,0,0,0,246.937,392.479Z" transform="translate(-84.748 -248.116)" fill="#f3f5e6"/>
    <path id="Path_1471" data-name="Path 1471" d="M212.878,220.089l-60-5.5-60,5.5v25.389h120Z" transform="translate(-15.87 -135.657)" fill="#a8503c"/>
    <circle id="Ellipse_56" data-name="Ellipse 56" cx="12.62" cy="12.62" r="12.62" transform="translate(178.244 97.356)" fill="#e3b098"/>
    <ellipse id="Ellipse_57" data-name="Ellipse 57" cx="54.942" cy="51.08" rx="54.942" ry="51.08" transform="translate(82.066 54.909)" fill="#fbc4ac"/>
    <path id="Path_1472" data-name="Path 1472" d="M97.84,200.364c0-26.479,21.673-48.251,49.426-50.824q-2.722-.253-5.517-.255c-27.182,0-49.749,18.351-54.16,42.453a12.617,12.617,0,0,0,.3,25.23,9.236,9.236,0,0,0,1.822-.164c7.362,20.145,27.877,34.64,52.035,34.64q2.793,0,5.517-.255C119.513,248.615,97.84,226.843,97.84,200.364Z" transform="translate(-4.741 -94.374)" fill="#e3b098"/>
    <path id="Path_1473" data-name="Path 1473" d="M184.684,7.5a23.539,23.539,0,0,0-21.468,13.885,23.538,23.538,0,0,0-42.935,0A23.54,23.54,0,1,0,81.747,47.254h0V78.171l60,5.5,60-5.5V47.254h0A23.54,23.54,0,0,0,184.684,7.5Z" transform="translate(-4.741 -4.741)" fill="#f3f5e6"/>
    <path id="Path_1474" data-name="Path 1474" d="M92.783,78.172V47.255h0a23.539,23.539,0,0,1,11.553-39.1,23.541,23.541,0,0,0-22.588,39.1h0V78.172l60,5.5,5.517-.506Z" transform="translate(-4.741 -4.742)" fill="#d7d9cc"/>
    <path id="Path_1475" data-name="Path 1475" d="M219.692,320.526c6.212,7.765,15.365,4.547,20.192,2a1.759,1.759,0,0,0,.169-3c-2.767-1.936-4.378-6.176-6.664-8.306-3.551-3.31-9.669-5.32-13.7-1.667-4.029-3.653-10.146-1.642-13.7,1.667-2.286,2.13-3.9,6.37-6.664,8.306a1.759,1.759,0,0,0,.169,3C204.328,325.073,213.48,328.291,219.692,320.526Z" transform="translate(-82.685 -194.454)" fill="#a8503c"/>
    <g id="Group_1572" data-name="Group 1572" transform="translate(99.954 115.563)">
      <path id="Path_1476" data-name="Path 1476" d="M330.711,319.7h-8.02a2.759,2.759,0,0,1,0-5.517h8.02a2.759,2.759,0,0,1,0,5.517Z" transform="translate(-259.363 -314.18)" fill="#f98084"/>
      <path id="Path_1477" data-name="Path 1477" d="M166.042,319.7h-8.02a2.759,2.759,0,1,1,0-5.517h8.02a2.759,2.759,0,1,1,0,5.517Z" transform="translate(-155.263 -314.18)" fill="#f98084"/>
    </g>
    <rect id="Rectangle_223" data-name="Rectangle 223" width="120.003" height="11.002" transform="translate(77.008 73.429)" fill="#d7d9cc"/>
    <rect id="Rectangle_224" data-name="Rectangle 224" width="11.035" height="11.002" transform="translate(77.008 73.429)" fill="#bdbfb4"/>
    <path id="Path_1478" data-name="Path 1478" d="M236.9,312.518a15.082,15.082,0,0,1-3.182-3.936,22.009,22.009,0,0,0-3.182-4.128,15.777,15.777,0,0,0-10.375-4.358,10.509,10.509,0,0,0-5.2,1.326,10.507,10.507,0,0,0-5.2-1.326,15.775,15.775,0,0,0-10.375,4.358,22.022,22.022,0,0,0-3.182,4.128,15.082,15.082,0,0,1-3.182,3.936,4.517,4.517,0,0,0,.463,7.7,25.576,25.576,0,0,0,11.5,3.2h0a14.925,14.925,0,0,0,9.982-3.666,14.93,14.93,0,0,0,9.983,3.666,25.574,25.574,0,0,0,11.5-3.2,4.517,4.517,0,0,0,.462-7.7Zm-11.96,5.388a9.521,9.521,0,0,1-7.829-3.844,2.758,2.758,0,0,0-4.308,0,9.52,9.52,0,0,1-7.828,3.844h0a18.7,18.7,0,0,1-7.558-1.89,24.544,24.544,0,0,0,3.4-4.416,18.141,18.141,0,0,1,2.325-3.11,10.446,10.446,0,0,1,6.613-2.877,4.765,4.765,0,0,1,3.35,1.235,2.758,2.758,0,0,0,3.706,0,4.764,4.764,0,0,1,3.35-1.235,10.443,10.443,0,0,1,6.613,2.877,18.092,18.092,0,0,1,2.325,3.11,24.561,24.561,0,0,0,3.4,4.416A18.7,18.7,0,0,1,224.935,317.906Z" transform="translate(-77.944 -189.713)"/>
    <path id="Path_1479" data-name="Path 1479" d="M333.593,286.046a2.759,2.759,0,0,0,2.759-2.759V277.4a2.759,2.759,0,0,0-5.517,0v5.889A2.759,2.759,0,0,0,333.593,286.046Z" transform="translate(-166.301 -173.621)"/>
    <path id="Path_1480" data-name="Path 1480" d="M168.925,286.046a2.759,2.759,0,0,0,2.759-2.759V277.4a2.759,2.759,0,0,0-5.517,0v5.889A2.759,2.759,0,0,0,168.925,286.046Z" transform="translate(-62.202 -173.621)"/>
    <path id="Path_1481" data-name="Path 1481" d="M251.259,115.226a2.759,2.759,0,0,0,2.759-2.759V81.675a2.759,2.759,0,1,0-5.517,0v30.792A2.759,2.759,0,0,0,251.259,115.226Z" transform="translate(-114.251 -49.889)"/>
    <path id="Path_1482" data-name="Path 1482" d="M176.079,115.226a2.759,2.759,0,0,0,2.759-2.759V81.675a2.759,2.759,0,0,0-5.517,0v30.792A2.759,2.759,0,0,0,176.079,115.226Z" transform="translate(-66.724 -49.889)"/>
    <path id="Path_1483" data-name="Path 1483" d="M326.439,115.226a2.759,2.759,0,0,0,2.759-2.759V81.675a2.759,2.759,0,1,0-5.517,0v30.792A2.759,2.759,0,0,0,326.439,115.226Z" transform="translate(-161.778 -49.889)"/>
    <circle id="Ellipse_58" data-name="Ellipse 58" cx="3.381" cy="3.381" r="3.381" transform="translate(126.502 170.232)"/>
    <circle id="Ellipse_59" data-name="Ellipse 59" cx="3.381" cy="3.381" r="3.381" transform="translate(154.751 170.232)"/>
    <path id="Path_1484" data-name="Path 1484" d="M74.248,97.481a15.348,15.348,0,0,0,8.9,27.872h.017a53.922,53.922,0,0,0,13.866,19.426,36.5,36.5,0,0,0-13.985,11.1,35.811,35.811,0,0,0-7.366,21.868v7.82a2.759,2.759,0,0,0,2.759,2.759H195.575a2.759,2.759,0,0,0,2.759-2.759v-7.821a35.814,35.814,0,0,0-7.366-21.868,36.5,36.5,0,0,0-13.985-11.1,53.918,53.918,0,0,0,13.866-19.426h.017a15.348,15.348,0,0,0,8.9-27.872v-53.9a26.3,26.3,0,1,0-41.292-32.464,26.288,26.288,0,0,0-42.935,0A26.3,26.3,0,1,0,74.248,43.581Zm120-15.808H79.765V76.189H194.25ZM79.765,94.979V87.191h3.158a50.4,50.4,0,0,0-2.375,7.633l-.045.009-.036.007C80.232,94.881,80,94.926,79.765,94.979Zm1.411,24.657a9.853,9.853,0,0,1-1.6-18.838q-.063.615-.111,1.234a51.582,51.582,0,0,0,1.079,15.057C80.733,117.942,80.94,118.793,81.176,119.636Zm.023,58.11a30.792,30.792,0,0,1,20.749-28.995,59.168,59.168,0,0,0,20.639,9.374c.846.2,1.7.393,2.55.559l-9.794,7.958a2.759,2.759,0,0,0-1.019,2.141v14.026h-11.69V169.084a2.759,2.759,0,0,0-5.517,0v13.725H81.2v-5.063Zm90.868-28.995a30.792,30.792,0,0,1,20.75,28.995v5.063H176.9V169.084a2.759,2.759,0,0,0-5.517,0v13.725h-51.54V170.1l12.825-10.42c.662.046,1.328.079,2,.1a61.182,61.182,0,0,0,27.676-5.426A58.988,58.988,0,0,0,172.067,148.752Zm-11.1.158a56.125,56.125,0,0,1-39.5,3.211c-18.754-5.43-32.993-20.415-36.035-38.771l0-.023c-.822-5.051-1.123-10.411.131-15.426l0-.012c.007-.033.014-.066.02-.1a45.331,45.331,0,0,1,3.357-10.6h96.147a45.321,45.321,0,0,1,3.357,10.6c.006.033.013.066.02.1l0,.011a45.269,45.269,0,0,1,.131,15.429l0,.02C186.02,128.846,175.471,141.939,160.962,148.91Zm31.876-29.273a50.889,50.889,0,0,0,1.714-17.6q-.048-.62-.111-1.238a9.853,9.853,0,0,1-1.6,18.838Zm.672-24.8-.045-.009a50.4,50.4,0,0,0-2.375-7.633h3.158v7.788c-.23-.052-.462-.1-.694-.138ZM73.291,26.3a20.78,20.78,0,0,1,39.734-8.522,2.782,2.782,0,0,0,5.031,0,20.779,20.779,0,0,1,37.9,0,2.781,2.781,0,0,0,5.031,0,20.781,20.781,0,1,1,34.018,22.835,2.758,2.758,0,0,0-.759,1.9V70.671H79.765V42.513a2.76,2.76,0,0,0-.759-1.9A20.691,20.691,0,0,1,73.291,26.3Z"/>
  </g>
</svg>
