<svg xmlns="http://www.w3.org/2000/svg" width="212.768" height="236.008" viewBox="0 0 212.768 236.008">
  <g id="delivery-boy" transform="translate(-1.875 -0.611)">
    <path id="Path_1443" data-name="Path 1443" d="M172.111,23.024C125.179,23.9,92.5.189,69.879.617S.01,14.929,1.958,118.966s66.123,118.1,91,117.643C209.435,234.43,255.22,21.47,172.111,23.024Z" transform="translate(0.141 0)" fill="#efefef"/>
    <path id="Path_1444" data-name="Path 1444" d="M19.7,22.282a15.033,15.033,0,0,0,0,27.918,5.478,5.478,0,0,0,7.512-5.09V27.364A5.477,5.477,0,0,0,19.7,22.282Z" transform="translate(48.458 123.088)" fill="#f3f3f1"/>
    <path id="Path_1445" data-name="Path 1445" d="M30.762,22.282a15.033,15.033,0,0,1,0,27.918,5.478,5.478,0,0,1-7.512-5.09V27.364a5.477,5.477,0,0,1,7.512-5.083Z" transform="translate(123.677 123.088)" fill="#f3f3f1"/>
    <path id="Path_1446" data-name="Path 1446" d="M83,18.75H69.431V42.5H38.894V18.75H25.322A13.612,13.612,0,0,0,11.75,32.322v8a5.394,5.394,0,0,1,6.786,5.185V63.253a5.4,5.4,0,0,1-6.786,5.185v8A13.612,13.612,0,0,0,25.322,90.01H83A13.612,13.612,0,0,0,96.576,76.438v-8a5.394,5.394,0,0,1-6.786-5.185V45.507a5.4,5.4,0,0,1,6.786-5.185v-8A13.612,13.612,0,0,0,83,18.75Z" transform="translate(57.137 104.952)" fill="#2fdf84"/>
    <path id="Path_1447" data-name="Path 1447" d="M15.75,18.75H46.287V42.5H15.75Z" transform="translate(80.281 104.952)" fill="#2fdf84"/>
    <path id="Path_1448" data-name="Path 1448" d="M84.279,42.6l-4.73-21.424a13.018,13.018,0,0,0-9.792-9.887L51.448,7.081a12.945,12.945,0,0,0-5.816,0L27.256,11.3a13.027,13.027,0,0,0-9.8,9.887L12.727,42.6c0,10.573,3.393,23.656,11.808,32.424,5.605,5.843,13.443,9.765,24,9.765s18.4-3.956,24-9.765c8.36-8.673,11.733-21.478,11.733-31.44.02-.231.02-.984.02-.984Z" transform="translate(62.79 35.521)" fill="#f3f3f1"/>
    <g id="Group_1570" data-name="Group 1570" transform="translate(68.887 123.702)">
      <path id="Path_1449" data-name="Path 1449" d="M15.75,18.75H46.287V42.5H15.75Z" transform="translate(11.394 -18.75)" fill="#00b871"/>
      <path id="Path_1450" data-name="Path 1450" d="M35.519,18.92a12.715,12.715,0,0,0-1.7-.17H20.25V42.5H35.519Z" transform="translate(37.431 -18.75)" fill="#00b871"/>
      <path id="Path_1451" data-name="Path 1451" d="M27.019,76.431v-8A5.394,5.394,0,0,0,33.8,63.246V45.5a5.4,5.4,0,0,0-6.786-5.185V32.322a13.582,13.582,0,0,1,11.876-13.4v-.17H25.322A13.612,13.612,0,0,0,11.75,32.322v8a5.394,5.394,0,0,1,6.786,5.185V63.253a5.4,5.4,0,0,1-6.786,5.185v8A13.612,13.612,0,0,0,25.322,90.01H40.591A13.622,13.622,0,0,1,27.019,76.431Z" transform="translate(-11.75 -18.75)" fill="#00b871"/>
      <path id="Path_1452" data-name="Path 1452" d="M18,18.75H48.537V42.5H18Z" transform="translate(24.413 -18.75)" fill="#00b871"/>
    </g>
    <path id="Path_1453" data-name="Path 1453" d="M39.805,75.023C31.384,66.255,28,53.172,28,42.6l4.73-21.417a13.017,13.017,0,0,1,9.8-9.887l13.64-3.128L51.45,7.081a12.945,12.945,0,0,0-5.816,0L27.258,11.3a13.027,13.027,0,0,0-9.8,9.887L12.729,42.6c0,10.573,3.393,23.656,11.808,32.424,5.605,5.843,13.443,9.765,24,9.765a37.569,37.569,0,0,0,7.628-.774,30.958,30.958,0,0,1-16.354-8.992Z" transform="translate(62.802 35.521)" fill="#d5dbe1"/>
    <g id="Group_1571" data-name="Group 1571" transform="translate(1.875 83.834)">
      <path id="Path_1454" data-name="Path 1454" d="M36.8,46.528A10.179,10.179,0,1,1,46.98,36.349,10.192,10.192,0,0,1,36.8,46.528Zm0-13.572a3.393,3.393,0,1,0,3.393,3.393A3.4,3.4,0,0,0,36.8,32.956Z" transform="translate(141.312 64.051)" fill="#a4afc1"/>
      <path id="Path_1455" data-name="Path 1455" d="M5.375,12.875h6.786V26.447H5.375Z" transform="translate(18.376 -12.875)" fill="#a4afc1"/>
      <path id="Path_1456" data-name="Path 1456" d="M5.375,18.625h6.786V32.2H5.375Z" transform="translate(18.376 20.395)" fill="#a4afc1"/>
      <path id="Path_1457" data-name="Path 1457" d="M1.875,16.125H15.447v6.786H1.875Z" transform="translate(-1.875 5.93)" fill="#a4afc1"/>
      <path id="Path_1458" data-name="Path 1458" d="M7.625,16.125H21.2v6.786H7.625Z" transform="translate(31.395 5.93)" fill="#a4afc1"/>
    </g>
    <path id="Path_1459" data-name="Path 1459" d="M21.786,25.572a6.786,6.786,0,1,1,6.786-6.786A6.793,6.793,0,0,1,21.786,25.572Z" transform="translate(75.942 65.896)"/>
    <path id="Path_1460" data-name="Path 1460" d="M25.812,25.572A6.786,6.786,0,1,1,32.6,18.786,6.793,6.793,0,0,1,25.812,25.572Z" transform="translate(99.237 65.896)"/>
    <path id="Path_1461" data-name="Path 1461" d="M31.378,30.345a17.271,17.271,0,0,1-12.018-4.8l-3.664-3.536,7.071-7.322,3.658,3.536a7.192,7.192,0,0,0,9.9,0l3.658-3.536,7.071,7.322-3.664,3.536a17.255,17.255,0,0,1-12.011,4.8Z" transform="translate(79.963 81.461)"/>
    <path id="Path_1462" data-name="Path 1462" d="M97.235,31.914l-4.011-3.135c-.1-.075-12.208-9.1-35.844-9.1s-35.837,9.032-35.959,9.127L17.39,31.867,11.2,23.859l3.99-3.108C15.782,20.29,29.971,9.5,57.38,9.5S98.911,20.3,99.494,20.758l4.011,3.135Z" transform="translate(53.961 51.431)"/>
    <path id="Path_1463" data-name="Path 1463" d="M87.343,52.623H29.662A18.682,18.682,0,0,1,11,33.962V26.09H21.179v7.872a8.494,8.494,0,0,0,8.483,8.483H87.343a8.494,8.494,0,0,0,8.483-8.483V26.633H106v7.329A18.682,18.682,0,0,1,87.343,52.623Z" transform="translate(52.798 147.422)"/>
    <path id="Path_1464" data-name="Path 1464" d="M21.179,44.533H11V36.662A18.682,18.682,0,0,1,29.662,18H87.343A18.682,18.682,0,0,1,106,36.662v7.329H95.826V36.662a8.494,8.494,0,0,0-8.483-8.483H29.662a8.494,8.494,0,0,0-8.483,8.483Z" transform="translate(52.798 100.613)"/>
    <path id="Path_1465" data-name="Path 1465" d="M50.627,51.93H20.09A5.091,5.091,0,0,1,15,46.841V23.09A5.091,5.091,0,0,1,20.09,18H50.627a5.091,5.091,0,0,1,5.09,5.09V46.841A5.091,5.091,0,0,1,50.627,51.93ZM25.179,41.751H45.537V28.179H25.179Z" transform="translate(75.942 100.613)"/>
    <path id="Path_1466" data-name="Path 1466" d="M33.073,60.019A10.569,10.569,0,0,1,22.5,49.453V31.708A10.572,10.572,0,0,1,36.995,21.9a20.121,20.121,0,0,1,0,37.364,10.528,10.528,0,0,1-3.922.76Zm0-28.712a.325.325,0,0,0-.217.075l-.176,18.071a8.941,8.941,0,0,0,6.786-8.876,9.894,9.894,0,0,0-6.25-9.236.4.4,0,0,0-.143-.034Z" transform="translate(119.337 118.752)"/>
    <path id="Path_1467" data-name="Path 1467" d="M26.072,60.015a10.63,10.63,0,0,1-3.922-.753,20.126,20.126,0,0,1,0-37.371,10.572,10.572,0,0,1,14.5,9.813V49.449A10.569,10.569,0,0,1,26.072,60.015Zm-2.029-33.4,1.887,4.723a9.949,9.949,0,0,0,0,18.472L26.465,31.7Z" transform="translate(44.119 118.756)"/>
    <path id="Path_1468" data-name="Path 1468" d="M80.234,79.175l-7.146-7.254c7.492-7.37,10.166-18.3,10.166-26.058v-.346L78.673,25.857a7.582,7.582,0,0,0-5.87-5.51L54.562,16.37a8.552,8.552,0,0,0-3.617,0l-18.3,3.977a7.6,7.6,0,0,0-5.883,5.517L22.193,45.5c.136,8.177,2.884,19.157,10.247,26.432L25.28,79.169C16.961,70.957,12,58.159,12,44.933a5.412,5.412,0,0,1,.163-1.289L16.832,23.55A17.83,17.83,0,0,1,30.472,10.4l18.3-3.977a19.008,19.008,0,0,1,7.946,0L74.961,10.4A17.8,17.8,0,0,1,88.581,23.55l4.71,20.229a5.1,5.1,0,0,1,.136,1.154v.93C93.433,55.682,89.965,69.593,80.234,79.175Z" transform="translate(58.584 31.192)"/>
  </g>
</svg>
