<svg xmlns="http://www.w3.org/2000/svg" width="515.998" height="227.519" viewBox="0 0 515.998 227.519">
  <g id="Lakhri_food_logo" data-name="Lakhri food logo" transform="translate(-119.693 -303.7)">
    <path id="XMLID_356_" d="M222.863,366.849c-1.248,0-2.081,1.665-2.5,2.643-4.315,8.489-15.585,32.143-15.027,44.669a12.784,12.784,0,0,0,7.1,10.158,1.423,1.423,0,0,1-.7,2.643H183.212a1.844,1.844,0,0,1-1.81-1.81,1.815,1.815,0,0,1,1.665-1.81c1.531-.137,3.745-.558,4.315-.558a6.242,6.242,0,0,0,4.732-3.745c10.574-21.29,28.248-66.379,28.389-66.654.558-.974,1.115-2.081,2.364-2.081" transform="translate(24.158 18.258)" fill="#179bd7"/>
    <path id="XMLID_355_" d="M211.2,366.849c1.248,0,2.081,1.665,2.5,2.643,4.315,8.489,15.585,32.143,15.027,44.669a12.784,12.784,0,0,1-7.1,10.158,1.423,1.423,0,0,0,.7,2.643h28.527a1.844,1.844,0,0,0,1.81-1.81,1.814,1.814,0,0,0-1.665-1.81c-1.531-.137-3.745-.558-4.315-.558a6.242,6.242,0,0,1-4.732-3.745c-10.574-21.29-28.248-66.379-28.389-66.654-.558-.974-1.115-2.081-2.364-2.081" transform="translate(35.818 18.258)" fill="#179bd7"/>
    <path id="XMLID_354_" d="M119.813,404.487c-.137-2.364.832-3.616,3.2-3.616,2.5.137,28.943.137,45.922.137a36.654,36.654,0,0,0,3.9-.279,6.109,6.109,0,0,0,4.994-5.826c.137-.974.137-1.947.279-2.913.137-1.39.832-2.226,1.948-2.081,1.39.137,1.665,1.111,1.665,2.226v15.447c0,3.2-1.115,3.9-4.315,3.745-3.616,0-48.564-.279-57.611-.279Z" transform="translate(0.017 33.761)" fill="#179bd7"/>
    <path id="XMLID_349_" d="M134.287,410.614c-2.364.137-3.616-.832-3.616-3.2.137-2.5.137-27.553.137-44.528a36.663,36.663,0,0,0-.279-3.9A6.109,6.109,0,0,0,124.7,354c-.974-.137-1.948-.137-2.913-.279-1.39-.137-2.226-.832-2.081-1.948.137-1.39,1.115-1.665,2.226-1.665h15.447c3.2,0,3.9,1.115,3.745,4.315,0,3.616-.279,47.174-.279,56.08Z" transform="translate(0 18.188)" fill="#179bd7"/>
    <path id="XMLID_348_" d="M497.434,423.383c-.974-.137-1.948-.137-2.913-.279a6.242,6.242,0,0,1-5.826-4.994,18.367,18.367,0,0,1-.279-3.9c0-1.111.416-56.08.416-59.7,0-3.2-.695-4.315-3.745-4.315-2.913,0-13.08.137-15.448,0-1.111,0-2.081.279-2.226,1.665-.137,1.115.695,1.81,2.081,1.947.974.137,1.948.137,2.913.279a6.242,6.242,0,0,1,5.826,4.994,18.378,18.378,0,0,1,.279,3.9c0,1.115-.416,56.08-.416,59.7,0,3.2.695,4.315,3.745,4.315,2.913,0,13.079-.137,15.447,0,1.115,0,2.081-.279,2.226-1.665.137-1.115-.695-1.81-2.081-1.948" transform="translate(136.161 18.219)" fill="#179bd7"/>
    <path id="XMLID_347_" d="M401.5,354.515v-2.235a2.023,2.023,0,0,1,1.948-2.081h34.927A18.752,18.752,0,0,1,456.6,368.848c0,13.774-13.774,18.231-13.774,18.231-3.616.974-2.081,3.479-1.39,4.578l18.926,27.969a5.605,5.605,0,0,0,4.453,2.784h2.226c1.248,0,2.364.7,2.226,2.081a2.318,2.318,0,0,1-2.364,2.226H454.383a4.4,4.4,0,0,1-3.479-2.364L431.42,392.485c-2.081-3.479-1.39-5.148,1.249-5.41a17.524,17.524,0,0,0,13.221-16.7,13.97,13.97,0,0,0-15.306-14.053H403.309c-.832.279-1.81-.695-1.81-1.81" transform="translate(110.332 18.207)" fill="#179bd7"/>
    <path id="XMLID_346_" d="M412.364,416.073a9.954,9.954,0,0,1-10.853-10.437c0-13.358,10.853-27.832,10.853-27.832" transform="translate(110.325 29.025)" fill="#098342"/>
    <path id="XMLID_345_" d="M409.3,416.073a9.954,9.954,0,0,0,10.853-10.437c0-13.358-10.853-27.832-10.853-27.832" transform="translate(113.388 29.025)" fill="#098342"/>
    <path id="XMLID_344_" d="M323.328,354.522c.558-.137,2.784-.416,4.315-.558a1.922,1.922,0,0,0,1.665-1.81,1.844,1.844,0,0,0-1.81-1.81H302.866a1.406,1.406,0,0,0-.695,2.642c2.642,1.532,4.994.7,5.984,2.784a3.417,3.417,0,0,1-.558,3.616c-9.184,11.132-22.684,27.553-28.111,34.369v-5.148c.137-15.027.137-31.868.137-34.095,0-3.2-.695-4.315-3.745-4.315-2.913,0-13.08.137-15.447,0-1.111,0-2.081.279-2.226,1.665-.137,1.115.695,1.81,2.081,1.948.974.137,1.947.137,2.913.279a6.242,6.242,0,0,1,5.826,4.994,179.551,179.551,0,0,1,2.226,29.5,170.388,170.388,0,0,1-2.227,29.5,6.109,6.109,0,0,1-5.826,4.994c-.974.137-1.947.137-2.913.279-1.39.137-2.226.832-2.081,1.947.137,1.39,1.115,1.665,2.226,1.665,2.226-.137,12.526,0,15.447,0,3.2,0,3.9-1.115,3.745-4.315V404.147c0-.137,5.289-6.242,12.522-14.89,3.745,7.237,9.6,17.674,15.447,28.527a4.261,4.261,0,0,1,.558,3.616c-.974,2.081-3.329,1.39-5.984,2.784a1.423,1.423,0,0,0,.7,2.643h24.632a1.844,1.844,0,0,0,1.81-1.81,1.814,1.814,0,0,0-1.665-1.81c-1.532-.137-3.745-.558-4.316-.558-2.364-.416-3.9-2.5-5.705-5.705-8.768-17.532-11.132-21.011-19.342-35.206,5.705-6.958,12.106-14.752,17.532-21.848a16.873,16.873,0,0,1,7.516-5.41" transform="translate(54.217 18.2)" fill="#179bd7"/>
    <path id="XMLID_343_" d="M405.076,423.352c-.974-.137-1.948-.137-2.913-.279a6.242,6.242,0,0,1-5.705-4.731c-.558-7.1-2.081-16.421-2.226-27.69.137-11.273,1.665-25.327,2.226-31.727a6.243,6.243,0,0,1,5.705-4.732c.974-.137,1.947-.137,2.913-.279,1.39-.137,2.226-.832,2.081-1.947-.137-1.39-1.111-1.665-2.226-1.665-1.531.137-7.1.137-11.273,0H377.1c-1.111,0-2.081.279-2.226,1.665-.137,1.115.695,1.81,2.081,1.947.974.137,1.948.137,2.913.279a6.243,6.243,0,0,1,5.706,4.732c0,5.568,0,15.306.137,25.048H347.839c0-9.742.137-19.621.137-25.048a6.242,6.242,0,0,1,5.705-4.732c.974-.137,1.947-.137,2.913-.279,1.39-.137,2.226-.832,2.081-1.947-.137-1.39-1.115-1.665-2.226-1.665-1.531.137-7.1.137-11.273,0H328.617c-1.111,0-2.081.279-2.226,1.665-.137,1.115.695,1.81,2.081,1.947.974.137,1.948.137,2.913.279a6.243,6.243,0,0,1,5.706,4.732,198.933,198.933,0,0,1,2.226,29.779,217.57,217.57,0,0,1-2.226,29.779,6.242,6.242,0,0,1-5.705,4.732c-.974.137-1.947.137-2.913.279-1.39.137-2.226.832-2.081,1.948.137,1.39,1.115,1.665,2.226,1.665,1.531-.137,7.1-.137,11.273,0h16.558c1.111,0,2.081-.279,2.226-1.665.137-1.115-.695-1.81-2.081-1.948-.974-.137-1.948-.137-2.913-.279a6.242,6.242,0,0,1-5.705-4.732c0-5.568,0-15.306-.137-25.048h37.869c0,9.742-.137,19.621-.137,25.048a6.242,6.242,0,0,1-5.705,4.732c-.974.137-1.947.137-2.913.279-1.39.137-2.226.832-2.081,1.948.137,1.39,1.115,1.665,2.226,1.665,1.531-.137,7.1-.137,11.273,0H404.93c1.111,0,2.081-.279,2.226-1.665q0-1.877-2.081-2.081" transform="translate(80.876 18.254)" fill="#179bd7"/>
    <rect id="XMLID_342_" width="2.364" height="183.545" transform="translate(491.656 320.679)" fill="#7dbbce"/>
    <rect id="XMLID_341_" width="2.364" height="172.135" transform="translate(507.104 303.7)" fill="#7dbbce"/>
    <rect id="XMLID_340_" width="2.364" height="183.545" transform="translate(496.946 336.542)" fill="#7dbbce"/>
    <rect id="XMLID_339_" width="2.364" height="180.903" transform="translate(502.093 350.317)" fill="#7dbbce"/>
  </g>
</svg>
