<svg id="waiting" xmlns="http://www.w3.org/2000/svg" width="125.45" height="125.45" viewBox="0 0 125.45 125.45">
  <g id="Group_1069" data-name="Group 1069" transform="translate(59.05)">
    <g id="Group_1068" data-name="Group 1068">
      <path id="Path_328" data-name="Path 328" d="M244.676,0A3.675,3.675,0,0,0,241,3.675V27.3a3.675,3.675,0,1,0,7.351,0V3.675A3.675,3.675,0,0,0,244.676,0Z" transform="translate(-241.001)" fill="#8d2ad3"/>
    </g>
  </g>
  <g id="Group_1071" data-name="Group 1071" transform="translate(59.05 94.479)">
    <g id="Group_1070" data-name="Group 1070">
      <path id="Path_329" data-name="Path 329" d="M244.676,385.6A3.675,3.675,0,0,0,241,389.276V412.9a3.675,3.675,0,0,0,7.351,0v-23.62A3.675,3.675,0,0,0,244.676,385.6Z" transform="translate(-241.001 -385.601)" fill="#8d2ad3"/>
    </g>
  </g>
  <g id="Group_1073" data-name="Group 1073" transform="translate(29.524 7.91)">
    <g id="Group_1072" data-name="Group 1072">
      <path id="Path_330" data-name="Path 330" d="M139.167,54.577l-11.81-20.455a3.675,3.675,0,1,0-6.366,3.675L132.8,58.253a3.675,3.675,0,1,0,6.366-3.675Z" transform="translate(-120.499 -32.283)" fill="#8d2ad3"/>
    </g>
  </g>
  <g id="Group_1075" data-name="Group 1075" transform="translate(76.764 89.732)">
    <g id="Group_1074" data-name="Group 1074">
      <path id="Path_331" data-name="Path 331" d="M331.968,388.519l-11.81-20.455a3.675,3.675,0,1,0-6.366,3.675l11.81,20.455a3.675,3.675,0,0,0,6.366-3.675Z" transform="translate(-313.299 -366.225)" fill="#8d2ad3"/>
    </g>
  </g>
  <g id="Group_1077" data-name="Group 1077" transform="translate(7.911 29.524)">
    <g id="Group_1076" data-name="Group 1076">
      <path id="Path_332" data-name="Path 332" d="M58.255,132.8,37.8,120.99a3.675,3.675,0,0,0-3.675,6.366l20.456,11.81a3.675,3.675,0,1,0,3.675-6.366Z" transform="translate(-32.286 -120.496)" fill="#8d2ad3"/>
    </g>
  </g>
  <g id="Group_1079" data-name="Group 1079" transform="translate(89.732 76.764)">
    <g id="Group_1078" data-name="Group 1078">
      <path id="Path_333" data-name="Path 333" d="M392.2,325.6,371.74,313.792a3.675,3.675,0,1,0-3.675,6.366l20.455,11.809A3.675,3.675,0,0,0,392.2,325.6Z" transform="translate(-366.227 -313.299)" fill="#8d2ad3"/>
    </g>
  </g>
  <g id="Group_1081" data-name="Group 1081" transform="translate(0 59.05)">
    <g id="Group_1080" data-name="Group 1080">
      <path id="Path_334" data-name="Path 334" d="M27.3,241H3.675a3.675,3.675,0,0,0,0,7.351H27.3a3.675,3.675,0,0,0,0-7.351Z" transform="translate(0 -241.002)" fill="#8d2ad3"/>
    </g>
  </g>
  <g id="Group_1083" data-name="Group 1083" transform="translate(94.48 59.05)">
    <g id="Group_1082" data-name="Group 1082">
      <path id="Path_335" data-name="Path 335" d="M412.9,241H389.277a3.675,3.675,0,0,0,0,7.351H412.9a3.675,3.675,0,0,0,0-7.351Z" transform="translate(-385.602 -241.002)" fill="#8d2ad3"/>
    </g>
  </g>
  <g id="Group_1085" data-name="Group 1085" transform="translate(7.911 76.764)">
    <g id="Group_1084" data-name="Group 1084">
      <path id="Path_336" data-name="Path 336" d="M59.6,315.137a3.674,3.674,0,0,0-5.02-1.345L34.125,325.6a3.675,3.675,0,1,0,3.675,6.366l20.456-11.81A3.675,3.675,0,0,0,59.6,315.137Z" transform="translate(-32.287 -313.298)" fill="#8d2ad3"/>
    </g>
  </g>
  <g id="Group_1087" data-name="Group 1087" transform="translate(89.732 29.524)">
    <g id="Group_1086" data-name="Group 1086">
      <path id="Path_337" data-name="Path 337" d="M393.54,122.337a3.675,3.675,0,0,0-5.02-1.345L368.064,132.8a3.675,3.675,0,1,0,3.675,6.366l20.455-11.81A3.675,3.675,0,0,0,393.54,122.337Z" transform="translate(-366.226 -120.499)" fill="#8d2ad3"/>
    </g>
  </g>
  <g id="Group_1089" data-name="Group 1089" transform="translate(29.524 89.732)">
    <g id="Group_1088" data-name="Group 1088">
      <path id="Path_338" data-name="Path 338" d="M137.822,366.719a3.674,3.674,0,0,0-5.02,1.345l-11.81,20.455a3.675,3.675,0,1,0,6.366,3.675l11.81-20.455A3.675,3.675,0,0,0,137.822,366.719Z" transform="translate(-120.499 -366.225)" fill="#8d2ad3"/>
    </g>
  </g>
  <g id="Group_1091" data-name="Group 1091" transform="translate(76.764 7.911)">
    <g id="Group_1090" data-name="Group 1090">
      <path id="Path_339" data-name="Path 339" d="M330.623,32.78a3.674,3.674,0,0,0-5.02,1.345L313.793,54.58a3.675,3.675,0,1,0,6.366,3.675L331.968,37.8A3.675,3.675,0,0,0,330.623,32.78Z" transform="translate(-313.299 -32.286)" fill="#8d2ad3"/>
    </g>
  </g>
</svg>
