<svg xmlns="http://www.w3.org/2000/svg" width="105.001" height="95.456" viewBox="0 0 105.001 95.456">
  <g id="money_1_" data-name="money (1)" transform="translate(0 -23.272)">
    <path id="Path_1892" data-name="Path 1892" d="M100.228,85.318H4.773A4.787,4.787,0,0,1,0,80.545v-52.5a4.787,4.787,0,0,1,4.773-4.773h95.455A4.787,4.787,0,0,1,105,28.045v52.5A4.787,4.787,0,0,1,100.228,85.318Z" fill="#0e9347"/>
    <path id="Path_1893" data-name="Path 1893" d="M283.47,232.727a15.972,15.972,0,0,0-13.364,6.92,17.8,17.8,0,0,0-8.114-2.148,16.7,16.7,0,0,0-16.466,14.318H295.4a4.854,4.854,0,0,0,4.773-4.057A17,17,0,0,0,283.47,232.727Z" transform="translate(-195.174 -166.5)" fill="#0d8944"/>
    <path id="Path_1894" data-name="Path 1894" d="M109.183,99.046H32.818A9.573,9.573,0,0,0,23.273,89.5V56.091a9.573,9.573,0,0,0,9.545-9.545h76.364a9.573,9.573,0,0,0,9.545,9.545V89.5A9.573,9.573,0,0,0,109.183,99.046Z" transform="translate(-18.5 -18.501)" fill="#3bb54a"/>
    <g id="Group_1795" data-name="Group 1795" transform="translate(19.091 32.818)">
      <path id="Path_1895" data-name="Path 1895" d="M289.021,232.727a15.972,15.972,0,0,0-13.364,6.92,17.8,17.8,0,0,0-8.114-2.148,16.393,16.393,0,0,0-15.034,9.545h38.9a9.524,9.524,0,0,1,9.307-9.545A17.251,17.251,0,0,0,289.021,232.727Z" transform="translate(-219.816 -199.318)" fill="#0e9347"/>
      <ellipse id="Ellipse_82" data-name="Ellipse 82" cx="19.091" cy="21.477" rx="19.091" ry="21.477" transform="translate(14.318 0)" fill="#0e9347"/>
      <circle id="Ellipse_83" data-name="Ellipse 83" cx="4.773" cy="4.773" r="4.773" transform="translate(0 16.705)" fill="#0e9347"/>
      <circle id="Ellipse_84" data-name="Ellipse 84" cx="4.773" cy="4.773" r="4.773" transform="translate(57.273 16.705)" fill="#0e9347"/>
    </g>
    <path id="Path_1896" data-name="Path 1896" d="M221.387,116.661h-4.773a2.386,2.386,0,1,1,0-4.773h7.159a2.386,2.386,0,1,0,0-4.773h-2.386a2.386,2.386,0,1,0-4.773,0,7.159,7.159,0,0,0,0,14.318h4.773a2.386,2.386,0,1,1,0,4.773h-7.159a2.386,2.386,0,0,0,0,4.773h2.386a2.386,2.386,0,0,0,4.773,0,7.159,7.159,0,0,0,0-14.318Z" transform="translate(-166.5 -64.752)" fill="#89c763"/>
    <circle id="Ellipse_85" data-name="Ellipse 85" cx="16.705" cy="16.705" r="16.705" transform="translate(45.341 71)" fill="#ffca5d"/>
    <circle id="Ellipse_86" data-name="Ellipse 86" cx="16.705" cy="16.705" r="16.705" transform="translate(66.819 66.227)" fill="#f6b545"/>
    <path id="Path_1897" data-name="Path 1897" d="M342.523,232.727a16.7,16.7,0,1,0,16.7,16.7A16.6,16.6,0,0,0,342.523,232.727Zm0,28.637a11.932,11.932,0,1,1,11.932-11.932A11.816,11.816,0,0,1,342.523,261.364Z" transform="translate(-258.999 -166.5)" fill="#ffcb5b"/>
    <path id="Path_1898" data-name="Path 1898" d="M407.273,330.648h0a16.4,16.4,0,0,0,16.7-16.466h-.239a2.538,2.538,0,0,0-2.386,2.148,14.428,14.428,0,0,1-4.534,8.591,13.52,13.52,0,0,1-7.4,3.579A2.139,2.139,0,0,0,407.273,330.648Z" transform="translate(-323.75 -231.25)" fill="#f6b545"/>
    <path id="Path_1899" data-name="Path 1899" d="M342.523,233.87h0a16.4,16.4,0,0,0-16.7,16.466h.239a2.538,2.538,0,0,0,2.386-2.148,14.428,14.428,0,0,1,4.534-8.591,13.522,13.522,0,0,1,7.4-3.58A2.139,2.139,0,0,0,342.523,233.87Z" transform="translate(-258.999 -167.404)" fill="#ffe27a"/>
    <path id="Path_1900" data-name="Path 1900" d="M350.761,269.6a11.816,11.816,0,0,1,11.932-11.932,11.256,11.256,0,0,1,7.636,2.864,11.895,11.895,0,0,0-21.239,7.4,11.441,11.441,0,0,0,4.3,9.068A11.192,11.192,0,0,1,350.761,269.6Z" transform="translate(-277.5 -185)" fill="#f19920"/>
    <path id="Path_1901" data-name="Path 1901" d="M438.02,316.955a.877.877,0,0,1-.716-.239,1.153,1.153,0,0,1,0-1.67,7.964,7.964,0,0,0,2.148-5.489,1.193,1.193,0,0,1,2.386,0,11.019,11.019,0,0,1-2.625,7.159A2.594,2.594,0,0,1,438.02,316.955Z" transform="translate(-347.337 -226.625)" fill="#ffcb5b"/>
    <g id="Group_1796" data-name="Group 1796" transform="translate(67.057 71)">
      <path id="Path_1902" data-name="Path 1902" d="M398.023,293.592a2.255,2.255,0,0,1-2.386-2.386V281.66a2.386,2.386,0,0,1,4.773,0v9.545A2.255,2.255,0,0,1,398.023,293.592Z" transform="translate(-381.557 -274.501)" fill="#f19920"/>
      <path id="Path_1903" data-name="Path 1903" d="M352.277,282.011a19.389,19.389,0,0,0-11.455-12.886A19.951,19.951,0,0,0,331.754,256a17.25,17.25,0,0,0-4.773,11.693,16.6,16.6,0,0,0,16.7,16.7A13.84,13.84,0,0,0,352.277,282.011Z" transform="translate(-326.981 -256)" fill="#f19920"/>
    </g>
    <g id="Group_1797" data-name="Group 1797" transform="translate(71.591 74.102)">
      <path id="Path_1904" data-name="Path 1904" d="M353.386,289.026a12.553,12.553,0,0,1-2.864-7.636,11.553,11.553,0,0,1,3.818-8.591,10.374,10.374,0,0,0-1.432-1.67,11.691,11.691,0,0,0-3.818,8.83A11.442,11.442,0,0,0,353.386,289.026Z" transform="translate(-349.09 -271.128)" fill="#e78825"/>
      <path id="Path_1905" data-name="Path 1905" d="M395.636,321.164V324.5a2.386,2.386,0,1,0,4.773,0v-.477A19.5,19.5,0,0,0,395.636,321.164Z" transform="translate(-386.09 -310.903)" fill="#e78825"/>
    </g>
    <path id="Path_1906" data-name="Path 1906" d="M351.352,282.935a15.254,15.254,0,0,0-1.909-4.534,11.548,11.548,0,0,1-6.92,2.386,11.816,11.816,0,0,1-11.932-11.932,11.691,11.691,0,0,1,3.818-8.83,14.558,14.558,0,0,0-3.818-2.864,17.25,17.25,0,0,0-4.773,11.693,16.6,16.6,0,0,0,16.7,16.7A16,16,0,0,0,351.352,282.935Z" transform="translate(-258.999 -185.924)" fill="#f6b545"/>
    <path id="Path_1907" data-name="Path 1907" d="M415.386,372.364a16.5,16.5,0,0,1-5.966,2.386,2.538,2.538,0,0,0-2.148,2.386h0a16,16,0,0,0,8.83-2.625Z" transform="translate(-323.749 -277.5)" fill="#f19920"/>
    <path id="Path_1908" data-name="Path 1908" d="M330.591,257.164a17.25,17.25,0,0,0-4.773,11.693h.239a2.538,2.538,0,0,0,2.386-2.148,14.849,14.849,0,0,1,4.3-8.352A9.682,9.682,0,0,1,330.591,257.164Z" transform="translate(-258.999 -185.926)" fill="#ffcb5b"/>
    <circle id="Ellipse_87" data-name="Ellipse 87" cx="16.705" cy="16.705" r="16.705" transform="translate(45.341 71)" fill="#f6b545"/>
    <path id="Path_1909" data-name="Path 1909" d="M290.909,330.886a16.539,16.539,0,0,0,.716,4.773h1.67a16.648,16.648,0,0,0,15.989-21.478h-1.67A16.6,16.6,0,0,0,290.909,330.886Z" transform="translate(-231.249 -231.249)" fill="#f19920"/>
    <path id="Path_1910" data-name="Path 1910" d="M237.795,256a16.7,16.7,0,1,0,16.7,16.7A16.6,16.6,0,0,0,237.795,256Zm0,28.637A11.932,11.932,0,1,1,249.727,272.7,11.816,11.816,0,0,1,237.795,284.637Z" transform="translate(-175.749 -185)" fill="#ffcb5b"/>
    <path id="Path_1911" data-name="Path 1911" d="M302.545,353.921h0a16.4,16.4,0,0,0,16.7-16.466h-.239a2.538,2.538,0,0,0-2.386,2.148,14.428,14.428,0,0,1-4.534,8.591,13.522,13.522,0,0,1-7.4,3.58A2.139,2.139,0,0,0,302.545,353.921Z" transform="translate(-240.499 -249.75)" fill="#f6b545"/>
    <path id="Path_1912" data-name="Path 1912" d="M237.795,257.143h0a16.4,16.4,0,0,0-16.7,16.466h.239a2.538,2.538,0,0,0,2.386-2.148,14.428,14.428,0,0,1,4.534-8.591,13.522,13.522,0,0,1,7.4-3.58A2.139,2.139,0,0,0,237.795,257.143Z" transform="translate(-175.749 -185.904)" fill="#ffe27a"/>
    <path id="Path_1913" data-name="Path 1913" d="M246.034,292.875a11.816,11.816,0,0,1,11.932-11.932,11.256,11.256,0,0,1,7.636,2.864,11.895,11.895,0,0,0-21.239,7.4,11.441,11.441,0,0,0,4.3,9.068A11.193,11.193,0,0,1,246.034,292.875Z" transform="translate(-194.249 -203.5)" fill="#f19920"/>
    <path id="Path_1914" data-name="Path 1914" d="M333.293,340.227a.877.877,0,0,1-.716-.239,1.153,1.153,0,0,1,0-1.67,7.964,7.964,0,0,0,2.148-5.489,1.193,1.193,0,1,1,2.386,0,11.019,11.019,0,0,1-2.625,7.159A2.594,2.594,0,0,1,333.293,340.227Z" transform="translate(-264.087 -245.125)" fill="#ffcb5b"/>
    <path id="Path_1915" data-name="Path 1915" d="M293.3,316.865a2.255,2.255,0,0,1-2.386-2.386v-9.545a2.386,2.386,0,0,1,4.773,0v9.545A2.254,2.254,0,0,1,293.3,316.865Z" transform="translate(-231.25 -222.001)" fill="#f19920"/>
    <g id="Group_1798" data-name="Group 1798" transform="translate(57.273 82.932)">
      <path id="Path_1916" data-name="Path 1916" d="M304.274,314.42a13.957,13.957,0,0,1,.955,4.534A11.816,11.816,0,0,1,293.3,330.886a8.116,8.116,0,0,1-2.386-.239v.239a16.539,16.539,0,0,0,.716,4.773h1.67a16.648,16.648,0,0,0,15.989-21.478h-1.67A15.779,15.779,0,0,0,304.274,314.42Z" transform="translate(-288.523 -314.181)" fill="#f6b545"/>
      <circle id="Ellipse_88" data-name="Ellipse 88" cx="16.705" cy="16.705" r="16.705" transform="translate(0 2.387)" fill="#f6b545"/>
    </g>
    <path id="Path_1917" data-name="Path 1917" d="M295.977,325.818a16.7,16.7,0,1,0,16.7,16.7A16.6,16.6,0,0,0,295.977,325.818Zm0,28.637a11.932,11.932,0,1,1,11.932-11.932A11.816,11.816,0,0,1,295.977,354.455Z" transform="translate(-221.999 -240.5)" fill="#ffcb5b"/>
    <path id="Path_1918" data-name="Path 1918" d="M360.727,423.739h0a16.4,16.4,0,0,0,16.7-16.466h-.239a2.538,2.538,0,0,0-2.386,2.148,14.428,14.428,0,0,1-4.534,8.591,13.522,13.522,0,0,1-7.4,3.58A2.139,2.139,0,0,0,360.727,423.739Z" transform="translate(-286.749 -305.25)" fill="#f6b545"/>
    <path id="Path_1919" data-name="Path 1919" d="M295.977,326.961h0a16.4,16.4,0,0,0-16.7,16.466h.239a2.538,2.538,0,0,0,2.386-2.148,14.428,14.428,0,0,1,4.534-8.591,13.522,13.522,0,0,1,7.4-3.58A2.139,2.139,0,0,0,295.977,326.961Z" transform="translate(-221.999 -241.404)" fill="#ffe27a"/>
    <path id="Path_1920" data-name="Path 1920" d="M304.216,362.693a11.816,11.816,0,0,1,11.932-11.932,11.256,11.256,0,0,1,7.636,2.864,11.895,11.895,0,0,0-21.239,7.4,11.441,11.441,0,0,0,4.3,9.068A11.192,11.192,0,0,1,304.216,362.693Z" transform="translate(-240.499 -259)" fill="#f19920"/>
    <path id="Path_1921" data-name="Path 1921" d="M391.474,410.045a.877.877,0,0,1-.716-.239,1.153,1.153,0,0,1,0-1.67,7.964,7.964,0,0,0,2.148-5.489,1.193,1.193,0,1,1,2.386,0,11.019,11.019,0,0,1-2.625,7.159A2.594,2.594,0,0,1,391.474,410.045Z" transform="translate(-310.337 -300.625)" fill="#ffcb5b"/>
    <path id="Path_1922" data-name="Path 1922" d="M351.477,386.682a2.255,2.255,0,0,1-2.386-2.386V374.75a2.386,2.386,0,0,1,4.773,0V384.3A2.254,2.254,0,0,1,351.477,386.682Z" transform="translate(-277.5 -277.5)" fill="#f19920"/>
  </g>
</svg>
