<svg width="218" height="608" viewBox="0 0 218 608" fill="none" xmlns="http://www.w3.org/2000/svg">
<path d="M99.8032 98.693C99.8032 98.693 86.6568 96.5736 78.9333 102.606C71.2098 108.638 67.7588 116.3 66.9371 124.615C65.9511 132.929 59.8709 165.209 59.8709 165.209L48.0391 149.232L34.8927 160.644C34.8927 160.644 45.9029 213.303 56.42 216.89C66.7728 220.477 78.1116 208.901 80.7409 206.782C83.3702 204.663 99.8032 98.693 99.8032 98.693Z" fill="#C1272D"/>
<path d="M95.369 98.3672C95.369 98.3672 78.1143 122.822 76.1423 129.017C74.1704 135.212 59.5449 146.624 59.8736 161.297C60.0379 169.774 61.024 176.948 61.6813 181.513C62.3386 185.262 62.1742 189.175 61.5169 192.925L54.7794 225.205C54.7794 225.205 59.052 232.541 69.5691 233.682C80.0862 234.824 107.201 241.182 125.113 233.682L137.93 227.487V177.6L146.804 157.221L172.111 116.627C172.111 116.627 159.293 107.823 147.133 103.91C134.315 99.9975 113.938 99.6714 95.369 98.3672Z" fill="#C1272D"/>
<path d="M55.9251 218.847C55.9251 218.847 55.9251 218.521 56.0894 217.706C56.2538 216.891 56.4181 215.913 56.7468 214.445C57.2398 211.511 58.0614 207.598 59.0473 202.707C59.5403 200.262 60.362 197.49 60.6907 194.556C60.855 193.904 60.855 193.088 61.0193 192.273C61.0193 191.458 61.1836 190.806 61.1836 189.991C61.348 188.36 61.348 186.73 61.348 185.1C61.1837 181.839 60.5263 178.416 59.5403 174.829C58.5543 171.405 57.4041 167.656 57.5684 163.743C57.7328 159.83 59.0473 156.08 60.362 152.82C61.8409 149.396 63.4842 146.299 65.2919 143.527C68.9071 137.821 72.5224 132.93 75.4804 128.854C78.4383 124.779 80.9033 121.518 82.5466 119.073C83.3682 117.931 84.0256 117.116 84.5185 116.464C85.0115 115.812 85.1759 115.486 85.1759 115.649C85.1759 115.649 85.0115 115.975 84.5185 116.627C84.0256 117.279 83.5326 118.257 82.7109 119.399C81.0676 121.681 78.767 125.105 75.8091 129.344C72.8511 133.419 69.4002 138.31 65.7849 144.016C63.9773 146.788 62.334 149.885 60.855 153.309C59.3761 156.57 58.2257 160.156 58.0614 164.069C57.8971 167.819 59.0473 171.568 59.869 174.992C60.855 178.579 61.5124 182.002 61.6767 185.426C61.6767 187.056 61.6766 188.687 61.5123 190.317C61.5123 191.132 61.348 191.947 61.348 192.599C61.1837 193.414 61.0193 194.067 61.0193 194.882C60.5263 197.816 59.7047 200.425 59.2117 203.033C58.0614 207.924 57.2397 211.837 56.5824 214.771C56.2537 216.076 56.0894 217.217 55.7607 217.869C56.0894 218.521 55.9251 218.847 55.9251 218.847Z" fill="#263238"/>
<path d="M163.563 111.409C163.563 111.409 195.114 122.658 183.118 161.459C173.587 192.435 154.031 229.443 141.707 230.258C135.298 230.584 128.232 230.421 123.959 226.998C106.211 213.14 95.5299 176.132 95.5299 176.132L112.456 157.384L132.997 187.544C135.298 186.566 148.937 144.83 148.937 144.83C148.937 144.83 158.468 112.713 163.563 111.409Z" fill="#C1272D"/>
<path d="M148.609 148.253C148.609 148.253 148.609 148.579 148.445 149.068C148.28 149.557 147.952 150.372 147.623 151.187C146.966 153.144 145.98 155.915 144.665 159.339C142.036 166.349 138.421 176.131 133.984 188.032L133.655 188.684L133.326 188.032C127.246 179.229 120.18 168.795 112.785 157.872H113.442C112.785 158.524 112.128 159.339 111.306 159.991C105.883 165.534 100.625 170.914 95.6946 175.805L95.859 175.316C98.4883 183.467 101.118 191.13 104.076 197.651C107.033 204.172 110.156 209.715 113.114 214.117C116.072 218.519 118.865 221.617 120.837 223.736C121.823 224.714 122.645 225.529 123.138 226.181C123.631 226.671 123.959 226.997 123.959 226.997C123.959 226.997 123.631 226.834 123.138 226.181C122.481 225.692 121.659 224.877 120.673 223.899C118.701 221.78 115.743 218.682 112.785 214.28C109.663 209.878 106.376 204.498 103.418 197.814C100.296 191.293 97.6666 183.63 95.0374 175.479V175.316L95.2016 175.153C100.132 170.262 105.39 164.882 110.813 159.339C111.47 158.687 112.292 157.872 112.949 157.22L113.278 156.894L113.607 157.383C121.002 168.306 128.068 178.74 134.148 187.543H133.491C138.092 175.805 141.872 166.023 144.501 159.013C145.815 155.589 146.966 152.981 147.623 151.024C147.952 150.209 148.28 149.394 148.445 148.905C148.445 148.416 148.445 148.253 148.609 148.253Z" fill="#263238"/>
<path d="M72.0345 557.134L74.1707 588.925C74.1707 588.925 42.455 601.642 42.1263 607.511L104.243 605.717L103.093 556.156L72.0345 557.134Z" fill="#C1272D"/>
<path d="M93.2311 585.663C94.3814 585.989 95.3675 587.294 95.0388 588.435C94.8745 589.576 93.3955 590.554 92.2452 590.228C91.0949 589.902 89.9445 588.435 90.2732 587.294C90.6018 586.152 92.2452 585.174 93.3955 585.663" fill="#E0E0E0"/>
<path d="M104.407 607.836L104.243 602.13L44.4267 604.249C44.4267 604.249 41.6331 605.553 42.1261 607.51L104.407 607.836Z" fill="#263238"/>
<path d="M73.0203 588.598C73.0203 588.924 74.4993 588.924 76.1426 589.902C77.6215 590.718 78.4431 592.022 78.7718 592.022C79.1004 592.022 78.6075 590.229 76.6355 589.087C74.8279 587.783 73.0203 588.272 73.0203 588.598Z" fill="#263238"/>
<path d="M66.6105 591.37C66.6105 591.696 67.9253 592.185 68.9115 593.326C70.0621 594.467 70.3908 595.934 70.5552 595.934C70.8839 595.934 71.0484 594.141 69.5691 592.674C68.4185 591.207 66.6105 591.044 66.6105 591.37Z" fill="#263238"/>
<path d="M63.1597 599.196C63.4885 599.196 63.8172 597.729 62.9954 596.098C62.1736 594.468 60.6943 593.816 60.5299 594.142C60.3655 594.468 61.3517 595.283 62.0091 596.588C62.6666 597.892 62.831 599.196 63.1597 599.196Z" fill="#263238"/>
<path d="M73.3484 581.263C73.5127 581.59 74.8274 581.1 76.635 581.1C78.2783 581.1 79.7573 581.59 79.9216 581.427C80.0859 581.263 78.7712 580.121 76.7993 580.121C74.663 579.958 73.1841 581.1 73.3484 581.263Z" fill="#263238"/>
<path d="M129.22 557.787L131.028 589.578C131.028 589.578 99.1476 602.131 98.819 608L160.936 606.696L160.114 557.135L129.22 557.787Z" fill="#C1272D"/>
<path d="M150.252 586.317C151.402 586.643 152.388 587.947 152.06 589.088C151.731 590.229 150.416 591.207 149.266 590.881C148.116 590.555 146.966 589.088 147.294 587.947C147.623 586.806 149.266 585.828 150.417 586.317" fill="#E0E0E0"/>
<path d="M161.1 607.837V603.109L101.283 604.74C101.283 604.74 98.4898 606.044 98.8185 608H161.1V607.837Z" fill="#263238"/>
<path d="M130.041 589.088C130.041 589.414 131.52 589.414 133.163 590.392C134.642 591.371 135.464 592.512 135.793 592.512C136.121 592.512 135.628 590.719 133.656 589.577C131.849 588.436 130.041 588.925 130.041 589.088Z" fill="#263238"/>
<path d="M123.633 592.022C123.633 592.348 124.948 592.837 125.934 593.978C127.085 595.12 127.249 596.587 127.578 596.587C127.906 596.587 128.071 594.793 126.756 593.326C125.441 591.696 123.633 591.696 123.633 592.022Z" fill="#263238"/>
<path d="M120.016 599.849C120.345 599.849 120.673 598.382 119.852 596.752C119.03 595.121 117.551 594.469 117.551 594.795C117.386 595.121 118.372 595.937 119.03 597.241C119.687 598.545 119.687 599.849 120.016 599.849Z" fill="#263238"/>
<path d="M130.369 581.915C130.533 582.241 131.848 581.752 133.656 581.752C135.299 581.752 136.778 582.404 136.942 582.078C137.107 581.915 135.792 580.773 133.82 580.773C131.684 580.61 130.205 581.589 130.369 581.915Z" fill="#263238"/>
<path d="M138.751 226.509C138.751 226.509 154.527 242.975 162.907 263.354C171.288 283.57 167.509 381.388 167.509 381.388L165.701 432.579C165.701 432.579 168.166 476.597 166.358 507.899C164.386 539.201 162.25 574.089 162.25 574.089L127.741 575.72L91.0951 309.654L100.298 432.416C106.049 463.718 105.392 518.985 104.242 575.72H67.7602C67.7602 575.72 55.1068 490.781 52.3132 470.565C49.0266 447.741 39.4955 384.974 39.4955 384.974C39.4955 384.974 32.1006 324.979 34.7299 292.536C37.3592 260.093 56.7501 214.934 57.4074 213.141L135.464 227.161" fill="#263238"/>
<path d="M142.695 217.869L151.897 241.998C151.897 241.998 219.93 336.229 217.958 344.055C215.986 351.88 178.847 382.367 168.002 377.476C157.156 372.585 128.891 352.532 119.524 332.316C110.157 312.264 83.3715 255.855 83.3715 255.855L74.9907 240.204L84.3576 233.846L142.695 217.869Z" fill="#455A64"/>
<path d="M56.7502 214.608C64.9667 219.01 64.145 232.705 72.3615 237.107C58.5578 256.181 53.9565 280.31 51.9846 303.786C50.1769 327.262 50.6699 350.902 45.9043 373.889C35.8802 373.237 38.8382 373.4 28.8141 372.748C25.8561 327.588 30.9503 281.94 43.4394 238.411C45.9043 229.444 50.5056 221.293 56.7502 214.608Z" fill="#455A64"/>
<path d="M123.306 254.224C123.306 254.387 124.95 254.061 127.579 253.245C130.208 252.43 133.823 251.289 137.603 249.659C141.383 248.029 144.834 246.235 147.134 244.931C149.435 243.627 150.914 242.649 150.749 242.486C150.749 242.322 149.271 243.138 146.806 244.442C144.341 245.746 141.054 247.376 137.274 249.007C133.495 250.637 130.044 251.941 127.415 252.756C124.785 253.572 123.306 254.061 123.306 254.224Z" fill="#263238"/>
<g opacity="0.2">
<g opacity="0.2">
<g opacity="0.2">
<path opacity="0.2" d="M167.344 325.958L168.988 326.121C157.813 337.696 138.915 341.12 124.29 334.272C119.36 331.99 114.266 327.588 114.594 322.208C131.52 328.077 149.925 329.381 167.344 325.958Z" fill="black"/>
</g>
</g>
</g>
<path d="M82.386 240.205C88.7949 239.064 100.955 242.325 105.392 247.053C109.829 251.617 112.623 257.65 114.759 263.682C119.525 276.724 122.976 291.234 133.328 300.527C143.024 309.33 156.992 311.776 169.974 313.732C170.303 318.46 170.303 324.166 166.359 326.937C165.209 327.753 163.73 328.242 162.415 328.568C158.471 329.546 154.527 330.361 150.583 330.687C132.014 332.154 112.294 324.818 101.448 309.819C87.6446 290.908 86.6586 268.083 78.7708 246.074" fill="#455A64"/>
<path d="M78.771 246.073C78.771 246.073 78.771 246.236 78.9354 246.726C79.0997 247.215 79.264 247.867 79.5926 248.682C80.0856 250.475 80.9073 253.084 81.8933 256.507C82.8793 259.931 83.8652 264.17 85.0155 268.898C86.1658 273.789 87.4805 279.332 89.4524 285.364C91.2601 291.396 93.7251 297.917 97.5047 304.438C99.3123 307.699 101.613 310.796 104.242 313.894C106.871 316.829 109.994 319.6 113.609 321.882C120.675 326.447 129.22 329.708 138.259 330.849C142.86 331.501 147.461 331.501 152.227 331.012C154.527 330.686 156.992 330.36 159.293 329.871C160.443 329.545 161.593 329.382 162.744 329.056C163.894 328.73 165.044 328.404 166.195 327.589C167.345 326.936 168.167 325.795 168.824 324.654C169.481 323.513 169.81 322.209 169.974 321.067C170.467 318.622 170.303 316.176 170.139 313.894V313.568H169.81C161.1 312.264 152.555 310.796 144.996 307.699C141.216 306.069 137.601 304.112 134.643 301.667C131.685 299.221 129.056 296.287 127.084 293.189C122.976 286.994 120.675 280.147 118.375 273.952C116.238 267.756 114.266 261.887 111.801 256.67C110.651 254.062 109.172 251.779 107.693 249.823C106.872 248.845 106.05 247.867 105.228 247.052C104.407 246.236 103.421 245.421 102.435 244.932C98.4907 242.65 94.7111 241.672 91.7531 240.856C88.6308 240.204 86.1658 240.041 84.5225 240.204C82.8792 240.204 82.0576 240.53 82.0576 240.53C82.0576 240.53 82.8792 240.367 84.5225 240.367C86.1658 240.367 88.6308 240.53 91.5887 241.182C94.5467 241.835 98.3263 242.976 102.106 245.258C103.092 245.747 103.913 246.563 104.735 247.378C105.557 248.193 106.378 249.171 107.036 250.149C108.515 252.106 109.829 254.388 111.144 256.996C113.609 262.05 115.417 267.919 117.553 274.115C119.689 280.31 122.154 287.157 126.262 293.515C128.399 296.613 130.864 299.71 133.986 302.156C137.108 304.764 140.723 306.721 144.503 308.351C152.227 311.612 160.772 313.079 169.481 314.383L169.153 314.057C169.317 316.339 169.317 318.785 168.988 321.067C168.66 323.35 167.509 325.632 165.537 326.936C163.565 328.078 161.1 328.567 158.8 329.056C156.499 329.545 154.199 329.871 151.898 330.197C147.297 330.686 142.531 330.686 138.094 330.034C129.056 328.893 120.675 325.795 113.773 321.23C110.322 318.948 107.2 316.339 104.571 313.405C101.942 310.47 99.8053 307.373 97.8334 304.112C94.0538 297.754 91.5888 291.233 89.6168 285.364C87.6449 279.332 86.3302 273.789 85.0155 269.061C83.7009 264.17 82.7149 260.094 81.7289 256.67C80.7429 253.247 79.9213 250.638 79.264 248.845C78.9353 248.03 78.771 247.378 78.6067 246.889C78.9354 246.236 78.771 246.073 78.771 246.073Z" fill="#263238"/>
<path d="M155.512 329.709C155.841 329.709 153.704 325.633 154.362 320.416C154.855 315.199 157.649 311.612 157.485 311.449C157.485 311.449 156.663 312.101 155.677 313.732C154.69 315.199 153.869 317.644 153.54 320.253C153.211 323.024 153.704 325.47 154.197 327.1C154.69 328.893 155.348 329.872 155.512 329.709Z" fill="#263238"/>
<path d="M155.02 317.97C155.02 318.133 158.307 318.623 162.251 318.949C166.359 319.275 169.481 319.275 169.645 318.949C169.645 318.786 166.359 318.296 162.415 317.97C158.307 317.807 155.02 317.807 155.02 317.97Z" fill="#263238"/>
<path d="M153.542 323.351C153.542 323.514 156.993 323.841 161.101 324.004C165.209 324.167 168.66 324.004 168.66 323.678C168.66 323.514 165.209 323.188 161.101 323.025C156.993 322.862 153.542 323.025 153.542 323.351Z" fill="#263238"/>
<path d="M66.7749 244.28C55.4361 254.551 51.1636 270.691 51.4922 285.853C51.9852 301.015 56.4221 315.851 59.873 330.686C63.324 345.522 65.6246 361.173 62.0093 375.846C66.9392 376.498 71.7048 377.15 76.6347 377.965C88.6308 365.412 94.7111 347.641 92.9035 330.523C91.4245 316.34 84.8513 303.297 80.25 289.766C75.6488 276.234 72.8551 261.072 78.771 248.03" fill="#455A64"/>
<path d="M78.607 248.03C78.607 248.03 78.4426 248.193 78.2783 248.682C78.1139 249.171 77.7853 249.823 77.4566 250.639C76.7993 252.269 75.9776 254.877 75.4846 258.301C74.9917 261.725 74.8274 265.963 75.3204 270.854C75.8133 275.745 76.9637 281.288 78.9356 287.157C80.7433 293.026 83.3725 299.385 85.8374 306.232C88.3024 313.079 90.9317 320.415 92.0821 328.567C93.2324 336.718 92.575 345.359 89.9457 354C87.3164 362.477 82.7152 370.792 76.142 377.802L76.4707 377.639C74.1701 377.313 71.7051 376.987 69.2401 376.661C66.7752 376.335 64.1459 376.009 61.8453 375.683L62.1739 376.172C64.4746 366.716 64.3103 357.26 63.3243 348.294C62.174 339.327 60.2019 330.849 58.23 323.024C56.258 315.035 54.4504 307.536 53.1358 300.363C51.9855 293.189 51.4924 286.505 51.6568 280.31C52.1498 267.92 56.0937 258.464 59.709 252.758C61.5166 249.823 63.3242 247.867 64.4745 246.563C65.1318 245.911 65.6249 245.422 65.9535 245.096C66.2822 244.769 66.4465 244.606 66.4465 244.606C66.4465 244.606 66.2822 244.769 65.9535 245.096C65.6249 245.422 65.1318 245.911 64.4745 246.563C63.1599 247.867 61.3522 249.823 59.5446 252.758C55.765 258.464 51.8211 268.083 51.1638 280.473C50.8351 286.668 51.3281 293.515 52.4784 300.689C53.6287 307.862 55.4364 315.525 57.4083 323.513C59.3803 331.502 61.3523 339.816 62.5026 348.783C63.6529 357.586 63.6529 367.042 61.3523 376.335L61.1879 376.824H61.681C63.9816 377.15 66.6109 377.476 69.0758 377.802C71.5408 378.128 74.0057 378.454 76.3063 378.78H76.4707L76.635 378.617C83.3725 371.607 87.9738 363.129 90.603 354.489C93.2323 345.848 93.8896 336.882 92.7393 328.73C91.589 320.579 88.9598 313.079 86.3305 306.232C83.7012 299.385 81.2362 293.189 79.2642 287.157C77.4566 281.288 76.142 275.745 75.649 271.017C75.156 266.126 75.156 261.888 75.649 258.464C76.142 255.04 76.9636 252.432 77.4566 250.802C77.7853 249.986 77.9497 249.334 78.114 248.845C78.607 248.193 78.607 248.03 78.607 248.03Z" fill="#263238"/>
<path d="M64.311 364.27C64.311 364.596 68.9123 363.618 74.4996 364.433C80.0868 365.085 84.3594 367.204 84.3594 366.878C84.3594 366.715 83.3734 366.226 81.7301 365.411C79.9224 364.759 77.4575 363.944 74.6639 363.455C71.8702 363.128 69.2409 363.128 67.269 363.455C65.4613 363.781 64.311 364.107 64.311 364.27Z" fill="#263238"/>
<path d="M72.8545 377.639C73.0188 377.802 74.6621 375.193 76.3053 371.933C77.9486 368.672 79.2633 365.901 78.9347 365.738C78.7703 365.575 77.127 368.183 75.4837 371.444C73.8404 374.704 72.6902 377.476 72.8545 377.639Z" fill="#263238"/>
<path d="M65.2943 376.496C65.4586 376.659 66.9376 373.887 68.4166 370.301C69.8956 366.877 71.046 363.942 70.7173 363.779C70.553 363.616 69.0739 366.388 67.5949 369.974C66.116 373.561 64.9656 376.496 65.2943 376.496Z" fill="#263238"/>
<path d="M86.1692 239.552C86.3336 239.552 86.4979 239.226 86.6623 238.574C86.8267 237.922 86.6624 236.944 86.3336 235.966C86.0049 234.987 85.1831 234.335 84.6899 234.009C84.1968 233.683 83.7037 233.52 83.7037 233.683C83.5393 233.846 84.8543 234.661 85.5118 236.292C86.3336 237.922 86.0048 239.389 86.1692 239.552Z" fill="#263238"/>
<path d="M67.2673 235.965C69.2392 232.868 73.8405 231.89 77.6201 231.401C82.057 231.075 86.494 234.824 86.8226 239.226C87.3156 243.628 84.029 248.03 79.5921 249.171C75.3195 250.312 70.3896 248.356 67.9246 244.606C66.117 242.161 65.624 238.574 67.2673 235.965Z" fill="#455A64"/>
<path d="M75.4855 233.193C75.4855 233.193 74.4995 233.845 73.5135 235.476C72.5275 237.106 71.8702 239.715 72.6919 242.649C73.5135 245.421 75.4856 247.54 76.9646 248.355C78.6079 249.333 79.7582 249.496 79.7582 249.333C79.7582 249.17 78.7722 248.844 77.2932 247.866C75.8143 246.888 74.1709 244.932 73.3492 242.323C72.6919 239.715 73.185 237.269 74.0066 235.639C74.6639 234.009 75.4855 233.193 75.4855 233.193Z" fill="#263238"/>
<path d="M68.0913 234.824C68.0913 234.824 67.4338 235.313 66.9407 236.292C66.4476 237.433 65.9545 239.063 66.1189 240.856C66.2833 242.65 67.1051 244.28 67.7626 245.095C68.5844 246.073 69.2419 246.399 69.2419 246.399C69.4062 246.236 68.9132 245.747 68.2557 244.769C67.5983 243.791 67.1051 242.324 66.9407 240.693C66.7764 239.063 67.1052 237.433 67.4339 236.455C67.927 235.476 68.2557 234.987 68.0913 234.824Z" fill="#263238"/>
<g opacity="0.2">
<g opacity="0.2">
<g opacity="0.2">
<path opacity="0.2" d="M66.9377 244.28C69.8957 247.541 73.6754 249.008 78.1123 249.334C77.2906 251.291 74.497 253.084 72.3607 253.247C70.2244 253.41 68.088 252.269 66.9377 250.475C65.7874 248.519 65.7874 246.074 66.9377 244.28Z" fill="black"/>
</g>
</g>
</g>
<g opacity="0.2">
<g opacity="0.2">
<g opacity="0.2">
<path opacity="0.2" d="M119.033 258.464C120.512 256.67 122.813 255.692 125.114 254.877C133.659 251.779 142.697 246.726 151.242 243.628C143.519 250.475 135.138 258.464 126.264 263.681C124.128 264.985 121.334 266.126 119.362 264.659C117.39 263.355 117.554 260.257 119.033 258.464Z" fill="black"/>
</g>
</g>
</g>
<g opacity="0.2">
<g opacity="0.2">
<g opacity="0.2">
<path opacity="0.2" d="M48.8626 273.625C50.1773 263.517 54.9428 253.572 63.1593 247.54C58.7224 255.529 54.2856 263.68 52.3136 272.484C50.1773 282.265 51.8206 288.461 52.6423 298.405L51.6562 303.296C49.027 293.352 47.548 283.57 48.8626 273.625Z" fill="black"/>
</g>
</g>
</g>
<path d="M123.633 265.473C123.633 265.473 124.127 265.31 124.948 264.821C125.77 264.332 126.92 263.679 128.399 262.701C131.193 260.908 134.972 258.136 138.916 254.876C142.86 251.615 145.982 248.192 148.283 245.746C149.433 244.442 150.255 243.464 150.912 242.812C151.57 241.996 151.734 241.67 151.734 241.67C151.57 241.507 150.255 243.138 147.954 245.42C145.654 247.866 142.367 250.963 138.423 254.224C134.644 257.484 130.864 260.256 128.235 262.212C125.277 264.169 123.469 265.31 123.633 265.473Z" fill="#263238"/>
<path d="M81.7278 21.4169C79.2628 17.015 80.7419 11.1459 84.3571 7.72231C87.9724 4.29868 93.231 2.99444 98.3252 3.15747C103.419 3.3205 108.185 4.78776 113.115 6.25504C116.73 1.52716 122.975 -0.755259 128.891 0.222923C134.642 1.36413 139.736 5.76595 141.38 11.472C144.831 10.1678 148.939 10.8199 151.733 13.2653C154.526 15.7108 155.841 19.6235 155.019 23.2102L133.656 33.8071L114.923 79.4556C108.514 86.4659 96.8462 87.7701 89.1226 82.3902C81.3991 77.0102 78.4412 65.7611 82.8781 57.4465C81.3991 56.4683 80.0846 55.1641 78.9342 53.6968C74.826 51.9035 71.2107 48.4799 69.7317 44.2411C66.2808 35.1114 72.361 23.8623 81.7278 21.4169Z" fill="#263238"/>
<path d="M108.347 103.911C108.84 96.7379 109.005 96.2488 109.005 96.4118C109.005 96.4118 95.2009 92.9882 93.7219 74.7288C93.0646 65.5991 94.5435 50.9264 96.3511 38.8621C97.8301 28.1021 106.211 15.2228 117.057 17.1791L150.416 28.4282C153.702 29.0803 154.688 31.8518 154.36 35.2755L154.524 36.9058L148.937 88.7494L147.129 104.237C146.143 114.019 137.105 124.127 127.245 123.964C116.071 123.475 107.526 114.834 108.347 103.911Z" fill="#EAC8BB"/>
<path d="M113.112 66.9029C113.112 66.7398 111.633 66.4138 109.004 65.9247C108.346 65.7616 107.689 65.5986 107.689 65.2725C107.525 64.7835 107.853 64.1313 108.346 63.4792C109.004 62.0119 109.825 60.3816 110.647 58.7513C113.769 52.0671 116.234 46.5241 115.906 46.361C115.577 46.198 112.783 51.578 109.661 58.2622C108.839 59.8925 108.182 61.5228 107.525 62.9901C107.196 63.6422 106.703 64.4574 107.032 65.4356C107.196 65.9247 107.689 66.2507 108.018 66.4138C108.346 66.5768 108.839 66.5768 109.168 66.5768C111.469 66.9028 112.948 67.0659 113.112 66.9029Z" fill="#263238"/>
<path d="M109.004 96.4115C109.004 96.4115 121.164 98.2048 133.982 91.8467C133.982 91.8467 126.751 104.237 108.675 100.976L109.004 96.4115Z" fill="#65463C"/>
<path d="M123.958 43.1003C124.287 43.7524 126.752 43.4263 129.71 43.7524C132.668 44.0785 135.133 44.8936 135.461 44.2415C135.626 43.9154 135.133 43.2633 134.311 42.6112C133.325 41.9591 131.846 41.307 130.038 41.1439C128.231 40.9809 126.587 41.307 125.602 41.633C124.451 42.2852 123.794 42.7742 123.958 43.1003Z" fill="#263238"/>
<path d="M99.8015 41.1435C100.294 41.7956 102.431 41.3065 104.896 41.4696C107.361 41.6326 109.497 42.2847 109.99 41.6326C110.154 41.3065 109.99 40.8174 109.004 40.1653C108.182 39.5132 106.703 39.0241 104.896 38.8611C103.252 38.6981 101.609 39.1871 100.787 39.6762C99.9658 40.3284 99.6371 40.8174 99.8015 41.1435Z" fill="#263238"/>
<path d="M141.05 17.5047C140.721 21.0913 138.749 24.678 135.791 26.7974C132.833 28.9168 128.889 29.5689 125.274 28.7538C122.481 28.1016 119.523 26.4713 117.058 27.7756C114.428 29.0798 113.935 32.9925 111.635 34.6228C108.184 37.2313 103.254 34.1338 99.1457 35.1119C95.8591 35.7641 93.7228 38.6986 91.4221 40.981C89.1215 43.2635 85.8349 45.5459 82.7126 44.4047C83.2056 41.6331 83.5343 38.6986 84.6846 36.0901C85.6706 33.4816 87.4782 31.0362 89.9431 29.5689C91.2578 28.7538 92.9011 28.4277 94.2158 27.6125C97.0094 25.6562 97.831 22.0695 99.8029 19.298C102.104 15.7113 106.376 13.2659 110.813 13.2659C114.428 13.1028 118.044 14.5701 121.659 13.918C124.288 13.4289 126.753 11.9616 129.382 11.6356C134.641 10.9834 139.078 15.0592 142.529 18.9719" fill="#263238"/>
<path d="M124.286 23.5369C126.586 23.0478 131.352 21.9066 132.831 20.1132C135.789 16.0375 140.719 13.429 145.484 14.0811C150.25 14.7333 154.523 18.809 155.18 23.863C160.931 24.352 166.354 28.4278 168.819 34.1339C171.12 39.8399 170.463 46.8502 167.012 51.9041C166.026 53.2084 164.875 56.1429 164.875 56.1429C164.875 56.1429 167.34 58.4254 168.326 60.2187C173.256 68.0442 163.396 72.446 163.396 72.446C164.054 77.989 158.959 78.6411 155.673 79.1302C152.551 79.4563 151.729 88.586 149.1 88.586L148.114 61.1969C147.785 61.3599 147.456 61.5229 146.963 61.5229C140.719 62.5011 140.883 50.4369 142.526 47.1763C140.39 45.0569 138.418 42.9375 136.775 40.329C135.296 37.7205 134.31 30.8733 134.967 27.7757C132.338 27.6126 123.135 23.6999 124.286 23.5369Z" fill="#263238"/>
<path d="M147.128 62.5015C147.621 58.5888 152.058 56.4694 155.344 58.5888C157.152 59.73 158.302 62.0124 157.809 66.0882C156.495 77.0112 145.813 73.4246 145.813 73.0985C145.813 72.9355 146.471 67.0664 147.128 62.5015Z" fill="#EAC8BB"/>
<path d="M149.595 69.5129C149.595 69.5129 149.759 69.6759 150.088 69.8389C150.417 70.0019 150.91 70.165 151.567 70.002C152.717 69.6759 154.032 68.0456 154.196 66.0892C154.361 65.1111 154.196 64.1329 154.032 63.3177C153.868 62.5026 153.375 61.8504 152.717 61.6874C152.224 61.5244 151.731 61.8505 151.567 62.0135C151.403 62.3395 151.403 62.5026 151.403 62.5026C151.403 62.5026 151.238 62.3395 151.403 61.8505C151.403 61.6874 151.567 61.3614 151.896 61.1983C152.224 61.0353 152.553 60.8723 153.046 61.0353C153.868 61.1983 154.525 62.0135 154.854 62.9917C155.182 63.9698 155.347 64.948 155.182 66.0892C154.854 68.2086 153.539 70.165 151.896 70.491C151.074 70.6541 150.417 70.328 150.252 70.002C149.595 69.6759 149.595 69.5129 149.595 69.5129Z" fill="#65463C"/>
<path d="M88.1365 55.1638C88.1365 55.0008 87.1506 54.5117 85.5073 53.0445C84.0283 51.5772 82.0563 48.9687 81.0703 45.219C80.5773 43.4257 80.413 41.3063 80.906 39.0239C81.2346 36.9045 82.2207 34.622 83.864 32.6657C87.1506 28.916 92.9022 26.6335 98.6537 27.7748C99.1467 27.9378 99.6397 28.1008 100.133 28.2638C100.626 28.4269 101.119 28.5899 101.447 28.7529L102.105 29.079L101.94 28.4269C101.776 27.1226 102.105 25.8184 102.762 24.8402C103.419 23.862 104.405 22.8839 105.556 22.2317C107.692 20.9275 110.157 20.6014 112.622 20.7645C117.387 21.2535 121.496 22.7208 125.111 22.7208C128.726 22.7208 131.684 21.4166 133.163 19.9493C133.985 19.2972 134.313 18.482 134.642 18.156C134.806 17.6669 134.971 17.3408 134.971 17.3408C134.806 17.3408 134.642 18.482 132.999 19.6232C131.52 20.9275 128.726 22.0687 125.275 21.9057C123.468 21.9057 121.66 21.5796 119.524 21.0905C117.387 20.6014 115.251 20.1123 112.786 19.7863C111.636 19.6232 110.321 19.6232 109.007 19.9493C107.692 20.1123 106.377 20.6014 105.227 21.2536C104.077 21.9057 102.926 22.8838 102.105 24.0251C101.283 25.1663 100.954 26.7966 101.119 28.2638L101.776 27.7748C101.283 27.6117 100.79 27.2857 100.297 27.1226C99.8041 26.9596 99.3111 26.7966 98.6537 26.6335C92.5735 25.3293 86.4933 27.7748 83.0423 31.8505C81.2347 33.8069 80.2487 36.2523 79.92 38.5348C79.5913 40.8172 79.7557 43.0996 80.2487 44.8929C81.2347 48.8057 83.3709 51.4142 85.0142 52.7184C85.8359 53.3705 86.4933 53.8596 87.1506 54.1857C87.8079 55.0008 88.1365 55.1638 88.1365 55.1638Z" fill="#455A64"/>
<path d="M85.5073 17.83C85.5073 17.9931 86.4933 16.8519 88.7939 16.1997C89.9442 15.8737 91.2589 15.7106 92.9022 16.0367C94.5455 16.3628 96.1888 17.0149 97.5034 18.4821L97.9964 18.9712L98.1607 18.3191C98.9823 14.5694 102.433 10.8197 107.199 9.67852C110.814 8.86337 114.265 10.0046 117.223 11.1458C120.181 12.45 122.975 13.5912 125.44 14.0803C127.904 14.5694 130.041 14.4064 131.355 14.0803C132.013 13.9173 132.506 13.5912 132.834 13.4282C133.163 13.2652 133.327 13.1022 133.327 13.1022C133.327 13.1022 132.67 13.4282 131.355 13.7543C130.041 14.0803 128.069 14.0803 125.604 13.5912C123.139 13.1021 120.674 11.7979 117.552 10.4937C116.073 9.84155 114.429 9.18943 112.622 8.86337C110.814 8.53731 108.842 8.37428 107.035 8.86337C101.94 10.1676 98.325 14.2434 97.339 18.3191L97.9964 18.1561C96.5174 16.5258 94.7098 15.8737 92.9022 15.5476C91.2589 15.2215 89.7798 15.5476 88.6295 15.8737C87.4792 16.1997 86.6576 16.8519 86.1646 17.1779C85.6716 17.504 85.5073 17.83 85.5073 17.83Z" fill="#455A64"/>
<path d="M114.594 72.1197C115.252 71.3046 116.402 70.9785 117.388 70.9785C118.374 70.9785 119.689 71.6306 120.51 72.6088C120.51 72.6088 120.51 72.6088 120.675 72.7718C121.003 73.0979 121.168 73.587 121.168 73.9131C121.168 74.8912 120.51 75.8694 119.689 76.3585C118.374 77.1737 116.566 77.3367 115.252 76.3585C113.937 75.3803 113.608 73.424 114.594 72.1197Z" fill="#65463C"/>
<path d="M121.166 70.1631C121.002 70.1631 120.838 70.6522 120.18 71.4673C119.687 72.2825 118.701 73.0976 117.387 73.5867C116.072 74.0758 114.757 74.0758 113.936 73.7497C112.95 73.5867 112.457 73.2607 112.457 73.4237C112.457 73.5867 112.785 74.0758 113.771 74.4019C114.757 74.7279 116.236 75.054 117.88 74.4019C119.359 73.7498 120.509 72.6085 120.838 71.6304C121.331 70.8152 121.331 70.1631 121.166 70.1631Z" fill="#263238"/>
<path d="M163.4 40.0029C163.4 40.0029 163.565 39.8399 163.893 39.6768C164.222 39.3508 164.551 39.0247 165.208 38.5356C166.194 37.3944 167.509 35.6011 168.166 32.9926C168.495 31.6884 168.495 30.2211 168.166 28.5908C167.837 26.9605 167.016 25.4932 165.701 24.189C164.386 22.8847 162.414 22.0696 160.442 22.0696C158.47 22.0696 156.334 22.8847 155.02 24.678L155.513 25.0041C155.513 25.0041 155.513 25.0041 155.513 24.8411C156.827 20.9283 156.827 16.6896 155.184 13.429C153.541 10.1683 150.583 8.04895 147.789 7.88592C144.995 7.55986 142.859 8.70108 141.709 9.67926C141.051 10.1684 140.723 10.6574 140.559 10.9835C140.394 11.3096 140.23 11.4726 140.23 11.4726C140.23 11.4726 140.723 10.6574 141.873 9.84229C143.023 9.02714 145.16 8.04895 147.789 8.37501C150.418 8.70107 153.212 10.6574 154.691 13.755C156.17 16.8526 156.17 20.9284 154.855 24.678C154.855 24.678 154.855 24.678 154.855 24.8411L154.362 26.4714L155.348 25.0041C156.499 23.3738 158.471 22.7217 160.278 22.7217C162.086 22.7217 163.893 23.3738 165.044 24.678C166.358 25.8193 167.016 27.4496 167.344 28.9168C167.673 30.3841 167.673 31.8514 167.344 33.1556C166.851 35.7641 165.537 37.5574 164.551 38.6987C164.058 39.5138 163.4 40.0029 163.4 40.0029Z" fill="#263238"/>
<path d="M5.97105 140.104L16.6525 180.046C17.3098 182.328 19.2818 183.796 21.5824 183.796L76.7973 182.654C79.9196 182.654 82.2202 179.72 81.5629 176.622L73.5107 138.31C73.0177 136.028 71.0457 134.397 68.5808 134.397H10.408C7.28571 134.56 5.1494 137.332 5.97105 140.104Z" fill="#263238"/>
<path d="M1.20635 149.07C0.0560325 147.766 0.0560325 145.483 1.20635 144.179C2.35666 142.712 4.16429 142.06 5.97193 141.896C7.77956 141.896 9.58722 142.386 11.2305 143.038C13.3668 143.853 15.3388 144.831 17.1464 145.972C18.461 146.787 19.94 147.929 20.1043 149.396C20.433 150.863 18.6254 152.656 17.3108 151.841C19.1184 152.656 20.926 154.45 21.0904 156.406C21.419 158.363 20.2687 159.341 18.461 159.993C19.94 160.482 20.7616 162.275 20.1043 163.743C19.447 165.21 17.3107 165.536 15.8318 165.047C14.3528 164.395 13.2025 163.253 12.0522 161.949C13.2025 163.743 13.5311 166.025 13.0381 168.144C8.76553 166.677 5.64325 162.764 4.98593 158.363C2.84963 156.895 2.19232 153.798 3.50697 151.515C1.86366 151.026 -0.108318 148.418 0.0560124 146.624" fill="#EAC8BB"/>
<path d="M18.6237 160.156C18.6237 160.156 17.9663 159.667 16.816 158.852C15.6657 158.037 14.0225 156.896 12.0505 156.407C11.0645 156.244 10.0785 156.244 9.09254 156.407C8.27089 156.57 7.44926 157.059 6.95627 157.385C5.97029 158.2 5.6416 159.178 5.6416 159.178C5.6416 159.178 5.64161 159.015 5.80594 158.526C5.97027 158.2 6.29894 157.711 6.79193 157.222C7.28492 156.733 8.10656 156.244 9.09254 156.08C10.0785 155.754 11.0645 155.754 12.2148 156.08C14.3511 156.57 15.9944 157.874 17.1447 158.689C17.9664 159.504 18.6237 160.156 18.6237 160.156Z" fill="#65463C"/>
<path d="M18.1325 152.167C18.1325 152.167 17.3108 151.841 15.9961 151.189C15.3388 150.863 14.5172 150.537 13.6956 150.211C12.8739 149.885 11.7237 149.559 10.7377 149.396C9.58737 149.233 8.60135 149.233 7.61537 149.396C6.6294 149.559 5.97209 149.885 5.31477 150.374C4.16446 151.189 3.83582 152.167 3.83582 152.167C3.83582 152.167 3.83578 152.004 4.0001 151.515C4.16443 151.189 4.49311 150.537 5.15043 150.048C5.80775 149.559 6.6294 149.069 7.61537 148.906C8.60135 148.743 9.75166 148.743 10.902 148.906C12.0523 149.069 13.0383 149.396 14.0243 149.722C15.0102 150.048 15.6675 150.537 16.3248 150.863C17.3108 151.678 18.1325 152.167 18.1325 152.167Z" fill="#65463C"/>
<path d="M42.1258 153.798H42.4545C43.7692 153.635 45.2482 154.776 45.4125 156.08C45.5768 157.384 44.5908 158.852 43.1118 159.015C41.7971 159.178 40.3181 158.2 39.9895 156.895C39.8251 155.591 40.8111 154.124 42.1258 153.798Z" fill="white"/>
<path d="M95.8602 140.103C95.8602 140.103 89.9443 128.854 88.301 129.506C86.4933 130.158 84.357 130.158 85.343 134.56C86.4933 138.798 89.2869 141.733 89.1226 145.157C88.9583 148.58 86.3291 156.08 89.287 159.503C92.2449 163.09 97.1748 173.524 97.1748 173.524L110.157 160.481L107.199 156.243C107.199 156.243 112.129 149.558 112.951 145.646C113.937 141.733 112.458 136.19 112.458 136.19C112.458 136.19 112.786 132.929 110.979 130.484C110.979 130.484 111.307 127.875 111.307 125.267C111.307 122.658 104.405 111.898 104.405 111.898C104.405 111.898 100.954 113.203 102.105 116.789C103.255 120.376 104.734 123.474 104.734 123.474L96.8462 120.539C96.8462 120.539 94.7098 124.289 98.9824 126.571C103.255 128.854 103.912 130.81 103.912 130.81L97.8322 131.299C97.8322 131.299 97.3392 134.56 99.6398 135.375C102.105 136.027 102.105 136.027 102.105 136.027L95.8602 140.103Z" fill="#EAC8BB"/>
<path d="M99.3109 135.049C100.461 135.212 101.94 135.701 104.734 136.19H104.898C105.555 137.494 106.048 139.125 105.884 141.081C105.72 143.037 104.898 144.831 103.419 146.461C101.776 148.091 99.6396 149.069 97.9963 149.885C96.1886 150.7 94.7097 151.678 93.888 152.819C92.9021 153.96 92.5734 155.102 92.409 155.917C92.2447 156.732 92.4091 157.221 92.2448 157.221C92.2448 157.221 92.2448 157.058 92.2448 156.895C92.2448 156.732 92.2448 156.406 92.2448 155.917C92.2448 155.102 92.7378 153.797 93.7238 152.656C94.7097 151.515 96.1886 150.374 97.9963 149.559C99.6396 148.58 101.776 147.765 103.255 146.135C104.569 144.668 105.555 142.874 105.72 141.081C105.884 139.288 105.391 137.657 104.734 136.516L104.898 136.679C101.283 135.701 99.3109 135.212 99.3109 135.049Z" fill="#65463C"/>
<path d="M111.307 135.702C111.142 135.702 111.142 135.212 110.814 134.397C110.485 133.582 109.664 132.767 108.513 132.115C107.363 131.463 106.213 131.137 105.391 130.974C104.569 130.811 104.076 130.648 104.076 130.648C104.076 130.648 104.569 130.485 105.555 130.648C106.377 130.811 107.692 130.974 108.842 131.626C109.499 131.952 109.992 132.441 110.321 132.93C110.649 133.419 110.978 133.908 111.142 134.234C111.307 135.212 111.307 135.702 111.307 135.702Z" fill="#65463C"/>
<path d="M110.65 129.017C110.485 129.017 109.664 127.55 108.02 126.082C106.541 124.615 104.898 123.637 105.062 123.637C105.062 123.474 106.87 124.289 108.349 125.756C109.992 127.386 110.65 129.017 110.65 129.017Z" fill="#65463C"/>
</svg>
