<svg width="516" height="251" viewBox="0 0 516 251" fill="none" xmlns="http://www.w3.org/2000/svg">
<path d="M512.764 193.862C510.582 188.952 505.854 185.679 500.58 185.315H499.58H489.396H489.123C488.123 185.315 487.214 185.679 486.486 186.316C486.396 186.407 486.214 186.497 486.123 186.679C486.032 186.497 485.941 186.225 485.941 186.043C489.214 176.95 497.216 171.131 508.127 167.13C508.581 166.948 508.49 166.312 508.036 166.312C495.943 165.585 487.577 168.676 481.758 173.131C480.576 169.494 479.394 165.857 478.212 162.22C481.849 157.038 487.214 152.491 494.942 149.127C495.397 148.945 495.306 148.218 494.761 148.218C486.85 147.854 480.394 149.673 475.212 152.855C473.029 146.127 470.847 139.307 468.665 132.579C466.301 125.214 463.937 117.849 461.573 110.484C460.482 107.119 459.572 103.664 458.3 100.391C460.027 100.027 461.391 98.4815 461.391 96.663C461.391 94.7536 459.936 93.1169 458.118 92.8441C458.118 91.753 458.118 90.571 458.118 89.4799C458.118 83.7516 458.118 78.0232 458.118 72.2949C458.118 65.3846 458.118 58.4742 458.118 51.5639C458.118 45.5628 458.118 13.2842 458.118 7.28313C458.118 5.28276 458.118 3.37333 458.118 1.37296C458.118 0.463707 458.209 -0.536472 458.118 -1.44573C458.118 -1.44573 458.118 -49.9091 458.118 -50H457.117V-1.44573C457.117 0.918335 457.117 3.19148 457.117 5.55554C457.117 11.2839 457.117 43.2897 457.117 49.018C457.117 55.9283 457.117 62.8387 457.117 69.749C457.117 75.7501 457.117 81.7512 457.117 87.6613C457.117 89.3889 457.117 91.0256 457.117 92.7532C455.208 93.026 453.844 94.5717 453.844 96.5721C453.844 98.3906 455.208 99.9363 456.936 100.3C456.117 102.937 455.299 105.665 454.481 108.301C452.389 115.394 450.207 122.395 448.116 129.487C445.57 137.943 443.024 146.49 440.387 154.946C439.932 156.583 439.387 158.22 438.932 159.856C436.205 159.22 433.113 158.947 429.749 159.22C429.294 159.22 429.203 159.856 429.567 160.038C432.567 161.493 435.113 163.221 437.296 165.221C436.841 166.767 436.386 168.312 435.932 169.858C429.84 165.948 421.384 163.311 409.836 163.948C409.382 163.948 409.2 164.675 409.745 164.857C420.202 168.676 428.203 174.041 432.295 182.042C432.022 182.77 431.84 183.588 431.567 184.315C431.476 184.588 431.385 184.861 431.295 185.134C430.931 185.043 430.658 185.043 430.294 185.043H430.203H418.11C415.019 185.134 412.109 186.679 410.291 189.316C401.198 202.409 407.199 221.14 409.745 227.505C409.927 227.96 410.564 227.778 410.564 227.323C410.382 219.958 409.2 197.59 422.293 188.407C424.02 190.135 425.748 192.317 426.021 194.59C425.839 194.59 425.657 194.681 425.566 194.772C425.384 194.954 425.384 195.135 425.475 195.317C425.203 195.408 425.021 195.59 425.021 195.863C424.839 206.137 429.021 215.776 436.568 222.686C442.66 228.232 450.48 231.506 458.754 231.96C468.938 232.506 478.576 228.778 485.759 221.595C492.578 214.775 496.306 205.592 496.215 195.863C496.215 195.499 495.943 195.226 495.579 195.226H495.215C495.306 195.044 495.306 194.863 495.215 194.772C495.124 194.59 494.943 194.408 494.761 194.499C495.033 192.226 496.306 190.044 497.67 188.316C510.945 197.409 510.4 219.867 510.309 227.232C510.309 227.687 510.945 227.869 511.127 227.414C513.128 222.14 518.219 206.501 512.764 193.862ZM480.849 173.768C477.667 176.405 475.303 179.405 473.575 182.315L471.12 182.224C471.938 175.677 473.757 169.131 477.485 163.311C478.576 166.858 479.758 170.313 480.849 173.768ZM440.387 158.492C442.933 150.036 445.479 141.489 448.116 133.033C450.389 125.668 452.571 118.303 454.844 110.847C455.572 108.392 456.299 106.028 457.027 103.573C457.208 102.937 457.481 102.3 457.663 101.573C458.39 103.937 459.209 106.392 459.936 108.756C462.209 115.757 464.482 122.85 466.756 129.851C469.301 137.761 471.847 145.581 474.393 153.491C466.21 158.947 461.209 167.676 458.118 175.768C454.481 169.04 448.843 162.675 439.932 160.311C440.023 159.674 440.205 159.038 440.387 158.492ZM438.023 166.221C441.296 169.313 443.66 172.95 445.297 176.95H443.479C441.66 174.677 439.387 172.495 436.659 170.585C437.205 169.131 437.568 167.676 438.023 166.221ZM432.749 183.679C433.113 184.497 433.477 185.406 433.75 186.316C433.204 186.043 432.749 185.77 432.113 185.588C432.386 184.952 432.567 184.315 432.749 183.679Z" fill="#C1272D" fill-opacity="0.3"/>
<path d="M158.513 115.576C160.877 113.394 163.878 107.211 162.423 108.12C161.332 108.757 157.695 109.121 154.331 111.303C152.058 112.758 151.33 114.94 152.058 116.486C150.876 117.304 149.694 118.213 148.421 119.032C148.239 118.031 147.784 116.849 147.148 115.485C145.784 112.576 140.783 107.848 141.147 109.484C141.419 110.757 140.692 114.303 141.783 118.213C142.329 120.032 143.329 121.214 144.511 121.668C142.601 122.941 140.601 124.123 138.601 125.124C139.055 123.851 138.055 122.214 136.691 120.214C134.873 117.577 129.144 113.758 129.781 115.304C130.326 116.486 130.145 120.123 131.872 123.76C132.691 125.487 133.873 126.397 135.146 126.76C133.418 127.488 131.69 128.124 129.872 128.67C128.235 129.124 126.508 129.488 124.871 129.852C125.871 128.579 124.962 126.76 123.689 124.396C122.143 121.577 116.869 117.122 117.324 118.759C117.688 120.032 117.142 123.578 118.506 127.397C119.052 128.942 119.961 129.943 120.961 130.488C119.597 130.761 118.233 131.034 116.869 131.397C115.597 131.761 114.323 132.216 113.141 132.761C113.505 131.488 112.596 129.852 111.323 127.942C109.504 125.214 103.958 121.214 104.595 122.85C104.776 123.305 104.867 124.214 104.958 125.305C104.867 125.214 104.867 125.033 104.776 124.942C101.685 117.94 98.6843 110.848 95.5929 103.847C92.956 97.755 90.3191 91.6629 87.6823 85.48C86.773 83.4796 85.9548 81.4793 85.0455 79.4789C84.7727 78.9334 84.5909 78.3878 84.3181 77.7513C85.9547 77.2967 87.1367 75.8419 87.1367 74.0234C87.1367 72.023 85.682 70.4773 83.7725 70.2045C83.7725 65.8401 83.7725 61.4756 83.7725 57.1112C83.7725 48.1096 83.7725 39.108 83.7725 30.0154C83.7725 27.9241 83.7725 -47.9078 83.7725 -49.9082H82.6814V23.9234C82.6814 29.5608 82.6814 35.1982 82.6814 40.8355C82.6814 49.8372 82.6814 58.8388 82.6814 67.9314C82.6814 68.7497 82.6814 69.4771 82.6814 70.2954C80.7719 70.5682 79.3172 72.2049 79.3172 74.1143C79.3172 75.9328 80.5901 77.4786 82.2267 77.8423C81.4084 79.8426 80.681 81.9339 79.8627 83.9343C77.6805 89.7535 75.4074 95.6637 73.2252 101.483C70.5884 108.484 67.8605 115.576 65.2237 122.578C64.6781 124.032 64.1325 125.487 63.587 126.942C62.4959 128.67 61.4958 130.943 61.132 132.579C61.0411 133.216 60.8592 133.762 60.8592 134.307C60.4955 135.307 60.1319 136.307 59.6773 137.308C57.0404 136.216 54.3126 135.489 51.494 135.125C51.2212 135.125 50.9484 135.034 50.6756 135.034C50.6756 135.034 50.7665 135.034 50.7665 134.944C52.585 133.671 52.7669 130.761 50.3119 128.215C47.2204 125.033 43.4925 123.851 42.4923 122.85C41.1284 121.577 42.856 128.852 44.8563 131.761C45.8565 133.125 46.6749 134.307 47.5841 135.034C46.3112 135.125 45.1291 135.398 43.9471 135.762C41.6739 136.489 39.5826 137.58 37.6732 138.853C37.2186 139.126 36.7639 139.49 36.3093 139.763C36.8549 137.944 35.6729 135.58 32.7633 134.489C28.6717 132.943 24.7618 133.398 23.3979 132.943C21.5794 132.307 26.3075 138.217 29.3081 139.944C30.9447 140.854 32.3086 141.672 33.4906 141.763C31.0357 143.672 28.6716 145.855 26.2166 147.764C25.2164 148.582 24.2163 149.31 23.2161 150.128C23.2161 150.128 23.2161 150.128 23.2161 150.037C23.9435 147.946 22.3068 145.491 18.8516 144.854C14.4872 144.127 10.7592 145.4 9.39536 145.218C7.57685 144.945 13.2143 149.855 16.5785 150.946C18.0333 151.492 19.3062 151.856 20.3973 151.947C20.3064 152.038 20.2156 152.128 20.1246 152.219C18.3061 153.311 16.3057 154.22 14.3054 154.947C13.3961 153.674 11.5776 152.856 9.21356 153.22C4.84913 153.856 1.66669 156.129 0.302803 156.402C-1.51571 156.766 5.30373 159.675 8.84983 159.766C12.305 159.857 14.7599 159.766 14.9418 157.038C16.5785 156.584 18.0333 155.856 19.4881 155.129C19.579 156.038 19.8519 157.038 20.1246 158.13C21.0339 161.585 25.3074 167.586 25.2164 165.767C25.1255 164.403 26.6712 160.766 26.3075 156.311C26.1256 154.311 25.3074 152.856 24.2163 152.038C27.5805 149.583 30.7629 146.764 33.9453 144.127C34.218 145.127 34.9455 146.309 35.7638 147.582C37.0367 149.583 40.0373 152.128 41.7649 153.22C41.4921 153.674 41.2194 154.038 41.0375 154.493C40.492 152.947 38.7644 151.583 36.0366 151.583C31.6722 151.492 28.126 153.311 26.6712 153.311C24.7618 153.311 31.1266 157.311 34.5818 157.948C36.6731 158.311 38.4007 158.584 39.5827 158.13C38.7644 161.13 38.5825 164.222 38.6735 167.313C37.4005 166.313 35.1273 166.222 32.8542 167.677C29.2172 170.132 27.3077 173.587 26.1257 174.405C24.58 175.496 32.0358 175.133 35.3092 173.678C36.764 173.041 38.0369 172.405 38.8553 171.768C38.9462 173.132 39.0372 174.496 39.1281 175.769C39.3099 178.042 39.4008 180.406 39.4917 182.679C38.0369 181.679 35.5819 181.861 33.4906 183.861C30.3082 186.862 29.0353 190.681 28.0351 191.681C26.7621 193.045 34.0362 191.408 36.9459 189.408C38.037 188.681 38.9462 188.044 39.5827 187.408C39.6737 190.499 39.5827 193.591 39.4008 196.773C37.946 195.5 35.4002 195.591 33.2179 197.773C30.0355 200.774 28.7626 204.593 27.7624 205.593C26.4894 206.957 33.7634 205.32 36.673 203.32C37.5823 202.683 38.4007 202.138 39.1281 201.501C38.8553 204.683 38.4006 207.866 38.1278 211.048C36.673 210.321 34.4908 210.594 32.5814 212.503C29.399 215.504 28.126 219.322 27.1259 220.323C25.8529 221.687 33.127 220.05 36.0366 218.05C36.5822 217.686 37.1277 217.322 37.5823 216.958C37.4004 219.05 37.4005 221.141 37.4005 223.232C35.8548 223.96 34.7636 225.96 35.2183 228.779C35.9457 233.143 38.4007 236.235 38.6735 237.599C39.0372 239.417 41.7649 232.507 41.7649 228.961C41.7649 225.778 41.583 223.505 39.4917 223.05C39.4917 221.232 39.4918 219.504 39.6736 217.686C39.9464 217.959 40.3101 218.322 40.6738 218.595C44.129 221.323 48.0388 222.05 49.1299 222.869C50.6756 223.96 47.9479 216.958 45.5838 214.413C43.5834 212.23 41.9467 210.594 40.2192 211.412C40.4919 208.775 40.8556 206.138 41.1284 203.411C41.1284 203.138 41.2193 202.865 41.2193 202.501C41.583 203.047 42.0376 203.501 42.6741 203.956C46.1293 206.684 50.0391 207.411 51.1302 208.23C52.676 209.321 49.9482 202.319 47.5841 199.773C45.311 197.318 43.5834 195.682 41.583 197.137C41.7649 194.045 41.7649 191.045 41.7649 187.953C42.4013 188.59 43.2197 189.226 44.3108 189.681C48.4025 191.226 52.3123 190.681 53.6762 191.136C55.4947 191.681 50.7666 185.862 47.766 184.134C45.1292 182.589 43.0379 181.588 41.583 182.952C41.583 182.589 41.583 182.225 41.583 181.861C41.4012 178.588 41.2194 175.224 41.0375 171.95C41.8558 172.769 43.2197 173.405 44.8563 174.132C46.5839 174.86 49.4936 175.314 51.5849 175.405C53.4943 181.407 56.9495 186.68 61.4049 190.772C61.223 190.954 60.9502 191.136 60.7683 191.226C60.1318 191.59 61.1321 191.863 62.7688 191.954C65.4965 194.227 68.588 196.046 71.8613 197.409C71.8613 197.955 71.8613 198.501 71.8613 198.955C70.6793 198.137 68.6788 198.137 66.7694 199.41C63.4051 201.592 61.5867 204.774 60.5865 205.593C59.2226 206.593 66.042 206.32 69.0425 205.047C70.1336 204.593 71.1339 204.138 71.8613 203.592C71.8613 205.593 71.7703 207.502 71.7703 209.503C70.4064 210.23 69.4972 212.048 69.8609 214.503C70.5883 218.504 72.7705 221.414 73.0433 222.687C73.407 224.414 75.8619 217.959 75.8619 214.685C75.8619 211.867 75.7711 209.684 73.8616 209.23C73.8616 207.229 73.9525 205.138 73.9525 203.138C74.589 204.047 76.0439 204.683 77.7715 205.502C80.772 206.775 87.5914 207.048 86.2275 206.047C85.1364 205.32 83.4089 202.138 80.0446 199.864C79.7718 199.683 79.499 199.501 79.2263 199.41C81.3176 199.773 83.4088 199.955 85.5911 199.955C90.592 199.955 95.411 198.955 99.6845 197.046C101.412 196.5 102.867 195.864 103.594 195.045C103.776 194.954 103.867 194.863 104.049 194.773C104.685 196.318 105.322 197.864 106.049 199.41C106.504 200.41 106.959 201.319 107.504 202.319C105.958 201.865 104.049 202.592 102.685 204.774C100.503 208.23 100.23 211.867 99.5936 212.958C98.6844 214.413 104.867 211.321 107.049 208.957C108.141 207.775 108.959 206.775 109.414 205.775C110.505 207.684 111.596 209.593 112.687 211.412C112.05 212.685 112.232 214.503 113.596 216.322C116.051 219.595 119.324 221.141 120.143 222.141C121.234 223.505 120.506 216.595 119.052 213.776C117.597 211.048 116.506 209.139 114.324 210.048C113.323 208.411 112.323 206.775 111.414 205.138C112.414 205.32 113.687 205.229 115.233 205.047C118.415 204.683 124.507 201.41 122.78 201.319C121.507 201.228 118.324 199.319 114.324 199.137C111.778 198.955 110.05 200.228 109.504 201.683C108.231 199.228 107.05 196.682 105.958 194.136C106.959 194.682 108.595 194.591 110.596 194.318C113.778 193.954 119.87 190.681 118.142 190.59C117.051 190.499 114.778 189.226 111.778 188.681C115.506 184.589 118.324 179.679 119.87 174.314C120.052 174.314 120.325 174.314 120.507 174.314C122.416 174.314 123.962 174.314 124.962 173.769C124.234 178.861 123.598 183.952 123.416 189.135C123.234 195.227 123.598 201.319 124.416 207.411C125.325 213.776 126.871 219.959 127.417 226.324C126.326 227.233 125.689 229.052 126.326 231.234C127.326 235.144 129.781 237.871 130.145 239.053C130.599 240.69 132.6 234.143 132.327 230.87C132.054 227.87 131.69 225.687 129.508 225.596C129.235 223.141 128.872 220.686 128.508 218.231C129.326 218.777 130.599 219.141 132.145 219.504C135.327 220.323 142.147 219.504 140.601 218.686C139.419 218.14 137.146 215.231 133.509 213.594C131.054 212.503 128.872 213.049 127.871 214.503C127.508 212.503 127.144 210.503 126.78 208.502C126.598 207.411 126.507 206.411 126.326 205.32C127.144 205.865 128.417 206.229 129.872 206.593C133.054 207.411 139.874 206.593 138.328 205.775C137.146 205.229 134.873 202.319 131.236 200.683C128.963 199.683 126.962 200.046 125.962 201.228C125.598 197.318 125.507 193.409 125.598 189.499C126.417 190.499 128.235 190.681 130.417 190.772C133.691 190.954 140.237 188.862 138.51 188.408C137.237 188.044 134.509 185.68 130.599 184.771C128.417 184.225 126.689 184.862 125.78 185.953C126.053 181.861 126.598 177.769 127.144 173.678C127.871 174.587 129.326 175.133 131.054 175.769C134.054 176.86 140.965 176.769 139.51 175.86C138.419 175.133 136.509 172.132 132.963 170.041C130.781 168.768 128.69 169.041 127.599 170.041C127.599 169.95 127.599 169.859 127.599 169.768C128.053 166.404 128.417 162.767 128.053 159.312C128.963 160.039 130.599 160.13 132.509 160.312C135.782 160.494 142.329 158.493 140.692 158.039C139.419 157.675 136.691 155.311 132.781 154.311C130.145 153.674 128.235 154.674 127.508 156.129C127.144 154.856 126.598 153.583 125.871 152.31C124.416 149.946 122.143 147.946 119.324 147.218C117.87 146.855 116.324 146.855 114.778 147.309C114.051 145.673 113.323 143.945 112.596 142.309C112.323 141.672 112.05 141.126 111.778 140.49C112.05 140.854 112.323 141.126 112.687 141.49C115.687 144.218 119.234 145.127 120.143 146.036C121.416 147.128 119.506 140.581 117.506 138.035C116.233 136.398 115.142 135.034 113.869 134.762C115.233 134.125 116.688 133.58 118.142 133.216C119.688 132.761 121.234 132.489 122.871 132.216C121.779 133.671 122.234 136.126 124.598 137.853C127.781 140.308 131.418 140.945 132.509 141.672C133.963 142.672 131.327 136.307 129.144 133.943C128.235 132.943 127.326 132.034 126.508 131.579C127.871 131.307 129.326 131.034 130.69 130.579C132.872 129.943 134.964 129.124 137.055 128.124C136.509 129.943 137.873 132.125 140.874 132.761C144.784 133.58 148.33 132.67 149.603 132.943C151.33 133.216 146.329 128.488 143.329 127.306C142.329 126.942 141.419 126.578 140.601 126.397C141.147 126.124 141.783 125.76 142.329 125.396C143.42 124.76 144.511 124.123 145.602 123.396C145.602 125.033 147.42 125.942 149.875 127.033C152.876 128.306 159.695 128.488 158.332 127.488C157.24 126.76 155.422 123.578 152.058 121.396C151.33 120.941 150.603 120.668 149.966 120.486C151.239 119.577 152.603 118.668 153.876 117.759C154.967 118.668 156.513 117.395 158.513 115.576ZM109.868 134.762C109.595 134.944 109.323 135.125 109.05 135.398C108.868 135.034 108.777 134.762 108.595 134.398C109.05 134.58 109.504 134.762 109.868 134.762ZM73.3161 104.393C75.6802 98.3005 77.9533 92.2085 80.3173 86.0256C81.0447 84.0252 81.8631 82.0248 82.5905 79.9335C82.7723 79.388 83.0452 78.8424 83.227 78.2969C84.1363 80.2972 84.9545 82.3885 85.8638 84.3889C88.4097 90.2081 90.8647 96.0274 93.4106 101.847C96.5021 108.848 99.5026 115.94 102.594 122.941C103.685 125.396 104.776 127.942 105.867 130.397C105.958 130.761 106.14 131.125 106.231 131.488C106.322 131.67 106.413 131.761 106.504 131.943C107.049 133.307 107.686 134.58 108.232 135.944C107.595 136.489 107.049 137.035 106.504 137.671C103.685 141.036 102.049 145.582 101.958 149.946H95.1382C94.1381 148.582 92.7741 147.4 91.2284 147.855C89.9554 148.219 89.8645 149.946 89.8645 149.946H86.0457C87.2277 148.401 86.4094 146.764 85.1364 145.4C83.6816 143.763 81.4084 143.581 79.499 144.309C77.044 145.309 75.6801 147.491 74.8618 149.855H72.7706C72.7706 147.582 71.4975 145.491 69.9518 143.945C68.3151 142.309 66.4057 140.854 64.4962 139.672C64.1325 139.49 63.8598 139.308 63.4961 139.035C65.4965 139.035 67.4059 137.217 67.4968 133.943C67.6787 129.579 65.9511 126.033 65.9511 124.578C65.9511 124.305 65.8602 124.214 65.7692 124.214C68.2242 117.85 70.7702 111.121 73.3161 104.393ZM66.8604 144.218C68.588 145.673 70.6792 147.673 70.6792 150.128H67.315C66.3148 148.491 64.6781 147.218 62.9506 146.491C61.3139 145.764 59.4954 145.491 57.7678 145.4C58.0406 144.582 58.4043 143.854 58.6771 143.036C59.1317 141.945 59.4953 140.854 59.95 139.763C60.3137 139.944 60.5865 140.035 60.9502 140.217C62.9506 141.399 65.0419 142.672 66.8604 144.218ZM59.4953 147.673C61.4048 147.946 63.3143 148.855 64.6782 150.128H55.9493C56.313 149.219 56.5858 148.31 56.9495 147.491C57.7678 147.491 58.677 147.491 59.4953 147.673ZM54.8582 149.946C54.8582 149.946 54.8582 150.037 54.7673 150.037V150.128H49.7663H49.5845C47.4933 150.219 45.8565 151.856 45.8565 153.947V154.22C45.8565 154.402 45.8566 154.583 45.9475 154.765C44.7655 154.493 43.7653 154.583 42.9469 155.038C43.0379 154.856 43.1288 154.674 43.3107 154.402C44.8564 152.038 47.1295 150.219 49.6754 149.037C51.5849 148.219 53.6761 147.673 55.7674 147.491C55.4037 148.31 55.04 149.128 54.8582 149.946ZM83.5906 150.128H81.5903C79.8627 149.31 78.3169 149.401 77.2258 149.855C78.0442 148.037 79.5899 146.127 81.7721 146.218C83.4088 146.309 84.6817 148.673 83.5906 150.128ZM91.7739 150.128C91.8649 150.128 91.9558 150.128 92.0467 150.128H91.7739ZM124.507 155.311C124.416 155.311 124.416 155.22 124.325 155.22C124.325 155.129 124.325 155.129 124.416 155.038C124.416 155.129 124.507 155.22 124.507 155.311ZM113.232 150.128C113.505 149.946 113.778 149.764 114.051 149.583C114.142 149.764 114.233 149.946 114.324 150.128H113.232ZM60.7683 137.399C60.8592 137.58 60.9502 137.762 61.0411 137.944C60.9502 137.853 60.7683 137.853 60.6774 137.762C60.6774 137.671 60.6774 137.58 60.7683 137.399ZM40.9466 144.218C40.3101 142.581 39.3099 141.581 38.2188 141.036C41.0375 139.126 44.2199 137.489 47.5841 137.217C51.403 136.944 55.4037 137.853 58.9498 139.399C58.768 139.944 58.4952 140.49 58.3134 141.036C57.7678 142.49 57.2222 143.945 56.6767 145.4C55.4946 145.4 54.4036 145.582 53.3125 145.764C49.039 146.582 45.22 148.764 42.5832 152.038C42.3104 150.219 42.2196 147.218 40.9466 144.218ZM46.9477 168.222C44.3108 166.404 41.674 166.858 40.492 168.495C40.4011 166.495 40.401 164.494 40.6738 162.585C40.7647 161.403 41.0374 160.13 41.3102 158.948C41.9467 160.13 43.5834 160.948 45.5838 161.858C46.584 162.312 48.0387 162.676 49.4935 162.858V164.676C49.4935 166.767 49.6755 168.859 50.0392 170.859C49.2208 169.95 48.2206 169.041 46.9477 168.222ZM73.6798 200.592C73.6798 199.864 73.6798 199.137 73.7707 198.41C74.5891 198.682 75.4073 198.955 76.3166 199.137C75.1345 199.319 74.2254 199.773 73.6798 200.592ZM125.144 169.95C124.325 168.859 122.78 168.222 120.688 168.404C120.779 167.222 120.87 165.949 120.87 164.676V160.948C123.052 160.766 124.78 160.585 125.598 159.766C126.053 163.13 125.598 166.677 125.144 169.95ZM119.052 149.673C119.415 149.764 119.779 149.946 120.143 150.128H115.506C115.506 150.037 115.506 149.946 115.415 149.855C115.324 149.673 115.233 149.401 115.142 149.219C116.324 148.946 117.688 149.219 119.052 149.673ZM113.141 147.4C113.232 147.582 113.323 147.764 113.323 147.946C112.323 148.401 111.232 149.128 110.05 150.128H103.958C104.049 146.4 105.413 142.399 107.777 139.49C108.141 139.035 108.595 138.581 109.05 138.126C109.504 139.217 109.959 140.308 110.505 141.399C111.414 143.4 112.323 145.4 113.141 147.4ZM110.505 138.671C110.323 138.217 110.141 137.853 109.959 137.399C110.141 137.217 110.414 137.035 110.686 136.853C110.505 137.399 110.414 138.035 110.505 138.671Z" fill="#C1272D" fill-opacity="0.3"/>
<path d="M206.25 78.9333C201.067 66.2946 191.157 56.8383 179.154 53.4741L177.154 35.289C176.972 33.8342 175.881 32.6521 174.608 32.6521H171.153V-49.8174H168.425V32.6521H164.97C163.697 32.6521 162.606 33.7432 162.424 35.289L160.333 53.4741C148.331 56.7474 138.42 66.2037 133.055 78.7514L169.971 78.9333H182.155H206.25Z" fill="#C1272D" fill-opacity="0.3"/>
<path d="M379.282 139.853C374.1 127.215 364.189 117.758 352.186 114.394L350.186 96.2091C350.004 94.7543 348.913 93.5723 347.64 93.5723H344.185V-49.8174H341.457V93.4814H338.002C336.729 93.4814 335.638 94.5725 335.456 96.1182L333.365 114.303C321.363 117.577 311.452 127.033 306.087 139.581L343.003 139.762H355.187L379.282 139.853Z" fill="#C1272D" fill-opacity="0.3"/>
<path d="M284.993 250.601C279.81 237.962 269.9 228.506 257.897 225.142L255.897 206.956C255.715 205.502 254.624 204.32 253.351 204.32H249.896V-49.8174H247.168V204.32H243.713C242.44 204.32 241.349 205.411 241.167 206.956L239.076 225.142C227.074 228.415 217.163 237.871 211.798 250.419L248.714 250.601H260.898H284.993Z" fill="#C1272D" fill-opacity="0.3"/>
</svg>
