<svg width="218" height="608" viewBox="0 0 218 608" fill="none" xmlns="http://www.w3.org/2000/svg">
<path d="M99.8032 98.6925C99.8032 98.6925 86.6568 96.5731 78.9333 102.605C71.2098 108.637 67.7588 116.3 66.9371 124.614C65.9511 132.929 59.8709 165.209 59.8709 165.209L48.0391 149.232L34.8927 160.644C34.8927 160.644 45.9029 213.303 56.42 216.889C66.7728 220.476 78.1116 208.901 80.7409 206.782C83.3702 204.662 99.8032 98.6925 99.8032 98.6925Z" fill="#A455DC"/>
<path d="M95.369 98.3667C95.369 98.3667 78.1143 122.821 76.1423 129.016C74.1704 135.212 59.5449 146.624 59.8736 161.296C60.0379 169.774 61.024 176.947 61.6813 181.512C62.3386 185.262 62.1742 189.175 61.5169 192.924L54.7794 225.204C54.7794 225.204 59.052 232.541 69.5691 233.682C80.0862 234.823 107.201 241.181 125.113 233.682L137.93 227.487V177.599L146.804 157.221L172.111 116.626C172.111 116.626 159.293 107.822 147.133 103.91C134.315 99.997 113.938 99.6709 95.369 98.3667Z" fill="#A455DC"/>
<path d="M55.9251 218.847C55.9251 218.847 55.9251 218.521 56.0894 217.705C56.2538 216.89 56.4181 215.912 56.7468 214.445C57.2398 211.51 58.0614 207.598 59.0473 202.707C59.5403 200.261 60.362 197.49 60.6907 194.555C60.855 193.903 60.855 193.088 61.0193 192.273C61.0193 191.458 61.1836 190.805 61.1836 189.99C61.348 188.36 61.348 186.73 61.348 185.099C61.1837 181.839 60.5263 178.415 59.5403 174.828C58.5543 171.405 57.4041 167.655 57.5684 163.742C57.7328 159.83 59.0473 156.08 60.362 152.819C61.8409 149.396 63.4842 146.298 65.2919 143.527C68.9071 137.821 72.5224 132.93 75.4804 128.854C78.4383 124.778 80.9033 121.518 82.5466 119.072C83.3682 117.931 84.0256 117.116 84.5185 116.464C85.0115 115.812 85.1759 115.485 85.1759 115.648C85.1759 115.648 85.0115 115.975 84.5185 116.627C84.0256 117.279 83.5326 118.257 82.7109 119.398C81.0676 121.681 78.767 125.104 75.8091 129.343C72.8511 133.419 69.4002 138.31 65.7849 144.016C63.9773 146.787 62.334 149.885 60.855 153.308C59.3761 156.569 58.2257 160.156 58.0614 164.068C57.8971 167.818 59.0473 171.568 59.869 174.991C60.855 178.578 61.5124 182.002 61.6767 185.425C61.6767 187.056 61.6766 188.686 61.5123 190.316C61.5123 191.132 61.348 191.947 61.348 192.599C61.1837 193.414 61.0193 194.066 61.0193 194.881C60.5263 197.816 59.7047 200.424 59.2117 203.033C58.0614 207.924 57.2397 211.836 56.5824 214.771C56.2537 216.075 56.0894 217.216 55.7607 217.868C56.0894 218.521 55.9251 218.847 55.9251 218.847Z" fill="#263238"/>
<path d="M163.563 111.409C163.563 111.409 195.114 122.658 183.118 161.459C173.587 192.435 154.031 229.443 141.707 230.258C135.298 230.584 128.232 230.421 123.959 226.997C106.211 213.14 95.5299 176.132 95.5299 176.132L112.456 157.383L132.997 187.544C135.298 186.566 148.937 144.83 148.937 144.83C148.937 144.83 158.468 112.713 163.563 111.409Z" fill="#A455DC"/>
<path d="M148.609 148.252C148.609 148.252 148.609 148.579 148.445 149.068C148.28 149.557 147.952 150.372 147.623 151.187C146.966 153.143 145.98 155.915 144.665 159.339C142.036 166.349 138.421 176.131 133.984 188.032L133.655 188.684L133.326 188.032C127.246 179.228 120.18 168.794 112.785 157.871H113.442C112.785 158.523 112.128 159.338 111.306 159.991C105.883 165.534 100.625 170.914 95.6946 175.805L95.859 175.315C98.4883 183.467 101.118 191.129 104.076 197.651C107.033 204.172 110.156 209.715 113.114 214.117C116.072 218.518 118.865 221.616 120.837 223.735C121.823 224.714 122.645 225.529 123.138 226.181C123.631 226.67 123.959 226.996 123.959 226.996C123.959 226.996 123.631 226.833 123.138 226.181C122.481 225.692 121.659 224.877 120.673 223.898C118.701 221.779 115.743 218.682 112.785 214.28C109.663 209.878 106.376 204.498 103.418 197.814C100.296 191.292 97.6666 183.63 95.0374 175.478V175.315L95.2016 175.152C100.132 170.262 105.39 164.882 110.813 159.339C111.47 158.686 112.292 157.871 112.949 157.219L113.278 156.893L113.607 157.382C121.002 168.305 128.068 178.739 134.148 187.543H133.491C138.092 175.805 141.872 166.023 144.501 159.012C145.815 155.589 146.966 152.98 147.623 151.024C147.952 150.209 148.28 149.394 148.445 148.905C148.445 148.415 148.445 148.252 148.609 148.252Z" fill="#263238"/>
<path d="M72.0345 557.134L74.1707 588.925C74.1707 588.925 42.455 601.641 42.1263 607.51L104.243 605.717L103.093 556.156L72.0345 557.134Z" fill="#A455DC"/>
<path d="M93.2311 585.663C94.3814 585.989 95.3675 587.294 95.0388 588.435C94.8745 589.576 93.3955 590.554 92.2452 590.228C91.0949 589.902 89.9445 588.435 90.2732 587.294C90.6018 586.152 92.2452 585.174 93.3955 585.663" fill="#E0E0E0"/>
<path d="M104.407 607.836L104.243 602.13L44.4267 604.249C44.4267 604.249 41.6331 605.553 42.1261 607.51L104.407 607.836Z" fill="#263238"/>
<path d="M73.0203 588.598C73.0203 588.924 74.4993 588.924 76.1426 589.902C77.6215 590.717 78.4431 592.021 78.7718 592.021C79.1004 592.021 78.6075 590.228 76.6355 589.087C74.8279 587.783 73.0203 588.272 73.0203 588.598Z" fill="#263238"/>
<path d="M66.6105 591.369C66.6105 591.695 67.9253 592.184 68.9115 593.325C70.0621 594.467 70.3908 595.934 70.5552 595.934C70.8839 595.934 71.0484 594.141 69.5691 592.673C68.4185 591.206 66.6105 591.043 66.6105 591.369Z" fill="#263238"/>
<path d="M63.1597 599.195C63.4885 599.195 63.8172 597.728 62.9954 596.098C62.1736 594.468 60.6943 593.816 60.5299 594.142C60.3655 594.468 61.3517 595.283 62.0091 596.587C62.6666 597.891 62.831 599.195 63.1597 599.195Z" fill="#263238"/>
<path d="M73.3484 581.263C73.5127 581.589 74.8274 581.1 76.635 581.1C78.2783 581.1 79.7573 581.589 79.9216 581.426C80.0859 581.263 78.7712 580.121 76.7993 580.121C74.663 579.958 73.1841 581.1 73.3484 581.263Z" fill="#263238"/>
<path d="M129.22 557.786L131.028 589.577C131.028 589.577 99.1476 602.131 98.819 608L160.936 606.695L160.114 557.134L129.22 557.786Z" fill="#A455DC"/>
<path d="M150.252 586.316C151.402 586.642 152.388 587.946 152.06 589.087C151.731 590.228 150.416 591.207 149.266 590.88C148.116 590.554 146.966 589.087 147.294 587.946C147.623 586.805 149.266 585.827 150.417 586.316" fill="#E0E0E0"/>
<path d="M161.1 607.837V603.109L101.283 604.739C101.283 604.739 98.4898 606.043 98.8185 608H161.1V607.837Z" fill="#263238"/>
<path d="M130.041 589.088C130.041 589.414 131.52 589.414 133.163 590.392C134.642 591.37 135.464 592.511 135.793 592.511C136.121 592.511 135.628 590.718 133.656 589.577C131.849 588.436 130.041 588.925 130.041 589.088Z" fill="#263238"/>
<path d="M123.633 592.021C123.633 592.348 124.948 592.837 125.934 593.978C127.085 595.119 127.249 596.586 127.578 596.586C127.906 596.586 128.071 594.793 126.756 593.326C125.441 591.695 123.633 591.695 123.633 592.021Z" fill="#263238"/>
<path d="M120.016 599.849C120.345 599.849 120.673 598.382 119.852 596.751C119.03 595.121 117.551 594.469 117.551 594.795C117.386 595.121 118.372 595.936 119.03 597.24C119.687 598.545 119.687 599.849 120.016 599.849Z" fill="#263238"/>
<path d="M130.369 581.915C130.533 582.241 131.848 581.751 133.656 581.751C135.299 581.751 136.778 582.404 136.942 582.078C137.107 581.915 135.792 580.773 133.82 580.773C131.684 580.609 130.205 581.588 130.369 581.915Z" fill="#263238"/>
<path d="M138.751 226.509C138.751 226.509 154.527 242.975 162.907 263.353C171.288 283.569 167.509 381.387 167.509 381.387L165.701 432.579C165.701 432.579 168.166 476.597 166.358 507.899C164.386 539.201 162.25 574.089 162.25 574.089L127.741 575.719L91.0951 309.654L100.298 432.416C106.049 463.718 105.392 518.985 104.242 575.719H67.7602C67.7602 575.719 55.1068 490.781 52.3132 470.565C49.0266 447.741 39.4955 384.974 39.4955 384.974C39.4955 384.974 32.1006 324.979 34.7299 292.536C37.3592 260.093 56.7501 214.933 57.4074 213.14L135.464 227.161" fill="#263238"/>
<path d="M142.695 217.869L151.897 241.997C151.897 241.997 219.93 336.229 217.958 344.054C215.986 351.88 178.847 382.366 168.002 377.475C157.156 372.584 128.891 352.532 119.524 332.316C110.157 312.263 83.3715 255.855 83.3715 255.855L74.9907 240.204L84.3576 233.846L142.695 217.869Z" fill="#455A64"/>
<path d="M56.7502 214.608C64.9667 219.01 64.145 232.704 72.3615 237.106C58.5578 256.181 53.9565 280.309 51.9846 303.785C50.1769 327.262 50.6699 350.901 45.9043 373.888C35.8802 373.236 38.8382 373.399 28.8141 372.747C25.8561 327.588 30.9503 281.939 43.4394 238.41C45.9043 229.444 50.5056 221.292 56.7502 214.608Z" fill="#455A64"/>
<path d="M123.306 254.224C123.306 254.387 124.95 254.061 127.579 253.245C130.208 252.43 133.823 251.289 137.603 249.659C141.383 248.029 144.834 246.235 147.134 244.931C149.435 243.627 150.914 242.649 150.749 242.486C150.749 242.322 149.271 243.138 146.806 244.442C144.341 245.746 141.054 247.376 137.274 249.007C133.495 250.637 130.044 251.941 127.415 252.756C124.785 253.572 123.306 254.061 123.306 254.224Z" fill="#263238"/>
<g opacity="0.2">
<g opacity="0.2">
<g opacity="0.2">
<path opacity="0.2" d="M167.344 325.957L168.988 326.12C157.813 337.695 138.915 341.119 124.29 334.272C119.36 331.989 114.266 327.588 114.594 322.208C131.52 328.077 149.925 329.381 167.344 325.957Z" fill="black"/>
</g>
</g>
</g>
<path d="M82.386 240.205C88.7949 239.064 100.955 242.325 105.392 247.053C109.829 251.617 112.623 257.65 114.759 263.682C119.525 276.724 122.976 291.234 133.328 300.527C143.024 309.33 156.992 311.776 169.974 313.732C170.303 318.46 170.303 324.166 166.359 326.937C165.209 327.753 163.73 328.242 162.415 328.568C158.471 329.546 154.527 330.361 150.583 330.687C132.014 332.154 112.294 324.818 101.448 309.819C87.6446 290.908 86.6586 268.083 78.7708 246.074" fill="#455A64"/>
<path d="M78.771 246.074C78.771 246.074 78.771 246.237 78.9354 246.726C79.0997 247.215 79.264 247.867 79.5926 248.682C80.0856 250.476 80.9073 253.084 81.8933 256.508C82.8793 259.931 83.8652 264.17 85.0155 268.898C86.1658 273.789 87.4805 279.332 89.4524 285.364C91.2601 291.396 93.7251 297.918 97.5047 304.439C99.3123 307.699 101.613 310.797 104.242 313.894C106.871 316.829 109.994 319.601 113.609 321.883C120.675 326.448 129.22 329.708 138.259 330.85C142.86 331.502 147.461 331.502 152.227 331.013C154.527 330.687 156.992 330.361 159.293 329.871C160.443 329.545 161.593 329.382 162.744 329.056C163.894 328.73 165.044 328.404 166.195 327.589C167.345 326.937 168.167 325.796 168.824 324.654C169.481 323.513 169.81 322.209 169.974 321.068C170.467 318.622 170.303 316.177 170.139 313.894V313.568H169.81C161.1 312.264 152.555 310.797 144.996 307.699C141.216 306.069 137.601 304.113 134.643 301.667C131.685 299.222 129.056 296.287 127.084 293.19C122.976 286.995 120.675 280.147 118.375 273.952C116.238 267.757 114.266 261.888 111.801 256.671C110.651 254.062 109.172 251.78 107.693 249.824C106.872 248.845 106.05 247.867 105.228 247.052C104.407 246.237 103.421 245.422 102.435 244.933C98.4907 242.65 94.7111 241.672 91.7531 240.857C88.6308 240.205 86.1658 240.042 84.5225 240.205C82.8792 240.205 82.0576 240.531 82.0576 240.531C82.0576 240.531 82.8792 240.368 84.5225 240.368C86.1658 240.368 88.6308 240.531 91.5887 241.183C94.5467 241.835 98.3263 242.976 102.106 245.259C103.092 245.748 103.913 246.563 104.735 247.378C105.557 248.193 106.378 249.171 107.036 250.15C108.515 252.106 109.829 254.388 111.144 256.997C113.609 262.051 115.417 267.92 117.553 274.115C119.689 280.31 122.154 287.158 126.262 293.516C128.399 296.613 130.864 299.711 133.986 302.156C137.108 304.765 140.723 306.721 144.503 308.351C152.227 311.612 160.772 313.079 169.481 314.384L169.153 314.058C169.317 316.34 169.317 318.785 168.988 321.068C168.66 323.35 167.509 325.633 165.537 326.937C163.565 328.078 161.1 328.567 158.8 329.056C156.499 329.545 154.199 329.871 151.898 330.198C147.297 330.687 142.531 330.687 138.094 330.034C129.056 328.893 120.675 325.796 113.773 321.231C110.322 318.948 107.2 316.34 104.571 313.405C101.942 310.471 99.8053 307.373 97.8334 304.113C94.0538 297.754 91.5888 291.233 89.6168 285.364C87.6449 279.332 86.3302 273.789 85.0155 269.061C83.7009 264.17 82.7149 260.095 81.7289 256.671C80.7429 253.247 79.9213 250.639 79.264 248.845C78.9353 248.03 78.771 247.378 78.6067 246.889C78.9354 246.237 78.771 246.074 78.771 246.074Z" fill="#263238"/>
<path d="M155.512 329.709C155.841 329.709 153.704 325.633 154.362 320.416C154.855 315.199 157.649 311.612 157.485 311.449C157.485 311.449 156.663 312.101 155.677 313.732C154.69 315.199 153.869 317.644 153.54 320.253C153.211 323.024 153.704 325.47 154.197 327.1C154.69 328.893 155.348 329.872 155.512 329.709Z" fill="#263238"/>
<path d="M155.02 317.971C155.02 318.134 158.307 318.623 162.251 318.949C166.359 319.276 169.481 319.276 169.645 318.949C169.645 318.786 166.359 318.297 162.415 317.971C158.307 317.807 155.02 317.807 155.02 317.971Z" fill="#263238"/>
<path d="M153.542 323.351C153.542 323.514 156.993 323.84 161.101 324.003C165.209 324.166 168.66 324.003 168.66 323.677C168.66 323.514 165.209 323.188 161.101 323.024C156.993 322.861 153.542 323.024 153.542 323.351Z" fill="#263238"/>
<path d="M66.7749 244.279C55.4361 254.55 51.1636 270.69 51.4922 285.852C51.9852 301.014 56.4221 315.85 59.873 330.685C63.324 345.521 65.6246 361.172 62.0093 375.845C66.9392 376.497 71.7048 377.149 76.6347 377.964C88.6308 365.411 94.7111 347.64 92.9035 330.522C91.4245 316.339 84.8513 303.296 80.25 289.765C75.6488 276.233 72.8551 261.071 78.771 248.029" fill="#455A64"/>
<path d="M78.607 248.029C78.607 248.029 78.4426 248.192 78.2783 248.681C78.1139 249.17 77.7853 249.822 77.4566 250.637C76.7993 252.267 75.9776 254.876 75.4846 258.3C74.9917 261.723 74.8274 265.962 75.3204 270.853C75.8133 275.744 76.9637 281.287 78.9356 287.156C80.7433 293.025 83.3725 299.383 85.8374 306.23C88.3024 313.078 90.9317 320.414 92.0821 328.566C93.2324 336.717 92.575 345.358 89.9457 353.998C87.3164 362.476 82.7152 370.79 76.142 377.801L76.4707 377.638C74.1701 377.312 71.7051 376.985 69.2401 376.659C66.7752 376.333 64.1459 376.007 61.8453 375.681L62.1739 376.17C64.4746 366.715 64.3103 357.259 63.3243 348.292C62.174 339.326 60.2019 330.848 58.23 323.023C56.258 315.034 54.4504 307.535 53.1358 300.361C51.9855 293.188 51.4924 286.504 51.6568 280.309C52.1498 267.918 56.0937 258.463 59.709 252.756C61.5166 249.822 63.3242 247.866 64.4745 246.561C65.1318 245.909 65.6249 245.42 65.9535 245.094C66.2822 244.768 66.4465 244.605 66.4465 244.605C66.4465 244.605 66.2822 244.768 65.9535 245.094C65.6249 245.42 65.1318 245.909 64.4745 246.561C63.1599 247.866 61.3522 249.822 59.5446 252.756C55.765 258.463 51.8211 268.081 51.1638 280.472C50.8351 286.667 51.3281 293.514 52.4784 300.687C53.6287 307.861 55.4364 315.523 57.4083 323.512C59.3803 331.5 61.3523 339.815 62.5026 348.781C63.6529 357.585 63.6529 367.041 61.3523 376.333L61.1879 376.822H61.681C63.9816 377.149 66.6109 377.475 69.0758 377.801C71.5408 378.127 74.0057 378.453 76.3063 378.779H76.4707L76.635 378.616C83.3725 371.606 87.9738 363.128 90.603 354.487C93.2323 345.847 93.8896 336.88 92.7393 328.729C91.589 320.577 88.9598 313.078 86.3305 306.23C83.7012 299.383 81.2362 293.188 79.2642 287.156C77.4566 281.287 76.142 275.744 75.649 271.016C75.156 266.125 75.156 261.886 75.649 258.463C76.142 255.039 76.9636 252.43 77.4566 250.8C77.7853 249.985 77.9497 249.333 78.114 248.844C78.607 248.192 78.607 248.029 78.607 248.029Z" fill="#263238"/>
<path d="M64.311 364.269C64.311 364.595 68.9123 363.617 74.4996 364.432C80.0868 365.084 84.3594 367.203 84.3594 366.877C84.3594 366.714 83.3734 366.225 81.7301 365.41C79.9224 364.758 77.4575 363.943 74.6639 363.454C71.8702 363.127 69.2409 363.127 67.269 363.454C65.4613 363.78 64.311 364.106 64.311 364.269Z" fill="#263238"/>
<path d="M72.8545 377.638C73.0188 377.801 74.6621 375.192 76.3053 371.932C77.9486 368.671 79.2633 365.9 78.9347 365.737C78.7703 365.574 77.127 368.182 75.4837 371.443C73.8404 374.703 72.6902 377.475 72.8545 377.638Z" fill="#263238"/>
<path d="M65.2943 376.495C65.4586 376.658 66.9376 373.887 68.4166 370.3C69.8956 366.876 71.046 363.942 70.7173 363.779C70.553 363.616 69.0739 366.387 67.5949 369.974C66.116 373.561 64.9656 376.495 65.2943 376.495Z" fill="#263238"/>
<path d="M86.1692 239.552C86.3336 239.552 86.4979 239.226 86.6623 238.574C86.8267 237.922 86.6624 236.944 86.3336 235.966C86.0049 234.987 85.1831 234.335 84.6899 234.009C84.1968 233.683 83.7037 233.52 83.7037 233.683C83.5393 233.846 84.8543 234.661 85.5118 236.292C86.3336 237.922 86.0048 239.389 86.1692 239.552Z" fill="#263238"/>
<path d="M67.2673 235.965C69.2392 232.867 73.8405 231.889 77.6201 231.4C82.057 231.074 86.494 234.824 86.8226 239.226C87.3156 243.627 84.029 248.029 79.5921 249.17C75.3195 250.312 70.3896 248.355 67.9246 244.606C66.117 242.16 65.624 238.573 67.2673 235.965Z" fill="#455A64"/>
<path d="M75.4855 233.193C75.4855 233.193 74.4995 233.845 73.5135 235.475C72.5275 237.106 71.8702 239.714 72.6919 242.649C73.5135 245.42 75.4856 247.54 76.9646 248.355C78.6079 249.333 79.7582 249.496 79.7582 249.333C79.7582 249.17 78.7722 248.844 77.2932 247.866C75.8143 246.887 74.1709 244.931 73.3492 242.323C72.6919 239.714 73.185 237.269 74.0066 235.638C74.6639 234.008 75.4855 233.193 75.4855 233.193Z" fill="#263238"/>
<path d="M68.0913 234.823C68.0913 234.823 67.4338 235.312 66.9407 236.291C66.4476 237.432 65.9545 239.062 66.1189 240.855C66.2833 242.649 67.1051 244.279 67.7626 245.094C68.5844 246.072 69.2419 246.398 69.2419 246.398C69.4062 246.235 68.9132 245.746 68.2557 244.768C67.5983 243.79 67.1051 242.323 66.9407 240.692C66.7764 239.062 67.1052 237.432 67.4339 236.454C67.927 235.475 68.2557 234.986 68.0913 234.823Z" fill="#263238"/>
<g opacity="0.2">
<g opacity="0.2">
<g opacity="0.2">
<path opacity="0.2" d="M66.9377 244.279C69.8957 247.54 73.6754 249.007 78.1123 249.333C77.2906 251.29 74.497 253.083 72.3607 253.246C70.2244 253.409 68.088 252.268 66.9377 250.474C65.7874 248.518 65.7874 246.073 66.9377 244.279Z" fill="black"/>
</g>
</g>
</g>
<g opacity="0.2">
<g opacity="0.2">
<g opacity="0.2">
<path opacity="0.2" d="M119.033 258.464C120.512 256.67 122.813 255.692 125.114 254.877C133.659 251.779 142.697 246.726 151.242 243.628C143.519 250.475 135.138 258.464 126.264 263.681C124.128 264.985 121.334 266.126 119.362 264.659C117.39 263.355 117.554 260.257 119.033 258.464Z" fill="black"/>
</g>
</g>
</g>
<g opacity="0.2">
<g opacity="0.2">
<g opacity="0.2">
<path opacity="0.2" d="M48.8626 273.625C50.1773 263.517 54.9428 253.572 63.1593 247.54C58.7224 255.529 54.2856 263.68 52.3136 272.484C50.1773 282.265 51.8206 288.461 52.6423 298.405L51.6562 303.296C49.027 293.352 47.548 283.57 48.8626 273.625Z" fill="black"/>
</g>
</g>
</g>
<path d="M123.633 265.473C123.633 265.473 124.127 265.31 124.948 264.821C125.77 264.332 126.92 263.679 128.399 262.701C131.193 260.908 134.972 258.136 138.916 254.876C142.86 251.615 145.982 248.192 148.283 245.746C149.433 244.442 150.255 243.464 150.912 242.812C151.57 241.996 151.734 241.67 151.734 241.67C151.57 241.507 150.255 243.138 147.954 245.42C145.654 247.866 142.367 250.963 138.423 254.224C134.644 257.484 130.864 260.256 128.235 262.212C125.277 264.169 123.469 265.31 123.633 265.473Z" fill="#263238"/>
<path d="M81.7278 21.4169C79.2628 17.015 80.7419 11.1459 84.3571 7.72231C87.9724 4.29868 93.231 2.99444 98.3252 3.15747C103.419 3.3205 108.185 4.78776 113.115 6.25504C116.73 1.52716 122.975 -0.755259 128.891 0.222923C134.642 1.36413 139.736 5.76595 141.38 11.472C144.831 10.1678 148.939 10.8199 151.733 13.2653C154.526 15.7108 155.841 19.6235 155.019 23.2102L133.656 33.8071L114.923 79.4556C108.514 86.4659 96.8462 87.7701 89.1226 82.3902C81.3991 77.0102 78.4412 65.7611 82.8781 57.4465C81.3991 56.4683 80.0846 55.1641 78.9342 53.6968C74.826 51.9035 71.2107 48.4799 69.7317 44.2411C66.2808 35.1114 72.361 23.8623 81.7278 21.4169Z" fill="#263238"/>
<path d="M108.347 103.911C108.84 96.7374 109.005 96.2483 109.005 96.4113C109.005 96.4113 95.2009 92.9877 93.7219 74.7283C93.0646 65.5986 94.5435 50.9259 96.3511 38.8616C97.8301 28.1016 106.211 15.2223 117.057 17.1786L150.416 28.4277C153.702 29.0798 154.688 31.8513 154.36 35.275L154.524 36.9053L148.937 88.7489L147.129 104.237C146.143 114.019 137.105 124.126 127.245 123.963C116.071 123.474 107.526 114.834 108.347 103.911Z" fill="#EAC8BB"/>
<path d="M113.112 66.9024C113.112 66.7393 111.633 66.4133 109.004 65.9242C108.346 65.7612 107.689 65.5981 107.689 65.2721C107.525 64.783 107.853 64.1308 108.346 63.4787C109.004 62.0115 109.825 60.3811 110.647 58.7508C113.769 52.0666 116.234 46.5236 115.906 46.3605C115.577 46.1975 112.783 51.5775 109.661 58.2618C108.839 59.8921 108.182 61.5224 107.525 62.9896C107.196 63.6418 106.703 64.4569 107.032 65.4351C107.196 65.9242 107.689 66.2502 108.018 66.4133C108.346 66.5763 108.839 66.5763 109.168 66.5763C111.469 66.9024 112.948 67.0654 113.112 66.9024Z" fill="#263238"/>
<path d="M109.004 96.411C109.004 96.411 121.164 98.2044 133.982 91.8462C133.982 91.8462 126.751 104.236 108.675 100.976L109.004 96.411Z" fill="#65463C"/>
<path d="M123.958 43.0998C124.287 43.7519 126.752 43.4259 129.71 43.7519C132.668 44.078 135.133 44.8931 135.461 44.241C135.626 43.9149 135.133 43.2628 134.311 42.6107C133.325 41.9586 131.846 41.3065 130.038 41.1435C128.231 40.9804 126.587 41.3065 125.602 41.6326C124.451 42.2847 123.794 42.7738 123.958 43.0998Z" fill="#263238"/>
<path d="M99.8015 41.1425C100.294 41.7946 102.431 41.3056 104.896 41.4686C107.361 41.6316 109.497 42.2837 109.99 41.6316C110.154 41.3056 109.99 40.8165 109.004 40.1644C108.182 39.5122 106.703 39.0231 104.896 38.8601C103.252 38.6971 101.609 39.1862 100.787 39.6753C99.9658 40.3274 99.6371 40.8165 99.8015 41.1425Z" fill="#263238"/>
<path d="M141.05 17.5042C140.721 21.0908 138.749 24.6775 135.791 26.7969C132.833 28.9163 128.889 29.5684 125.274 28.7533C122.481 28.1011 119.523 26.4708 117.058 27.7751C114.428 29.0793 113.935 32.9921 111.635 34.6224C108.184 37.2308 103.254 34.1333 99.1457 35.1114C95.8591 35.7636 93.7228 38.6981 91.4221 40.9805C89.1215 43.263 85.8349 45.5454 82.7126 44.4042C83.2056 41.6327 83.5343 38.6981 84.6846 36.0896C85.6706 33.4811 87.4782 31.0357 89.9431 29.5684C91.2578 28.7533 92.9011 28.4272 94.2158 27.6121C97.0094 25.6557 97.831 22.069 99.8029 19.2975C102.104 15.7108 106.376 13.2654 110.813 13.2654C114.428 13.1023 118.044 14.5696 121.659 13.9175C124.288 13.4284 126.753 11.9611 129.382 11.6351C134.641 10.983 139.078 15.0587 142.529 18.9714" fill="#263238"/>
<path d="M124.286 23.5364C126.586 23.0473 131.352 21.9061 132.831 20.1128C135.789 16.037 140.719 13.4285 145.484 14.0806C150.25 14.7328 154.523 18.8085 155.18 23.8625C160.931 24.3516 166.354 28.4273 168.819 34.1334C171.12 39.8394 170.463 46.8497 167.012 51.9037C166.026 53.2079 164.875 56.1425 164.875 56.1425C164.875 56.1425 167.34 58.4249 168.326 60.2182C173.256 68.0437 163.396 72.4455 163.396 72.4455C164.054 77.9885 158.959 78.6406 155.673 79.1297C152.551 79.4558 151.729 88.5855 149.1 88.5855L148.114 61.1964C147.785 61.3594 147.456 61.5224 146.963 61.5224C140.719 62.5006 140.883 50.4364 142.526 47.1758C140.39 45.0564 138.418 42.937 136.775 40.3285C135.296 37.72 134.31 30.8728 134.967 27.7752C132.338 27.6122 123.135 23.6994 124.286 23.5364Z" fill="#263238"/>
<path d="M147.128 62.501C147.621 58.5883 152.058 56.4689 155.344 58.5883C157.152 59.7295 158.302 62.012 157.809 66.0877C156.495 77.0107 145.813 73.4241 145.813 73.098C145.813 72.935 146.471 67.0659 147.128 62.501Z" fill="#EAC8BB"/>
<path d="M149.595 69.5124C149.595 69.5124 149.759 69.6754 150.088 69.8384C150.417 70.0015 150.91 70.1645 151.567 70.0015C152.717 69.6754 154.032 68.0451 154.196 66.0887C154.361 65.1106 154.196 64.1324 154.032 63.3172C153.868 62.5021 153.375 61.85 152.717 61.6869C152.224 61.5239 151.731 61.85 151.567 62.013C151.403 62.3391 151.403 62.5021 151.403 62.5021C151.403 62.5021 151.238 62.3391 151.403 61.85C151.403 61.6869 151.567 61.3609 151.896 61.1978C152.224 61.0348 152.553 60.8718 153.046 61.0348C153.868 61.1978 154.525 62.013 154.854 62.9912C155.182 63.9693 155.347 64.9475 155.182 66.0887C154.854 68.2081 153.539 70.1645 151.896 70.4905C151.074 70.6536 150.417 70.3275 150.252 70.0015C149.595 69.6754 149.595 69.5124 149.595 69.5124Z" fill="#65463C"/>
<path d="M88.1365 55.1643C88.1365 55.0013 87.1506 54.5122 85.5073 53.0449C84.0283 51.5777 82.0563 48.9692 81.0703 45.2195C80.5773 43.4262 80.413 41.3068 80.906 39.0243C81.2346 36.9049 82.2207 34.6225 83.864 32.6662C87.1506 28.9165 92.9022 26.634 98.6537 27.7753C99.1467 27.9383 99.6397 28.1013 100.133 28.2643C100.626 28.4274 101.119 28.5904 101.447 28.7534L102.105 29.0795L101.94 28.4274C101.776 27.1231 102.105 25.8189 102.762 24.8407C103.419 23.8625 104.405 22.8843 105.556 22.2322C107.692 20.928 110.157 20.6019 112.622 20.7649C117.387 21.254 121.496 22.7213 125.111 22.7213C128.726 22.7213 131.684 21.4171 133.163 19.9498C133.985 19.2977 134.313 18.4825 134.642 18.1565C134.806 17.6674 134.971 17.3413 134.971 17.3413C134.806 17.3413 134.642 18.4825 132.999 19.6237C131.52 20.928 128.726 22.0692 125.275 21.9062C123.468 21.9062 121.66 21.5801 119.524 21.091C117.387 20.6019 115.251 20.1128 112.786 19.7868C111.636 19.6237 110.321 19.6237 109.007 19.9498C107.692 20.1128 106.377 20.6019 105.227 21.254C104.077 21.9062 102.926 22.8843 102.105 24.0255C101.283 25.1668 100.954 26.7971 101.119 28.2643L101.776 27.7753C101.283 27.6122 100.79 27.2862 100.297 27.1231C99.8041 26.9601 99.3111 26.7971 98.6537 26.634C92.5735 25.3298 86.4933 27.7753 83.0423 31.851C81.2347 33.8074 80.2487 36.2528 79.92 38.5352C79.5913 40.8177 79.7557 43.1001 80.2487 44.8934C81.2347 48.8062 83.3709 51.4146 85.0142 52.7189C85.8359 53.371 86.4933 53.8601 87.1506 54.1862C87.8079 55.0013 88.1365 55.1643 88.1365 55.1643Z" fill="#455A64"/>
<path d="M85.5073 17.83C85.5073 17.9931 86.4933 16.8519 88.7939 16.1997C89.9442 15.8737 91.2589 15.7106 92.9022 16.0367C94.5455 16.3628 96.1888 17.0149 97.5034 18.4821L97.9964 18.9712L98.1607 18.3191C98.9823 14.5694 102.433 10.8197 107.199 9.67852C110.814 8.86337 114.265 10.0046 117.223 11.1458C120.181 12.45 122.975 13.5912 125.44 14.0803C127.904 14.5694 130.041 14.4064 131.355 14.0803C132.013 13.9173 132.506 13.5912 132.834 13.4282C133.163 13.2652 133.327 13.1022 133.327 13.1022C133.327 13.1022 132.67 13.4282 131.355 13.7543C130.041 14.0803 128.069 14.0803 125.604 13.5912C123.139 13.1021 120.674 11.7979 117.552 10.4937C116.073 9.84155 114.429 9.18943 112.622 8.86337C110.814 8.53731 108.842 8.37428 107.035 8.86337C101.94 10.1676 98.325 14.2434 97.339 18.3191L97.9964 18.1561C96.5174 16.5258 94.7098 15.8737 92.9022 15.5476C91.2589 15.2215 89.7798 15.5476 88.6295 15.8737C87.4792 16.1997 86.6576 16.8519 86.1646 17.1779C85.6716 17.504 85.5073 17.83 85.5073 17.83Z" fill="#455A64"/>
<path d="M114.594 72.1197C115.252 71.3046 116.402 70.9785 117.388 70.9785C118.374 70.9785 119.689 71.6306 120.51 72.6088C120.51 72.6088 120.51 72.6088 120.675 72.7718C121.003 73.0979 121.168 73.587 121.168 73.9131C121.168 74.8912 120.51 75.8694 119.689 76.3585C118.374 77.1737 116.566 77.3367 115.252 76.3585C113.937 75.3803 113.608 73.424 114.594 72.1197Z" fill="#65463C"/>
<path d="M121.166 70.1636C121.002 70.1636 120.838 70.6527 120.18 71.4678C119.687 72.283 118.701 73.0981 117.387 73.5872C116.072 74.0763 114.757 74.0763 113.936 73.7502C112.95 73.5872 112.457 73.2612 112.457 73.4242C112.457 73.5872 112.785 74.0763 113.771 74.4024C114.757 74.7284 116.236 75.0545 117.88 74.4024C119.359 73.7502 120.509 72.609 120.838 71.6308C121.331 70.8157 121.331 70.1636 121.166 70.1636Z" fill="#263238"/>
<path d="M163.4 40.0029C163.4 40.0029 163.565 39.8399 163.893 39.6768C164.222 39.3508 164.551 39.0247 165.208 38.5356C166.194 37.3944 167.509 35.6011 168.166 32.9926C168.495 31.6884 168.495 30.2211 168.166 28.5908C167.837 26.9605 167.016 25.4932 165.701 24.189C164.386 22.8847 162.414 22.0696 160.442 22.0696C158.47 22.0696 156.334 22.8847 155.02 24.678L155.513 25.0041C155.513 25.0041 155.513 25.0041 155.513 24.8411C156.827 20.9283 156.827 16.6896 155.184 13.429C153.541 10.1683 150.583 8.04895 147.789 7.88592C144.995 7.55986 142.859 8.70108 141.709 9.67926C141.051 10.1684 140.723 10.6574 140.559 10.9835C140.394 11.3096 140.23 11.4726 140.23 11.4726C140.23 11.4726 140.723 10.6574 141.873 9.84229C143.023 9.02714 145.16 8.04895 147.789 8.37501C150.418 8.70107 153.212 10.6574 154.691 13.755C156.17 16.8526 156.17 20.9284 154.855 24.678C154.855 24.678 154.855 24.678 154.855 24.8411L154.362 26.4714L155.348 25.0041C156.499 23.3738 158.471 22.7217 160.278 22.7217C162.086 22.7217 163.893 23.3738 165.044 24.678C166.358 25.8193 167.016 27.4496 167.344 28.9168C167.673 30.3841 167.673 31.8514 167.344 33.1556C166.851 35.7641 165.537 37.5574 164.551 38.6987C164.058 39.5138 163.4 40.0029 163.4 40.0029Z" fill="#263238"/>
<path d="M5.97105 140.104L16.6525 180.046C17.3098 182.328 19.2818 183.796 21.5824 183.796L76.7973 182.654C79.9196 182.654 82.2202 179.72 81.5629 176.622L73.5107 138.31C73.0177 136.028 71.0457 134.397 68.5808 134.397H10.408C7.28571 134.56 5.1494 137.332 5.97105 140.104Z" fill="#263238"/>
<path d="M1.20635 149.07C0.0560325 147.766 0.0560325 145.483 1.20635 144.179C2.35666 142.712 4.16429 142.06 5.97193 141.896C7.77956 141.896 9.58722 142.386 11.2305 143.038C13.3668 143.853 15.3388 144.831 17.1464 145.972C18.461 146.787 19.94 147.929 20.1043 149.396C20.433 150.863 18.6254 152.656 17.3108 151.841C19.1184 152.656 20.926 154.45 21.0904 156.406C21.419 158.363 20.2687 159.341 18.461 159.993C19.94 160.482 20.7616 162.275 20.1043 163.743C19.447 165.21 17.3107 165.536 15.8318 165.047C14.3528 164.395 13.2025 163.253 12.0522 161.949C13.2025 163.743 13.5311 166.025 13.0381 168.144C8.76553 166.677 5.64325 162.764 4.98593 158.363C2.84963 156.895 2.19232 153.798 3.50697 151.515C1.86366 151.026 -0.108318 148.418 0.0560124 146.624" fill="#EAC8BB"/>
<path d="M18.6237 160.156C18.6237 160.156 17.9663 159.667 16.816 158.852C15.6657 158.037 14.0225 156.896 12.0505 156.407C11.0645 156.244 10.0785 156.244 9.09254 156.407C8.27089 156.57 7.44926 157.059 6.95627 157.385C5.97029 158.2 5.6416 159.178 5.6416 159.178C5.6416 159.178 5.64161 159.015 5.80594 158.526C5.97027 158.2 6.29894 157.711 6.79193 157.222C7.28492 156.733 8.10656 156.244 9.09254 156.08C10.0785 155.754 11.0645 155.754 12.2148 156.08C14.3511 156.57 15.9944 157.874 17.1447 158.689C17.9664 159.504 18.6237 160.156 18.6237 160.156Z" fill="#65463C"/>
<path d="M18.1325 152.168C18.1325 152.168 17.3108 151.841 15.9961 151.189C15.3388 150.863 14.5172 150.537 13.6956 150.211C12.8739 149.885 11.7237 149.559 10.7377 149.396C9.58737 149.233 8.60135 149.233 7.61537 149.396C6.6294 149.559 5.97209 149.885 5.31477 150.374C4.16446 151.189 3.83582 152.168 3.83582 152.168C3.83582 152.168 3.83578 152.005 4.0001 151.515C4.16443 151.189 4.49311 150.537 5.15043 150.048C5.80775 149.559 6.6294 149.07 7.61537 148.907C8.60135 148.744 9.75166 148.744 10.902 148.907C12.0523 149.07 13.0383 149.396 14.0243 149.722C15.0102 150.048 15.6675 150.537 16.3248 150.863C17.3108 151.678 18.1325 152.168 18.1325 152.168Z" fill="#65463C"/>
<path d="M42.1258 153.798H42.4545C43.7692 153.635 45.2482 154.776 45.4125 156.08C45.5768 157.384 44.5908 158.852 43.1118 159.015C41.7971 159.178 40.3181 158.2 39.9895 156.895C39.8251 155.591 40.8111 154.124 42.1258 153.798Z" fill="white"/>
<path d="M95.8602 140.102C95.8602 140.102 89.9443 128.853 88.301 129.505C86.4933 130.157 84.357 130.157 85.343 134.559C86.4933 138.798 89.2869 141.732 89.1226 145.156C88.9583 148.58 86.3291 156.079 89.287 159.503C92.2449 163.089 97.1748 173.523 97.1748 173.523L110.157 160.481L107.199 156.242C107.199 156.242 112.129 149.558 112.951 145.645C113.937 141.732 112.458 136.189 112.458 136.189C112.458 136.189 112.786 132.929 110.979 130.483C110.979 130.483 111.307 127.875 111.307 125.266C111.307 122.658 104.405 111.898 104.405 111.898C104.405 111.898 100.954 113.202 102.105 116.789C103.255 120.376 104.734 123.473 104.734 123.473L96.8462 120.539C96.8462 120.539 94.7098 124.288 98.9824 126.571C103.255 128.853 103.912 130.809 103.912 130.809L97.8322 131.299C97.8322 131.299 97.3392 134.559 99.6398 135.374C102.105 136.026 102.105 136.026 102.105 136.026L95.8602 140.102Z" fill="#EAC8BB"/>
<path d="M99.3109 135.048C100.461 135.211 101.94 135.7 104.734 136.189H104.898C105.555 137.493 106.048 139.124 105.884 141.08C105.72 143.036 104.898 144.83 103.419 146.46C101.776 148.09 99.6396 149.068 97.9963 149.884C96.1886 150.699 94.7097 151.677 93.888 152.818C92.9021 153.959 92.5734 155.101 92.409 155.916C92.2447 156.731 92.4091 157.22 92.2448 157.22C92.2448 157.22 92.2448 157.057 92.2448 156.894C92.2448 156.731 92.2448 156.405 92.2448 155.916C92.2448 155.101 92.7378 153.796 93.7238 152.655C94.7097 151.514 96.1886 150.373 97.9963 149.558C99.6396 148.579 101.776 147.764 103.255 146.134C104.569 144.667 105.555 142.873 105.72 141.08C105.884 139.287 105.391 137.656 104.734 136.515L104.898 136.678C101.283 135.7 99.3109 135.211 99.3109 135.048Z" fill="#65463C"/>
<path d="M111.307 135.701C111.142 135.701 111.142 135.212 110.814 134.396C110.485 133.581 109.664 132.766 108.513 132.114C107.363 131.462 106.213 131.136 105.391 130.973C104.569 130.81 104.076 130.647 104.076 130.647C104.076 130.647 104.569 130.484 105.555 130.647C106.377 130.81 107.692 130.973 108.842 131.625C109.499 131.951 109.992 132.44 110.321 132.929C110.649 133.418 110.978 133.907 111.142 134.233C111.307 135.212 111.307 135.701 111.307 135.701Z" fill="#65463C"/>
<path d="M110.65 129.017C110.485 129.017 109.664 127.55 108.02 126.082C106.541 124.615 104.898 123.637 105.062 123.637C105.062 123.474 106.87 124.289 108.349 125.756C109.992 127.386 110.65 129.017 110.65 129.017Z" fill="#65463C"/>
</svg>
