<svg width="229" height="326" viewBox="0 0 229 326" fill="none" xmlns="http://www.w3.org/2000/svg">
<path d="M176.261 224.976H55.6211V241.461H176.261V224.976Z" fill="#263238"/>
<path d="M176.425 241.787H55.457V224.812H176.589V241.787H176.425ZM55.7853 241.297H176.097V225.301H55.7853V241.297Z" fill="#263238"/>
<path d="M66.783 236.074L84.1813 321.277H148.358L165.264 241.461L66.783 236.074Z" fill="#263238"/>
<path d="M66.783 313.115L75.9746 325.847H154.103L165.264 313.115H66.783Z" fill="#455A64"/>
<path d="M111.428 238.523C111.264 238.523 110.935 199.023 110.771 150.382C110.607 101.742 110.771 62.2422 110.935 62.2422C111.099 62.2422 111.428 101.742 111.592 150.382C111.756 199.023 111.592 238.523 111.428 238.523Z" fill="#263238"/>
<path d="M138.347 139.773C138.347 139.773 138.183 140.1 138.019 140.753C137.69 141.406 137.362 142.222 136.87 143.364C136.705 143.854 136.377 144.507 136.049 145.16C135.721 145.813 135.556 146.629 135.228 147.445C134.9 148.261 134.572 149.077 134.243 150.056C133.915 151.036 133.587 152.015 133.423 152.994C132.11 157.075 131.125 162.135 129.976 167.685C129.155 173.234 128.499 179.437 128.17 186.129C127.514 199.186 128.335 211.102 129.155 219.753C129.483 223.996 129.976 227.424 130.14 229.872C130.304 231.015 130.304 231.831 130.468 232.647C130.468 233.3 130.468 233.626 130.468 233.626C130.468 233.626 130.304 233.3 130.304 232.647C130.14 231.994 129.976 231.015 129.812 229.872C129.483 227.424 128.991 223.996 128.499 219.753C127.514 211.265 126.693 199.186 127.35 186.129C127.678 179.6 128.335 173.234 129.319 167.685C130.304 162.135 131.453 157.075 132.93 152.994C133.259 152.015 133.587 151.036 133.915 150.056C134.243 149.077 134.572 148.261 134.9 147.445C135.228 146.629 135.556 145.976 135.721 145.16C136.049 144.507 136.377 143.854 136.541 143.364C137.034 142.385 137.526 141.569 137.69 140.916C138.019 139.937 138.183 139.773 138.347 139.773Z" fill="#263238"/>
<path d="M135.227 107.782C135.227 107.782 135.063 108.272 134.899 109.088C134.571 110.067 134.243 111.21 133.586 112.679C133.258 113.495 132.93 114.311 132.601 115.29C132.273 116.27 131.945 117.412 131.616 118.555C130.96 120.84 130.139 123.452 129.319 126.39C128.99 127.859 128.498 129.328 128.17 130.96C127.841 132.592 127.349 134.224 127.021 136.02C126.2 139.447 125.543 143.202 124.723 147.119C123.41 154.954 122.261 163.604 121.44 172.745C120.619 181.885 120.291 190.699 120.291 198.534C120.291 206.532 120.291 213.714 120.619 219.59C120.783 222.528 120.948 225.303 121.112 227.751C121.276 230.199 121.44 232.158 121.604 233.79C121.768 235.422 121.768 236.728 121.932 237.707C121.932 238.524 121.932 239.013 121.932 239.013C121.932 239.013 121.768 238.524 121.768 237.707C121.604 236.728 121.44 235.422 121.276 233.79C121.112 232.158 120.948 230.036 120.619 227.751C120.455 225.303 120.127 222.691 119.963 219.59C119.635 213.55 119.47 206.369 119.306 198.371C119.306 190.373 119.635 181.559 120.455 172.418C121.276 163.278 122.425 154.627 123.902 146.629C124.723 142.712 125.379 138.958 126.2 135.53C126.528 133.735 127.021 132.102 127.349 130.47C127.841 128.838 128.17 127.369 128.662 125.9C129.483 122.962 130.303 120.35 130.96 118.065C131.288 116.923 131.616 115.943 131.945 114.964C132.273 113.985 132.601 113.169 132.93 112.352C133.586 110.883 133.914 109.578 134.407 108.762C134.899 108.272 135.227 107.782 135.227 107.782Z" fill="#263238"/>
<path d="M103.714 245.543C103.714 245.543 103.714 245.379 103.714 245.053C103.714 244.726 103.714 244.237 103.55 243.747C103.386 242.441 103.386 240.809 103.222 238.524C102.894 233.954 102.565 227.425 102.073 219.264C101.088 203.105 99.4468 180.58 96.8206 155.933C95.3434 143.528 93.8662 131.94 92.0607 121.33C91.24 116.107 90.4193 111.047 89.4345 106.314C88.6138 101.58 87.629 97.1732 86.8083 93.2559C85.9876 89.3385 85.167 85.7476 84.3463 82.4832C83.6898 79.3819 83.0332 76.6071 82.3767 74.4853C81.8843 72.3634 81.3919 70.5679 81.0636 69.4253C80.8994 68.9357 80.8994 68.446 80.7353 68.1196C80.7353 67.7931 80.5712 67.6299 80.7353 67.6299C80.7353 67.6299 80.7353 67.7931 80.8994 68.1196C81.0636 68.446 81.0636 68.9357 81.2277 69.4253C81.556 70.5679 82.0484 72.3634 82.7049 74.4853C83.3615 76.6071 84.018 79.3819 84.8387 82.4832C85.6594 85.5844 86.48 89.1753 87.3007 93.2559C88.1214 97.1732 89.1062 101.58 90.091 106.314C91.0759 111.047 91.8965 116.107 92.8813 121.33C94.6868 131.94 96.3282 143.692 97.6413 155.933C100.432 180.58 101.745 203.105 102.729 219.264C103.222 227.425 103.55 233.954 103.714 238.524C103.878 240.809 103.878 242.441 103.878 243.747C103.878 244.237 103.878 244.726 103.878 245.053C103.714 245.379 103.714 245.543 103.714 245.543Z" fill="#263238"/>
<path d="M110.444 81.1762C109.951 75.6266 104.207 71.3828 98.626 71.3828C93.0454 71.3828 87.7931 74.6472 84.1821 79.0542C80.7353 83.4613 78.7656 88.8477 77.2884 94.3972C73.5133 107.618 71.3795 121.492 73.0209 135.04C74.6622 148.587 80.2428 161.971 90.091 171.602C91.7323 173.234 93.702 174.703 95.9998 174.213C97.1488 173.887 98.1336 173.071 99.1184 172.254C118.486 154.953 129.483 129 128.827 103.048C128.663 97.8249 128.006 92.4385 125.052 88.1947C122.097 83.9509 115.368 79.3807 110.444 81.1762Z" fill="#098342"/>
<path d="M68.2597 36.4526C65.6336 41.1861 63.0074 46.0827 60.3812 50.8162C60.2171 51.1426 59.8888 51.469 59.5606 51.6323C59.0681 51.6323 58.904 51.3058 58.5757 50.9794C51.5179 40.2067 44.6242 29.5972 37.5664 18.8246L42.4905 16.0498L68.2597 36.4526Z" fill="#098342"/>
<g opacity="0.2">
<g opacity="0.2">
<g opacity="0.2">
<g opacity="0.2">
<path opacity="0.2" d="M68.2597 36.4526C65.6336 41.1861 63.0074 46.0827 60.3812 50.8162C60.2171 51.1426 59.8888 51.469 59.5606 51.6323C59.0681 51.6323 58.904 51.3058 58.5757 50.9794C51.5179 40.2067 44.6242 29.5972 37.5664 18.8246L42.4905 16.0498L68.2597 36.4526Z" fill="black"/>
</g>
</g>
</g>
</g>
<path d="M110.935 62.2427C86.9716 48.2055 63.172 34.1684 39.2082 20.1312C38.5517 19.6416 37.731 19.1519 37.4027 18.3358C37.0745 17.3564 37.8951 16.2139 38.7158 15.3977C48.5639 5.27794 62.8437 -0.598044 77.1235 0.381292C91.2391 1.36063 104.862 9.52177 111.756 21.7635C118.65 34.3316 118.814 50.4906 110.935 62.2427Z" fill="#098342"/>
<path d="M49.5491 6.74736C49.5491 6.74736 49.8773 6.74735 50.5339 6.58413C51.1904 6.58413 52.0111 6.4209 53.3242 6.4209C55.6221 6.4209 59.0689 6.58412 63.3364 7.23701C67.4398 7.8899 72.3639 9.19569 77.4521 11.4808C82.5403 13.7659 87.7926 17.0304 92.7167 21.2742C97.4766 25.6812 101.252 30.5779 104.042 35.3113C106.832 40.208 108.638 44.7782 109.787 48.8588C110.936 52.9393 111.428 56.367 111.592 58.6521C111.756 59.7947 111.592 60.1212 111.756 60.774C111.756 61.4269 111.264 62.4063 111.264 62.4063C111.264 62.4063 111.592 61.1005 111.428 58.8153C111.1 56.5302 110.607 53.1026 109.459 49.1852C107.161 41.1873 101.908 30.5778 92.3884 21.927C82.8686 13.4395 71.7074 9.19571 63.5006 7.72671C59.3972 6.9106 55.9503 6.74736 53.6525 6.74736C50.8621 6.74736 49.5491 6.74736 49.5491 6.74736Z" fill="#263238"/>
<path d="M101.25 33.1895C101.25 33.3527 99.9369 34.0056 97.639 34.8217C95.3411 35.6378 92.2225 36.7804 88.6116 37.9229C85.0006 39.0655 81.7179 39.8816 79.42 40.5345C76.9579 41.1874 75.4807 41.3506 75.4807 41.3506C75.4807 41.1874 76.9579 40.6977 79.2558 40.0448C81.882 39.2287 85.0006 38.2494 88.4474 37.27C91.8943 36.1275 94.8487 35.1481 97.4749 34.332C99.7728 33.5159 101.086 33.0263 101.25 33.1895Z" fill="#263238"/>
<path d="M89.929 2.99219C90.0931 2.99219 90.7498 6.58308 90.7498 10.9901C90.914 15.3971 90.5856 18.988 90.2573 18.988C90.0931 18.988 89.929 15.3971 89.7648 10.9901C89.7648 6.58308 89.6006 2.99219 89.929 2.99219Z" fill="#263238"/>
<path d="M38.5513 19.316C38.5513 19.1528 40.5209 18.4999 43.8036 17.5205C47.0863 16.5412 51.6821 15.2354 56.6062 14.0929C61.6944 12.9503 66.2902 11.971 69.5729 11.3181C72.8556 10.6652 74.9893 10.502 74.9893 10.502C74.9893 10.6652 73.0197 11.1549 69.5729 11.8078C66.2902 12.6239 61.6944 13.6032 56.6062 14.7457C51.518 15.8883 47.0863 17.1941 43.6395 18.0102C40.685 18.9895 38.5513 19.4792 38.5513 19.316Z" fill="#263238"/>
<path d="M80.5706 69.0981C74.3335 64.3647 67.9322 63.5485 60.2178 63.875C52.5035 64.2014 44.9532 66.4865 37.8954 69.5878C25.7494 74.8109 14.424 82.6456 7.20209 93.5815C-0.0198701 104.517 -2.4819 119.044 2.93456 131.123C3.42697 132.265 4.24765 133.571 5.3966 134.061C6.70968 134.55 8.1869 134.224 9.49998 133.734C23.2874 129.327 37.0747 124.757 49.7132 117.738C62.3516 110.72 73.8411 101.09 80.7348 88.3584C82.3761 85.2571 83.6892 81.9927 84.0175 78.565C84.0175 75.1373 83.0327 71.5465 80.5706 69.0981Z" fill="#098342"/>
<path d="M80.737 67.6289C80.737 67.6289 80.4088 67.7921 79.7522 67.9554C78.9315 68.2818 78.1109 68.6083 76.7978 68.9347C76.1413 69.0979 75.4847 69.4244 74.664 69.5876C73.8433 69.914 73.0227 70.2405 72.202 70.5669C70.3965 71.2198 68.4269 72.0359 66.2931 73.0153C65.1442 73.5049 64.1594 73.9946 62.8463 74.4843C61.6973 74.9739 60.5484 75.6268 59.2353 76.2797C56.7733 77.4223 54.1471 79.0545 51.5209 80.6867C46.2686 83.9512 40.688 88.0318 35.2715 92.7652C29.8551 97.4987 25.2593 102.559 21.1559 107.292C19.1863 109.74 17.3808 112.025 15.9035 114.311C15.0829 115.453 14.2622 116.596 13.6056 117.575C12.9491 118.718 12.2926 119.697 11.636 120.676C10.3229 122.635 9.33813 124.594 8.51745 126.226C8.02504 127.042 7.69677 127.858 7.20437 128.511C6.8761 129.164 6.54782 129.817 6.21955 130.47C5.72714 131.612 5.23474 132.428 4.90647 133.244C4.5782 133.897 4.41406 134.224 4.41406 134.224C4.41406 134.224 4.5782 133.897 4.74233 133.244C5.07061 132.591 5.39887 131.612 5.89128 130.47C6.21955 129.817 6.38368 129.164 6.71195 128.511C7.04023 127.858 7.53263 127.042 7.8609 126.226C8.68158 124.594 9.6664 122.635 10.9795 120.676C11.636 119.697 12.2926 118.554 12.9491 117.575C13.6056 116.432 14.4263 115.453 15.247 114.311C16.7242 112.025 18.6938 109.577 20.4993 107.129C24.4386 102.232 29.1985 97.1722 34.615 92.4387C40.0314 87.7053 45.7762 83.6247 51.0285 80.3603C53.8188 78.7281 56.2809 77.2591 58.7429 76.1165C60.056 75.4636 61.2049 74.8107 62.3539 74.321C63.5028 73.8314 64.6518 73.3417 65.8007 72.852C67.9345 71.8727 70.0682 71.2198 71.7096 70.5669C72.5303 70.2405 73.3509 69.9141 74.1716 69.7508C74.9923 69.5876 75.6488 69.2612 76.3054 69.0979C77.4543 68.7715 78.4391 68.4451 79.2598 68.2818C80.4088 67.6289 80.737 67.6289 80.737 67.6289Z" fill="#263238"/>
<path d="M32.6423 93.5813C32.6423 93.7446 25.9128 96.0297 17.706 98.3148C9.3351 100.763 2.60554 102.559 2.44141 102.232C2.44141 102.069 9.17096 99.7838 17.3777 97.4987C25.7486 95.0503 32.4782 93.2549 32.6423 93.5813Z" fill="#263238"/>
<path d="M31.9844 126.552C31.8203 126.552 31.6561 124.756 31.6561 121.982C31.6561 119.044 31.4919 115.126 31.6561 110.719C31.8203 106.312 31.9844 102.395 32.3128 99.4569C32.4769 96.5189 32.8053 94.8867 32.9694 94.8867C33.1336 94.8867 33.1336 96.6822 32.9694 99.6202C32.8053 102.721 32.8053 106.639 32.6411 110.882C32.4769 115.126 32.4769 118.88 32.3128 122.145C32.1486 124.756 32.1486 126.552 31.9844 126.552Z" fill="#263238"/>
<path d="M60.3823 112.189C60.2181 112.189 59.3973 104.192 58.7406 94.2349C58.0839 84.2783 57.7556 76.1172 57.9198 76.1172C58.0839 76.1172 58.9048 84.1151 59.5615 94.0717C60.2181 104.028 60.5465 112.026 60.3823 112.189Z" fill="#263238"/>
<path d="M24.9287 75.1378C24.9287 74.9746 26.7342 74.9746 29.6886 74.9746C32.6431 74.9746 36.7465 75.1379 41.3423 75.3011C45.938 75.4643 49.8773 75.6275 52.9959 75.7908C55.9503 75.954 57.7558 76.1172 57.7558 76.2805C57.7558 76.4437 55.9503 76.4437 52.9959 76.4437C50.0414 76.4437 45.938 76.2805 41.3423 76.1172C36.7465 75.954 32.6431 75.7908 29.6886 75.6276C26.8983 75.4643 24.9287 75.3011 24.9287 75.1378Z" fill="#263238"/>
<path d="M93.0456 173.397C93.0456 173.397 93.0456 173.071 92.8815 172.418C92.8815 171.765 92.8815 170.786 92.7173 169.643C92.5532 167.195 92.5532 163.767 92.7173 159.524C92.7173 155.28 93.0456 150.22 93.538 144.507C94.0304 138.958 94.8511 132.755 96 126.389C97.149 120.024 98.6262 113.984 100.103 108.435C101.581 103.049 103.058 98.1519 104.535 94.0713C106.012 89.9908 107.161 86.7263 108.146 84.6044C108.638 83.6251 108.967 82.809 109.295 81.9929C109.623 81.34 109.623 81.1768 109.787 81.1768C109.787 81.1768 109.787 81.5032 109.459 82.1561C109.295 82.809 108.967 83.6251 108.474 84.7676C107.654 87.0527 106.505 90.3172 105.192 94.2346C103.879 98.3151 102.401 103.212 100.924 108.598C99.4469 113.984 98.1338 120.024 96.9849 126.553C95.8359 132.918 95.0152 139.121 94.3587 144.67C93.8663 150.22 93.3739 155.28 93.3739 159.524C93.2097 163.767 93.2098 167.195 93.2098 169.643C93.2098 170.786 93.2098 171.602 93.2098 172.418C93.2098 173.071 93.2097 173.397 93.0456 173.397Z" fill="#263238"/>
<path d="M96.8218 126.716C96.8218 126.879 95.8369 128.022 94.0315 129.817C92.226 131.612 89.5998 134.061 86.4812 136.672C83.5268 139.284 80.7365 141.569 78.6027 143.201C76.469 144.834 75.1559 145.65 75.1559 145.65C75.1559 145.486 76.3048 144.507 78.2744 142.712C80.4082 140.753 83.0344 138.468 85.9888 136.02C88.7791 133.571 91.4053 131.286 93.7032 129.327C95.5087 127.695 96.8218 126.716 96.8218 126.716Z" fill="#263238"/>
<path d="M119.636 144.997C119.472 144.997 118.323 143.365 116.518 140.753C114.548 137.978 112.086 134.387 109.46 130.47C106.67 126.553 104.208 123.125 102.238 120.35C100.433 117.739 99.2836 116.106 99.2836 116.106C99.4477 116.106 100.761 117.575 102.73 120.024C104.7 122.472 107.326 126.063 110.117 130.144C112.907 134.224 115.369 137.815 117.01 140.59C118.652 143.201 119.636 144.834 119.636 144.997Z" fill="#263238"/>
<path d="M107.651 87.7053C107.815 87.8685 100.265 92.9284 90.7447 98.9676C81.3889 105.007 73.5104 109.74 73.5104 109.577C73.3463 109.414 80.8965 104.354 90.4164 98.3147C99.7721 92.2755 107.486 87.542 107.651 87.7053Z" fill="#263238"/>
<path d="M128.991 110.556C128.827 110.72 123.739 105.986 117.666 100.11C111.593 94.0709 106.668 89.1742 106.833 89.0109C106.997 88.8477 112.085 93.5812 118.322 99.4572C124.231 105.496 129.155 110.393 128.991 110.556Z" fill="#263238"/>
<path d="M134.245 110.068L140.646 109.578C145.242 109.252 149.674 107.783 153.777 105.661C155.747 104.518 157.716 103.539 159.85 102.559C167.893 99.295 176.756 99.9478 185.455 99.4581C199.571 98.8052 213.358 95.2144 226.161 89.1751C226.817 88.8487 227.474 88.359 227.966 87.5429C229.279 85.0945 226.817 82.9726 224.683 81.6669C213.851 74.9747 202.689 68.2826 190.379 64.8549C178.069 61.5905 163.953 62.0801 153.449 69.2619C140.974 77.9127 136.379 95.2143 134.245 110.068Z" fill="#098342"/>
<path d="M228.13 86.7266C228.13 86.7266 227.802 86.5634 226.981 86.237C226.161 85.9106 225.176 85.2577 223.863 84.6048C221.237 83.1358 217.297 81.1771 212.537 78.892C207.613 76.6069 201.869 73.9953 194.975 72.1999C188.245 70.2412 180.367 69.2619 172.16 70.4044C164.117 71.3837 156.731 74.6482 151.479 79.2184C146.227 83.9519 142.944 89.5014 140.646 94.2349C138.348 99.1316 137.035 103.212 135.886 105.987C135.394 107.293 135.066 108.435 134.737 109.251C134.409 110.067 134.245 110.394 134.245 110.394C134.245 110.394 134.245 109.904 134.573 109.251C134.901 108.435 135.23 107.293 135.558 105.987C136.543 103.212 137.856 98.9683 139.99 94.0717C142.288 89.175 145.406 83.4622 150.823 78.7288C156.239 73.8321 163.789 70.7309 171.996 69.5883C180.203 68.609 188.245 69.5883 195.139 71.547C202.033 73.5057 207.942 76.1172 212.702 78.5655C217.462 81.0139 221.237 83.1358 223.863 84.6048C225.176 85.2577 226.161 85.9105 226.817 86.4002C227.802 86.5634 228.13 86.7266 228.13 86.7266Z" fill="#263238"/>
<path d="M212.536 95.051C212.372 95.2142 204.001 89.8279 193.661 82.8093C183.32 75.954 175.113 70.078 175.278 69.9147C175.442 69.7515 183.813 75.1379 194.153 82.1564C204.33 89.175 212.7 94.8878 212.536 95.051Z" fill="#263238"/>
<path d="M203.511 69.5884C203.511 69.7517 200.885 70.4051 197.274 70.7317C193.827 71.0584 191.037 70.8951 191.037 70.7317C191.037 70.5684 193.827 70.405 197.274 70.0784C200.721 69.7517 203.511 69.425 203.511 69.5884Z" fill="#263238"/>
<path d="M166.415 64.8541C166.579 65.0173 165.43 66.8127 163.624 69.0979C161.819 71.383 160.342 73.1784 160.178 73.0152C160.013 72.852 161.162 71.0565 162.968 68.7714C164.609 66.4863 166.251 64.6908 166.415 64.8541Z" fill="#263238"/>
<path d="M173.966 100.111C173.966 100.274 172.324 99.4579 169.862 97.9889C167.4 96.5199 164.118 94.398 160.507 91.7864C156.896 89.1749 153.941 86.8898 151.643 85.0943C149.345 83.2989 148.032 82.1563 148.197 82.1563C148.197 81.9931 149.674 82.9725 152.136 84.6047C154.598 86.4001 157.716 88.6852 161.163 91.1336C164.61 93.7451 167.893 95.867 170.191 97.4992C172.653 98.9682 174.13 99.9476 173.966 100.111Z" fill="#263238"/>
<path d="M143.762 137.488C137.524 135.856 130.302 141.895 128.989 148.098C127.676 154.3 130.138 160.666 132.765 166.379C138.838 179.11 147.208 190.862 158.37 199.676C169.367 208.49 183.318 214.04 197.434 214.04C194.808 201.961 198.09 189.393 196.613 177.151C195.3 166.379 190.376 156.259 182.662 148.751C174.947 141.243 164.607 136.346 153.938 135.203C149.999 134.387 145.403 133.898 143.762 137.488Z" fill="#098342"/>
<path d="M197.434 213.876C197.434 213.876 197.106 213.713 196.613 213.55C196.121 213.224 195.3 212.734 194.315 212.081C192.346 210.612 190.212 207.837 188.242 203.92C187.257 201.961 186.109 200.002 185.124 197.717C184.139 195.432 182.99 192.984 181.841 190.372C180.692 187.761 179.379 185.149 177.738 182.538C176.096 179.926 174.291 177.478 172.157 174.866C167.889 169.97 163.458 165.726 159.519 161.645C155.579 157.565 152.297 153.647 149.835 150.056C147.373 146.465 145.895 143.364 145.075 141.079C144.746 139.937 144.418 139.121 144.254 138.468C144.09 137.815 144.09 137.488 144.09 137.488C144.09 137.488 144.582 138.794 145.403 140.916C146.388 143.038 147.865 146.139 150.327 149.73C152.789 153.158 156.072 157.075 160.011 160.992C163.95 165.073 168.546 169.317 172.814 174.213C174.947 176.662 176.917 179.273 178.558 181.885C180.2 184.496 181.513 187.271 182.662 189.883C183.811 192.494 184.96 194.943 185.944 197.228C186.929 199.513 188.078 201.635 189.063 203.43C190.868 207.184 193.002 210.122 194.808 211.591C196.285 213.224 197.434 213.876 197.434 213.876Z" fill="#263238"/>
<path d="M165.425 203.92C165.261 203.92 165.425 202.288 165.917 199.839C166.41 197.391 167.23 193.8 168.215 190.046C169.364 186.292 170.513 182.864 171.334 180.416C172.319 177.968 172.975 176.499 172.975 176.662C173.139 176.662 172.647 178.294 171.826 180.742C171.005 183.191 170.021 186.618 168.872 190.372C167.887 194.127 166.902 197.554 166.246 200.003C166.081 202.288 165.589 203.92 165.425 203.92Z" fill="#263238"/>
<path d="M196.286 174.213C196.286 174.376 194.644 173.887 191.854 173.234C189.228 172.581 185.453 171.602 181.349 170.622C177.246 169.643 173.471 168.99 170.845 168.5C168.219 168.011 166.413 167.684 166.413 167.521C166.413 167.358 168.054 167.521 170.845 167.848C173.635 168.174 177.41 168.827 181.514 169.806C185.617 170.785 189.228 171.765 191.854 172.581C194.644 173.56 196.286 174.213 196.286 174.213Z" fill="#263238"/>
<path d="M142.614 182.864C142.45 182.864 142.778 181.068 143.271 178.13C143.763 175.192 144.748 171.112 145.897 166.705C147.046 162.298 148.359 158.38 149.179 155.605C150.164 152.831 150.821 151.035 150.985 151.035C151.149 151.035 150.657 152.831 149.836 155.769C149.015 158.707 147.866 162.624 146.717 167.031C145.568 171.438 144.584 175.355 143.927 178.293C143.106 181.068 142.778 182.864 142.614 182.864Z" fill="#263238"/>
<path d="M182.17 148.424C182.17 148.588 174.456 148.098 164.936 147.119C155.416 146.139 147.701 145.16 147.866 144.834C147.866 144.67 155.58 145.16 165.1 146.139C174.456 147.282 182.17 148.261 182.17 148.424Z" fill="#263238"/>
<path d="M176.425 241.461C176.425 241.624 149.343 241.951 115.859 241.951C82.3758 241.951 55.2935 241.787 55.2935 241.461C55.2935 241.298 82.3758 240.972 115.859 240.972C149.343 240.972 176.425 241.135 176.425 241.461Z" fill="#455A64"/>
<path d="M157.551 276.065C157.551 276.228 139.332 276.554 116.846 276.554C94.3592 276.554 76.1401 276.391 76.1401 276.065C76.1401 275.738 94.3592 275.575 116.846 275.575C139.332 275.738 157.551 275.902 157.551 276.065Z" fill="#455A64"/>
<path d="M156.894 281.125C156.894 281.288 139.003 281.615 116.845 281.615C94.6868 281.615 76.796 281.452 76.796 281.125C76.796 280.962 94.6868 280.636 116.845 280.636C139.003 280.636 156.894 280.799 156.894 281.125Z" fill="#455A64"/>
<path d="M158.373 271.983C158.373 272.146 139.498 272.472 116.19 272.472C92.8833 272.472 74.0077 272.309 74.0077 271.983C74.0077 271.819 92.8833 271.493 116.19 271.493C139.498 271.656 158.373 271.819 158.373 271.983Z" fill="#455A64"/>
</svg>
