<svg id="undraw_On_the_way_re_swjt" xmlns="http://www.w3.org/2000/svg" width="538" height="236.765" viewBox="0 0 538 236.765">
  <path id="Path_2207" data-name="Path 2207" d="M348.23,501.326c-1.85,14.492-8.651,27.75-15.907,40.522-.24.435-.487.863-.74,1.3H256.173c-1.525-.4-3.031-.831-4.53-1.3a82.433,82.433,0,0,1-23.811-11.714c-27.744-19.988-38.419-57.759-33.6-91.6,3-21.027,12.227-42.495,30.2-53.819a45.337,45.337,0,0,1,32.6-5.711c.286.052.571.117.863.175,9.4,2.116,17.769,7.372,22.533,15.841,8.566,15.218,3.465,34.071-.746,51.009s-6.477,37.212,5.711,49.7a31.091,31.091,0,0,1,36.154-40.412c.883.188,1.752.4,2.609.662a28.944,28.944,0,0,1,5.951,2.492C344.479,466.5,350.3,484.992,348.23,501.326Z" transform="translate(-188.173 -306.382)" fill="#f2f2f2"/>
  <path id="Path_2208" data-name="Path 2208" d="M326.219,542.32c2.09.487,4.186.915,6.295,1.3h-11.4c-1.493-.4-2.979-.831-4.452-1.3q-4.858-1.519-9.566-3.485c-12.59-5.283-24.187-13.213-32.961-23.765a67.087,67.087,0,0,1-10.4-16.984,77.135,77.135,0,0,1-5.321-21.734c-1.59-15.316.032-31.053,3.063-46.1a192.39,192.39,0,0,1,15.03-45.084q1.236-2.58,2.557-5.127a1,1,0,0,1,.668-.571,1.154,1.154,0,0,1,.863.175,1.367,1.367,0,0,1,.539,1.8,190.174,190.174,0,0,0-15.952,43.455c-3.452,14.712-5.412,30.106-4.744,45.234.636,14.135,4.329,28.036,12.707,39.594a79.883,79.883,0,0,0,29.9,24.538A109.761,109.761,0,0,0,326.219,542.32Z" transform="translate(-210.877 -306.853)" fill="#fff"/>
  <path id="Path_2209" data-name="Path 2209" d="M390.6,584.91h-3.362c-.376-.428-.74-.863-1.1-1.3a71.654,71.654,0,0,1-15.082-32.228,69.917,69.917,0,0,1,6.029-43.514,71.543,71.543,0,0,1,6.516-10.786c.883.188,1.752.4,2.609.662a67.632,67.632,0,0,0,3.226,85.866C389.811,584.047,390.2,584.482,390.6,584.91Z" transform="translate(-250.23 -348.145)" fill="#fff"/>
  <path id="Path_2210" data-name="Path 2210" d="M868.371,597.817c.488,3.825,2.283,7.324,4.2,10.695.063.115.128.228.2.343h19.9c.4-.1.8-.219,1.2-.343a21.758,21.758,0,0,0,6.284-3.092c7.322-5.275,10.14-15.244,8.867-24.176-.791-5.549-3.227-11.215-7.969-14.2a11.966,11.966,0,0,0-8.6-1.507c-.075.014-.151.031-.228.046a8.878,8.878,0,0,0-5.947,4.181c-2.261,4.016-.915,8.992.2,13.462s1.709,9.821-1.507,13.118a8.206,8.206,0,0,0-9.542-10.665c-.233.05-.462.106-.689.175a7.639,7.639,0,0,0-1.571.658C869.361,588.626,867.825,593.506,868.371,597.817Z" transform="translate(-425.167 -372.089)" fill="#f2f2f2"/>
  <path id="Path_2211" data-name="Path 2211" d="M885.714,608.637c-.551.128-1.1.242-1.661.343h3.009c.394-.106.786-.219,1.175-.343q1.282-.4,2.525-.92a22.65,22.65,0,0,0,8.7-6.272,17.706,17.706,0,0,0,2.744-4.482,20.358,20.358,0,0,0,1.4-5.736,40.794,40.794,0,0,0-.808-12.166,50.776,50.776,0,0,0-3.967-11.9q-.326-.681-.675-1.353a.264.264,0,0,0-.176-.151.3.3,0,0,0-.228.046.361.361,0,0,0-.142.476,50.191,50.191,0,0,1,4.21,11.469,44.146,44.146,0,0,1,1.252,11.938,19.047,19.047,0,0,1-3.354,10.45,21.083,21.083,0,0,1-7.892,6.476,28.967,28.967,0,0,1-6.115,2.124Z" transform="translate(-430.71 -372.215)" fill="#fff"/>
  <path id="Path_2212" data-name="Path 2212" d="M876.437,619.878h.887c.1-.113.2-.228.289-.343a18.911,18.911,0,0,0,3.981-8.506A18.453,18.453,0,0,0,880,599.546a18.894,18.894,0,0,0-1.72-2.847c-.233.05-.463.106-.689.175a17.849,17.849,0,0,1-.851,22.662C876.644,619.65,876.542,619.764,876.437,619.878Z" transform="translate(-428.036 -383.113)" fill="#fff"/>
  <path id="Path_2213" data-name="Path 2213" d="M557.959,466.518H495.67l-.661-19.152a5.75,5.75,0,0,1,6.445-5.9L537.7,445.9h0a20.307,20.307,0,0,1,20.252,20.293Z" transform="translate(-294.144 -328.605)" fill="#179bd7"/>
  <path id="Path_2214" data-name="Path 2214" d="M523.353,375.414H479.909a4.4,4.4,0,0,0-4.4,4.4v43.444a4.4,4.4,0,0,0,4.4,4.4h43.444a4.4,4.4,0,0,0,4.4-4.4V379.813a4.4,4.4,0,0,0-4.4-4.4Z" transform="translate(-287.301 -305.436)" fill="#ccc"/>
  <path id="Path_2215" data-name="Path 2215" d="M519.2,416.082l-20.512,3.994a4.68,4.68,0,0,1-5.482-3.695l-1.576-8.1a4.68,4.68,0,0,1,3.695-5.482l20.512-3.994a4.68,4.68,0,0,1,5.482,3.695l1.577,8.1A4.68,4.68,0,0,1,519.2,416.082Z" transform="translate(-292.928 -313.618)" fill="#3f3d56"/>
  <path id="Path_2216" data-name="Path 2216" d="M518.655,409.553,503,412.6a1.1,1.1,0,1,1-.42-2.159l15.654-3.048a1.1,1.1,0,0,1,.42,2.159Z" transform="translate(-296.491 -316.655)" fill="#fff"/>
  <path id="Path_2217" data-name="Path 2217" d="M518.055,416.509l-8.1,1.577a1.1,1.1,0,0,1-.42-2.159l8.1-1.577a1.1,1.1,0,1,1,.42,2.159Z" transform="translate(-298.933 -319.096)" fill="#fff"/>
  <path id="Path_2218" data-name="Path 2218" d="M527.752,379.813v5.774H475.51v-5.774a4.4,4.4,0,0,1,4.4-4.4h43.444A4.4,4.4,0,0,1,527.752,379.813Z" transform="translate(-287.301 -305.436)" fill="#b3b3b3"/>
  <path id="Path_2219" data-name="Path 2219" d="M677.675,380.044a6.972,6.972,0,0,0-9.86-4.131L608.046,354.47,605.414,369.4l59.578,16.384a7.009,7.009,0,0,0,12.683-5.74Z" transform="translate(-332.9 -298.084)" fill="#ffb8b8"/>
  <path id="Path_2220" data-name="Path 2220" d="M677.675,380.044a6.972,6.972,0,0,0-9.86-4.131L608.046,354.47,605.414,369.4l59.578,16.384a7.009,7.009,0,0,0,12.683-5.74Z" transform="translate(-332.9 -298.084)" opacity="0.2"/>
  <path id="Path_2221" data-name="Path 2221" d="M609.931,354.253,604.287,369a3.126,3.126,0,0,1-4.453,1.607l-13.717-7.72a8.682,8.682,0,0,1,6.255-16.2l15.317,3.4a3.126,3.126,0,0,1,2.242,4.169Z" transform="translate(-324.176 -295.147)" fill="#1082b7"/>
  <path id="Path_2222" data-name="Path 2222" d="M712.426,414.914l-21.416,9.735,2.812,10.585a164.668,164.668,0,0,1,4.244,62.723h0l15.658,3.27,12.979-33.1-4.543-37.641Z" transform="translate(-362.947 -319.302)" fill="#179bd7"/>
  <path id="Path_2223" data-name="Path 2223" d="M774.646,490.414c-14.071,0-25.538,10.229-26.095,23.039H800.74C800.183,500.643,788.717,490.414,774.646,490.414Z" transform="translate(-383.145 -345.804)" fill="#3f3d56"/>
  <path id="Path_2224" data-name="Path 2224" d="M656,465.348c-.732-57.823-33.663-52.5-33.663-52.5s.616,18,.912,18.558c20.985,39.7-13.648,86.251-57.733,77.688q-1.247-.242-2.4-.491A22.442,22.442,0,0,1,545.5,483.443c4.343-34.873-17.257-34.256-17.257-34.256H496.657l-16.4-14.762a4.768,4.768,0,0,0-7.664,1.9l-2.11,5.727s-31.151,3.245-28.555,33.747h9.631a19.447,19.447,0,0,0,.1,2.6l71.875-.584a7.867,7.867,0,0,1,7.949,7.593,7.627,7.627,0,0,1-7.881,7.655l-11.588-.386c-3.569,15.9,5.192,26.608,14.845,33.341a53.961,53.961,0,0,0,30.9,9.491h31.48c40.885,0,48.024-34.4,48.024-34.4C658.684,492.02,656,465.348,656,465.348Z" transform="translate(-275.458 -318.53)" fill="#3f3d56"/>
  <circle id="Ellipse_89" data-name="Ellipse 89" cx="36.505" cy="36.505" r="36.505" transform="translate(353.049 162.782)" fill="#3f3d56"/>
  <circle id="Ellipse_90" data-name="Ellipse 90" cx="8.947" cy="8.947" r="8.947" transform="translate(380.606 190.339)" fill="#fff"/>
  <circle id="Ellipse_91" data-name="Ellipse 91" cx="42.021" cy="42.021" r="42.021" transform="translate(163.224 151.749)" fill="#3f3d56"/>
  <circle id="Ellipse_92" data-name="Ellipse 92" cx="10.299" cy="10.299" r="10.299" transform="translate(194.945 183.471)" fill="#fff"/>
  <path id="Path_2225" data-name="Path 2225" d="M686.64,411.96l-7.706-20.929a8.851,8.851,0,0,1,5.248-11.364l22.091-8.133a15.574,15.574,0,1,1,10.763,29.229Z" transform="translate(-358.516 -303.736)" fill="#3f3d56"/>
  <path id="Path_2226" data-name="Path 2226" d="M742.219,386.326a15.283,15.283,0,0,1-5.711,11.9,19.462,19.462,0,0,1-12.785-26.8,15.254,15.254,0,0,1,18.5,14.9Z" transform="translate(-373.829 -303.914)" fill="#179bd7"/>
  <ellipse id="Ellipse_93" data-name="Ellipse 93" cx="9.086" cy="11.033" rx="9.086" ry="11.033" transform="translate(162.899 139.419)" fill="#179bd7"/>
  <path id="Path_2227" data-name="Path 2227" d="M450.07,280.843h7.956l3.785-20.635H450.069Z" transform="translate(-157.986 -91.34)" fill="#ffb8b8"/>
  <path id="Path_2228" data-name="Path 2228" d="M632.444,555.588h15.669a9.985,9.985,0,0,1,9.985,9.986v.324H632.444Z" transform="translate(-342.389 -368.681)" fill="#2f2e41"/>
  <path id="Path_2229" data-name="Path 2229" d="M620.724,505.9q-.139,0-.279-.013l-11.011-.8a2.92,2.92,0,0,1-2.472-3.913L621.7,468.066a2.27,2.27,0,0,0-.127-1.816,2.239,2.239,0,0,0-1.435-1.142c-6.929-1.811-24.708-6.634-40.1-12.277-6.594-2.418-10.746-5.912-12.343-10.385-2.1-5.9,1.009-11.275,1.143-11.5l.1-.177,14.482,1.316,15.7,1.335,34.4,18.449A13.035,13.035,0,0,1,639.25,468.6L623.389,504.17A2.918,2.918,0,0,1,620.724,505.9Z" transform="translate(-319.404 -324.867)" fill="#2f2e41"/>
  <circle id="Ellipse_94" data-name="Ellipse 94" cx="15.939" cy="15.939" r="15.939" transform="translate(250.598 9.838)" fill="#ffb8b8"/>
  <path id="Path_2230" data-name="Path 2230" d="M443.07,283.843h7.956l3.785-20.635H443.069Z" transform="translate(-155.528 -92.393)" fill="#ffb8b8"/>
  <path id="Path_2231" data-name="Path 2231" d="M625.444,558.588h15.669a9.985,9.985,0,0,1,9.985,9.986v.324H625.444Z" transform="translate(-339.931 -369.734)" fill="#2f2e41"/>
  <path id="Path_2232" data-name="Path 2232" d="M613.724,508.9q-.139,0-.279-.013l-11.011-.8a2.92,2.92,0,0,1-2.472-3.913L614.7,471.066a2.27,2.27,0,0,0-.127-1.816,2.239,2.239,0,0,0-1.435-1.142c-6.929-1.811-24.708-6.634-40.1-12.277-6.594-2.418-10.746-5.912-12.343-10.385-2.1-5.9,1.009-11.275,1.143-11.5l.1-.177,14.482,1.316,15.7,1.335,34.4,18.449A13.035,13.035,0,0,1,632.25,471.6L616.389,507.17a2.918,2.918,0,0,1-2.665,1.731Z" transform="translate(-316.947 -325.92)" fill="#2f2e41"/>
  <path id="Path_2233" data-name="Path 2233" d="M589.563,342.635l-16.873-5.841s-10.593,8.138-5.5,28.327a49.979,49.979,0,0,1-2.207,31.359,32.322,32.322,0,0,1-1.7,3.59s18.82,22.714,36.343,5.841l-6.814-32.773S603.516,351.4,589.563,342.635Z" transform="translate(-318.11 -291.879)" fill="#179bd7"/>
  <path id="Path_2234" data-name="Path 2234" d="M585.467,309.844c-2.269-3.4-4.059-8.1-1.561-11.335,2.465-3.189,7.328-2.719,11.1-4.13,5.259-1.966,8.31-8.144,7.358-13.678s-5.393-10.12-10.685-12a23.134,23.134,0,0,0-16.44.895c-6.379,2.661-11.851,7.807-14.146,14.327s-1.068,14.348,3.692,19.359c5.1,5.372,13.113,6.8,20.522,6.717" transform="translate(-316.951 -267.585)" fill="#2f2e41"/>
  <path id="Path_2235" data-name="Path 2235" d="M536.531,283.371c-2.859,2.327-7.22,1.294-10.289-.749s-5.558-4.951-8.879-6.552c-5.853-2.823-12.93-.946-18.627,2.181s-10.747,7.447-16.764,9.9-13.7,2.575-18.252-2.058a16.7,16.7,0,0,0,24.473,19.71c6.593-4.016,10.235-12.437,17.63-14.653,4.092-1.227,8.486-.239,12.622.831s8.448,2.226,12.622,1.315,8.078-4.662,7.547-8.9Z" transform="translate(-282.841 -270.078)" fill="#2f2e41"/>
  <path id="Path_2236" data-name="Path 2236" d="M676.041,383.8a6.972,6.972,0,0,0-10.294-2.882l-61.957-13.906-.77,15.142,61.144,8.908a7.009,7.009,0,0,0,11.878-7.261Z" transform="translate(-332.06 -302.485)" fill="#ffb8b8"/>
  <path id="Path_2237" data-name="Path 2237" d="M605.18,366.12,601.4,381.449a3.126,3.126,0,0,1-4.22,2.144l-14.565-5.969a8.682,8.682,0,1,1,4.208-16.845l15.619,1.481a3.126,3.126,0,0,1,2.739,3.861Z" transform="translate(-322.587 -300.207)" fill="#1082b7"/>
  <circle id="Ellipse_95" data-name="Ellipse 95" cx="4.543" cy="4.543" r="4.543" transform="translate(332.282 84.256)" fill="#179bd7"/>
  <path id="Path_2238" data-name="Path 2238" d="M723.5,631.063a.651.651,0,0,1-.649.649h-536.7a.649.649,0,1,1,0-1.3h536.7A.651.651,0,0,1,723.5,631.063Z" transform="translate(-185.5 -394.948)" fill="#3f3d56"/>
</svg>
